<?xml version="1.0" encoding="utf-8"?>
<!-- Generator: Adobe Illustrator 28.0.0, SVG Export Plug-In . SVG Version: 6.00 Build 0)  -->
<svg version="1.1" xmlns="http://www.w3.org/2000/svg" xmlns:xlink="http://www.w3.org/1999/xlink" x="0px" y="0px"
	 viewBox="0 0 648 648" style="enable-background:new 0 0 648 648;" xml:space="preserve">
<style type="text/css">
	.st0{display:none;}
	.st1{display:inline;fill:#051C2C;}
	.st2{display:inline;fill:#FFFFFF;}
	.st3{clip-path:url(#SVGID_00000165219858675471239050000008591790874260846475_);fill:#051C2C;}
	.st4{clip-path:url(#SVGID_00000165219858675471239050000008591790874260846475_);}
	.st5{fill:#B43357;}
	.st6{fill:#B21F43;}
	.st7{fill:#CA2127;}
	.st8{fill:#ED1C24;}
	.st9{fill:#EE2624;}
	.st10{fill:#EE3524;}
	.st11{fill:#F04923;}
	.st12{fill:#F04E23;}
	.st13{fill:#F37321;}
	.st14{fill:#F6871F;}
	.st15{fill:#F99D1C;}
	.st16{fill:#BAA430;}
	.st17{fill:#81AF4B;}
	.st18{fill:#3EB271;}
	.st19{fill:#18B792;}
	.st20{fill:#16B9A0;}
	.st21{fill:#00B9AD;}
	.st22{opacity:0.9333;fill:#1B9B97;}
	.st23{opacity:0.8667;fill:#08737C;}
	.st24{opacity:0.8;fill:#127FA8;}
	.st25{opacity:0.5;clip-path:url(#SVGID_00000165219858675471239050000008591790874260846475_);}
	.st26{opacity:0.2;clip-path:url(#SVGID_00000165219858675471239050000008591790874260846475_);}
	.st27{clip-path:url(#SVGID_00000165219858675471239050000008591790874260846475_);fill:#EAE54E;}
	.st28{opacity:0.4;clip-path:url(#SVGID_00000165219858675471239050000008591790874260846475_);fill:#FFFFFF;}
	.st29{fill:#E8C2CD;}
	.st30{fill:#E8BCC7;}
	.st31{opacity:0.9333;fill:#BBE1E0;}
	.st32{fill:#C5E8D4;}
	.st33{fill:#B2EAE6;}
	.st34{fill:#BAE9DE;}
	.st35{fill:#B5D5D8;}
	.st36{fill:#B8D9E5;}
	.st37{fill:#D9E7C9;}
	.st38{fill:#FAC8BD;}
	.st39{fill:#FAC2BD;}
	.st40{fill:#FABBBD;}
	.st41{fill:#FABEBD;}
	.st42{fill:#FACABD;}
	.st43{fill:#FCD5BC;}
	.st44{fill:#EAE4C1;}
	.st45{fill:#EFBCBE;}
	.st46{fill:#FDE2BB;}
	.st47{fill:#FCDBBC;}
	.st48{clip-path:url(#SVGID_00000047034463127709136580000011975699766901908651_);fill:#051C2C;}
	.st49{clip-path:url(#SVGID_00000047034463127709136580000011975699766901908651_);}
	.st50{opacity:0.5;clip-path:url(#SVGID_00000047034463127709136580000011975699766901908651_);}
	.st51{opacity:0.2;clip-path:url(#SVGID_00000047034463127709136580000011975699766901908651_);}
	.st52{clip-path:url(#SVGID_00000047034463127709136580000011975699766901908651_);fill:#EAE54E;}
	.st53{opacity:0.4;clip-path:url(#SVGID_00000047034463127709136580000011975699766901908651_);fill:#FFFFFF;}
	.st54{clip-path:url(#SVGID_00000126302485071150621620000004322508105363245733_);fill:#051C2C;}
	.st55{clip-path:url(#SVGID_00000126302485071150621620000004322508105363245733_);}
	.st56{opacity:0.6;fill:#65BC46;}
	.st57{opacity:0.58;fill:#65BC46;}
	.st58{opacity:0.56;fill:#65BC46;}
	.st59{opacity:0.54;fill:#65BC46;}
	.st60{opacity:0.52;fill:#65BC46;}
	.st61{opacity:0.49;fill:#65BC46;}
	.st62{opacity:0.47;fill:#65BC46;}
	.st63{opacity:0.45;fill:#65BC46;}
	.st64{opacity:0.43;fill:#65BC46;}
	.st65{opacity:0.41;fill:#65BC46;}
	.st66{opacity:0.39;fill:#65BC46;}
	.st67{opacity:0.37;fill:#65BC46;}
	.st68{opacity:0.35;fill:#65BC46;}
	.st69{opacity:0.33;fill:#65BC46;}
	.st70{opacity:0.31;fill:#65BC46;}
	.st71{opacity:0.28;fill:#65BC46;}
	.st72{opacity:0.26;fill:#65BC46;}
	.st73{opacity:0.24;fill:#65BC46;}
	.st74{opacity:0.22;fill:#65BC46;}
	.st75{opacity:0.2;fill:#65BC46;}
	.st76{opacity:0.4;clip-path:url(#SVGID_00000126302485071150621620000004322508105363245733_);fill:#FFFFFF;}
	.st77{clip-path:url(#SVGID_00000055700793835320445510000006631744413183827107_);fill:#FFFFFF;}
	.st78{clip-path:url(#SVGID_00000055700793835320445510000006631744413183827107_);}
	.st79{opacity:0.4;clip-path:url(#SVGID_00000055700793835320445510000006631744413183827107_);fill:#FFFFFF;}
	.st80{opacity:0.22;clip-path:url(#SVGID_00000055700793835320445510000006631744413183827107_);fill:#E8F5E3;}
	.st81{clip-path:url(#SVGID_00000090274079672899627450000006199488478247440001_);fill:#051C2C;}
	.st82{clip-path:url(#SVGID_00000090274079672899627450000006199488478247440001_);}
	.st83{opacity:0.8;fill:#00ABE6;}
	.st84{opacity:0.78;fill:#00ABE6;}
	.st85{opacity:0.76;fill:#00ABE6;}
	.st86{opacity:0.74;fill:#00ABE6;}
	.st87{opacity:0.72;fill:#00ABE6;}
	.st88{opacity:0.69;fill:#00ABE6;}
	.st89{opacity:0.67;fill:#00ABE6;}
	.st90{opacity:0.65;fill:#00ABE6;}
	.st91{opacity:0.63;fill:#00ABE6;}
	.st92{opacity:0.61;fill:#00ABE6;}
	.st93{opacity:0.59;fill:#00ABE6;}
	.st94{opacity:0.57;fill:#00ABE6;}
	.st95{opacity:0.55;fill:#00ABE6;}
	.st96{opacity:0.53;fill:#00ABE6;}
	.st97{opacity:0.51;fill:#00ABE6;}
	.st98{opacity:0.48;fill:#00ABE6;}
	.st99{opacity:0.46;fill:#00ABE6;}
	.st100{opacity:0.44;fill:#00ABE6;}
	.st101{opacity:0.42;fill:#00ABE6;}
	.st102{opacity:0.4;fill:#00ABE6;}
	.st103{opacity:0.4;clip-path:url(#SVGID_00000090274079672899627450000006199488478247440001_);fill:#FFFFFF;}
	.st104{clip-path:url(#SVGID_00000010296347967116461390000017421491867230422156_);fill:#FFFFFF;}
	.st105{clip-path:url(#SVGID_00000010296347967116461390000017421491867230422156_);}
	.st106{opacity:0.8;fill:#00BCEB;}
	.st107{opacity:0.78;fill:#00BCEB;}
	.st108{opacity:0.76;fill:#00BCEB;}
	.st109{opacity:0.74;fill:#00BCEB;}
	.st110{opacity:0.72;fill:#00BCEB;}
	.st111{opacity:0.69;fill:#00BCEB;}
	.st112{opacity:0.67;fill:#00BCEB;}
	.st113{opacity:0.65;fill:#00BCEB;}
	.st114{opacity:0.63;fill:#00BCEB;}
	.st115{opacity:0.61;fill:#00BCEB;}
	.st116{opacity:0.59;fill:#00BCEB;}
	.st117{opacity:0.57;fill:#00BCEB;}
	.st118{opacity:0.53;fill:#00BCEB;}
	.st119{opacity:0.4;fill:#00BCEB;}
	.st120{opacity:0.51;fill:#00BCEB;}
	.st121{opacity:0.48;fill:#00BCEB;}
	.st122{opacity:0.46;fill:#00BCEB;}
	.st123{opacity:0.44;fill:#00BCEB;}
	.st124{opacity:0.42;fill:#00BCEB;}
	.st125{opacity:0.4;clip-path:url(#SVGID_00000010296347967116461390000017421491867230422156_);fill:#FFFFFF;}
	.st126{opacity:0.7;fill:#D9F5FC;}
	.st127{opacity:0.63;fill:#D9F5FC;}
	.st128{opacity:0.22;fill:#D9F5FC;}
	.st129{opacity:0.5;fill:#D9F5FC;}
	.st130{opacity:0.4;fill:#D9F5FC;}
	.st131{clip-path:url(#SVGID_00000120530755997746012860000007988646596084917649_);fill:#051C2C;}
	.st132{clip-path:url(#SVGID_00000120530755997746012860000007988646596084917649_);}
	.st133{opacity:0.6;fill:#3A63AF;}
	.st134{opacity:0.58;fill:#3A63AF;}
	.st135{opacity:0.56;fill:#3A63AF;}
	.st136{opacity:0.54;fill:#3A63AF;}
	.st137{opacity:0.52;fill:#3A63AF;}
	.st138{opacity:0.49;fill:#3A63AF;}
	.st139{opacity:0.47;fill:#3A63AF;}
	.st140{opacity:0.45;fill:#3A63AF;}
	.st141{opacity:0.43;fill:#3A63AF;}
	.st142{opacity:0.41;fill:#3A63AF;}
	.st143{opacity:0.39;fill:#3A63AF;}
	.st144{opacity:0.37;fill:#3A63AF;}
	.st145{opacity:0.35;fill:#3A63AF;}
	.st146{opacity:0.33;fill:#3A63AF;}
	.st147{opacity:0.31;fill:#3A63AF;}
	.st148{opacity:0.28;fill:#3A63AF;}
	.st149{opacity:0.26;fill:#3A63AF;}
	.st150{opacity:0.24;fill:#3A63AF;}
	.st151{opacity:0.22;fill:#3A63AF;}
	.st152{opacity:0.2;fill:#3A63AF;}
	.st153{opacity:0.4;clip-path:url(#SVGID_00000120530755997746012860000007988646596084917649_);fill:#FFFFFF;}
	.st154{clip-path:url(#SVGID_00000050653176797069413330000002598038697685976487_);fill:#FFFFFF;}
	.st155{clip-path:url(#SVGID_00000050653176797069413330000002598038697685976487_);}
	.st156{opacity:0.4;clip-path:url(#SVGID_00000050653176797069413330000002598038697685976487_);fill:#FFFFFF;}
	.st157{opacity:0.7;fill:#E1E8F3;}
	.st158{opacity:0.63;fill:#E1E8F3;}
	.st159{opacity:0.5667;fill:#E1E8F3;}
	.st160{opacity:0.5;fill:#E1E8F3;}
	.st161{opacity:0.4;fill:#E1E8F3;}
	.st162{clip-path:url(#SVGID_00000017488495568404387300000014164477305915747727_);fill:#051C2C;}
	.st163{clip-path:url(#SVGID_00000017488495568404387300000014164477305915747727_);}
	.st164{opacity:0.3;fill:#FFFFFF;}
	.st165{opacity:0.29;fill:#FFFFFF;}
	.st166{opacity:0.28;fill:#FFFFFF;}
	.st167{opacity:0.27;fill:#FFFFFF;}
	.st168{opacity:0.26;fill:#FFFFFF;}
	.st169{opacity:0.25;fill:#FFFFFF;}
	.st170{opacity:0.24;fill:#FFFFFF;}
	.st171{opacity:0.23;fill:#FFFFFF;}
	.st172{opacity:0.22;fill:#FFFFFF;}
	.st173{opacity:0.21;fill:#FFFFFF;}
	.st174{opacity:0.19;fill:#FFFFFF;}
	.st175{opacity:0.18;fill:#FFFFFF;}
	.st176{opacity:0.17;fill:#FFFFFF;}
	.st177{opacity:0.16;fill:#FFFFFF;}
	.st178{opacity:0.15;fill:#FFFFFF;}
	.st179{opacity:0.14;fill:#FFFFFF;}
	.st180{opacity:0.13;fill:#FFFFFF;}
	.st181{opacity:0.12;fill:#FFFFFF;}
	.st182{opacity:0.11;fill:#FFFFFF;}
	.st183{opacity:0.1;fill:#FFFFFF;}
	.st184{opacity:0.4;clip-path:url(#SVGID_00000017488495568404387300000014164477305915747727_);fill:#FFFFFF;}
	.st185{clip-path:url(#SVGID_00000093877256747828749110000015675636452193944986_);fill:#FFFFFF;}
	.st186{clip-path:url(#SVGID_00000093877256747828749110000015675636452193944986_);}
	.st187{opacity:0.2;fill:#12284B;}
	.st188{opacity:0.19;fill:#12284B;}
	.st189{opacity:0.18;fill:#12284B;}
	.st190{opacity:0.17;fill:#12284B;}
	.st191{opacity:0.16;fill:#12284B;}
	.st192{opacity:0.15;fill:#12284B;}
	.st193{opacity:0.14;fill:#12284B;}
	.st194{opacity:0.13;fill:#12284B;}
	.st195{opacity:0.12;fill:#12284B;}
	.st196{opacity:0.11;fill:#12284B;}
	.st197{opacity:0.1;fill:#12284B;}
	.st198{opacity:0.4;clip-path:url(#SVGID_00000093877256747828749110000015675636452193944986_);fill:#FFFFFF;}
	.st199{opacity:0.2;fill:#DBDFE4;}
	.st200{opacity:0.19;fill:#DBDFE4;}
	.st201{opacity:0.11;fill:#DBDFE4;}
	.st202{opacity:0.13;fill:#DBDFE4;}
	.st203{opacity:0.12;fill:#DBDFE4;}
	.st204{opacity:0.1;fill:#DBDFE4;}
	.st205{opacity:0.14;fill:#DBDFE4;}
	.st206{opacity:0.17;fill:#DBDFE4;}
	.st207{opacity:0.18;fill:#DBDFE4;}
	.st208{opacity:0.16;fill:#DBDFE4;}
	.st209{opacity:0.15;fill:#DBDFE4;}
	.st210{clip-path:url(#SVGID_00000028290786038223162490000002747290146957983161_);fill:#051C2C;}
	.st211{clip-path:url(#SVGID_00000028290786038223162490000002747290146957983161_);}
	.st212{opacity:0.6;fill:#FDB515;}
	.st213{opacity:0.58;fill:#FDB515;}
	.st214{opacity:0.56;fill:#FDB515;}
	.st215{opacity:0.54;fill:#FDB515;}
	.st216{opacity:0.52;fill:#FDB515;}
	.st217{opacity:0.49;fill:#FDB515;}
	.st218{opacity:0.47;fill:#FDB515;}
	.st219{opacity:0.45;fill:#FDB515;}
	.st220{opacity:0.43;fill:#FDB515;}
	.st221{opacity:0.41;fill:#FDB515;}
	.st222{opacity:0.39;fill:#FDB515;}
	.st223{opacity:0.37;fill:#FDB515;}
	.st224{opacity:0.35;fill:#FDB515;}
	.st225{opacity:0.33;fill:#FDB515;}
	.st226{opacity:0.31;fill:#FDB515;}
	.st227{opacity:0.28;fill:#FDB515;}
	.st228{opacity:0.26;fill:#FDB515;}
	.st229{opacity:0.24;fill:#FDB515;}
	.st230{opacity:0.22;fill:#FDB515;}
	.st231{opacity:0.2;fill:#FDB515;}
	.st232{opacity:0.4;clip-path:url(#SVGID_00000028290786038223162490000002747290146957983161_);fill:#FFFFFF;}
	.st233{clip-path:url(#SVGID_00000115503789973519279750000016292961409201712306_);fill:#FFFFFF;}
	.st234{clip-path:url(#SVGID_00000115503789973519279750000016292961409201712306_);}
	.st235{opacity:0.6;fill:#FAA61A;}
	.st236{opacity:0.58;fill:#FAA61A;}
	.st237{opacity:0.56;fill:#FAA61A;}
	.st238{opacity:0.54;fill:#FAA61A;}
	.st239{opacity:0.52;fill:#FAA61A;}
	.st240{opacity:0.49;fill:#FAA61A;}
	.st241{opacity:0.47;fill:#FAA61A;}
	.st242{opacity:0.45;fill:#FAA61A;}
	.st243{opacity:0.43;fill:#FAA61A;}
	.st244{opacity:0.41;fill:#FAA61A;}
	.st245{opacity:0.39;fill:#FAA61A;}
	.st246{opacity:0.37;fill:#FAA61A;}
	.st247{opacity:0.35;fill:#FAA61A;}
	.st248{opacity:0.33;fill:#FAA61A;}
	.st249{opacity:0.31;fill:#FAA61A;}
	.st250{opacity:0.28;fill:#FAA61A;}
	.st251{opacity:0.26;fill:#FAA61A;}
	.st252{opacity:0.24;fill:#FAA61A;}
	.st253{opacity:0.22;fill:#FAA61A;}
	.st254{opacity:0.2;fill:#FAA61A;}
	.st255{opacity:0.4;clip-path:url(#SVGID_00000115503789973519279750000016292961409201712306_);fill:#FFFFFF;}
	.st256{opacity:0.7;fill:#FEF2DD;}
	.st257{opacity:0.63;fill:#FEF2DD;}
	.st258{opacity:0.22;fill:#FEF2DD;}
	.st259{opacity:0.5;fill:#FEF2DD;}
	.st260{opacity:0.4;fill:#FEF2DD;}
	.st261{clip-path:url(#SVGID_00000142140195036123141480000016574757280405383593_);fill:#051C2C;}
	.st262{clip-path:url(#SVGID_00000142140195036123141480000016574757280405383593_);}
	.st263{opacity:0.6;fill:#EE2E24;}
	.st264{opacity:0.58;fill:#EE2E24;}
	.st265{opacity:0.56;fill:#EE2E24;}
	.st266{opacity:0.54;fill:#EE2E24;}
	.st267{opacity:0.52;fill:#EE2E24;}
	.st268{opacity:0.49;fill:#EE2E24;}
	.st269{opacity:0.47;fill:#EE2E24;}
	.st270{opacity:0.45;fill:#EE2E24;}
	.st271{opacity:0.43;fill:#EE2E24;}
	.st272{opacity:0.41;fill:#EE2E24;}
	.st273{opacity:0.39;fill:#EE2E24;}
	.st274{opacity:0.37;fill:#EE2E24;}
	.st275{opacity:0.35;fill:#EE2E24;}
	.st276{opacity:0.33;fill:#EE2E24;}
	.st277{opacity:0.31;fill:#EE2E24;}
	.st278{opacity:0.28;fill:#EE2E24;}
	.st279{opacity:0.26;fill:#EE2E24;}
	.st280{opacity:0.24;fill:#EE2E24;}
	.st281{opacity:0.22;fill:#EE2E24;}
	.st282{opacity:0.2;fill:#EE2E24;}
	.st283{opacity:0.4;clip-path:url(#SVGID_00000142140195036123141480000016574757280405383593_);fill:#FFFFFF;}
	.st284{clip-path:url(#SVGID_00000019643227866938361410000007936085524346795161_);fill:#FFFFFF;}
	.st285{clip-path:url(#SVGID_00000019643227866938361410000007936085524346795161_);}
	.st286{opacity:0.6;fill:#ED1C24;}
	.st287{opacity:0.58;fill:#ED1C24;}
	.st288{opacity:0.56;fill:#ED1C24;}
	.st289{opacity:0.54;fill:#ED1C24;}
	.st290{opacity:0.52;fill:#ED1C24;}
	.st291{opacity:0.49;fill:#ED1C24;}
	.st292{opacity:0.47;fill:#ED1C24;}
	.st293{opacity:0.45;fill:#ED1C24;}
	.st294{opacity:0.43;fill:#ED1C24;}
	.st295{opacity:0.41;fill:#ED1C24;}
	.st296{opacity:0.39;fill:#ED1C24;}
	.st297{opacity:0.37;fill:#ED1C24;}
	.st298{opacity:0.35;fill:#ED1C24;}
	.st299{opacity:0.33;fill:#ED1C24;}
	.st300{opacity:0.31;fill:#ED1C24;}
	.st301{opacity:0.28;fill:#ED1C24;}
	.st302{opacity:0.26;fill:#ED1C24;}
	.st303{opacity:0.24;fill:#ED1C24;}
	.st304{opacity:0.22;fill:#ED1C24;}
	.st305{opacity:0.2;fill:#ED1C24;}
	.st306{opacity:0.4;clip-path:url(#SVGID_00000019643227866938361410000007936085524346795161_);fill:#FFFFFF;}
	.st307{opacity:0.7;fill:#FCDDDE;}
	.st308{opacity:0.63;fill:#FCDDDE;}
	.st309{opacity:0.5667;fill:#FCDDDE;}
	.st310{opacity:0.5;fill:#FCDDDE;}
	.st311{opacity:0.4;fill:#FCDDDE;}
	.st312{clip-path:url(#SVGID_00000031902871275150515570000010335803581216339647_);fill:#051C2C;}
	.st313{clip-path:url(#SVGID_00000031902871275150515570000010335803581216339647_);}
	.st314{opacity:0.6;fill:#F26522;}
	.st315{opacity:0.58;fill:#F26522;}
	.st316{opacity:0.56;fill:#F26522;}
	.st317{opacity:0.54;fill:#F26522;}
	.st318{opacity:0.52;fill:#F26522;}
	.st319{opacity:0.49;fill:#F26522;}
	.st320{opacity:0.47;fill:#F26522;}
	.st321{opacity:0.45;fill:#F26522;}
	.st322{opacity:0.43;fill:#F26522;}
	.st323{opacity:0.41;fill:#F26522;}
	.st324{opacity:0.39;fill:#F26522;}
	.st325{opacity:0.37;fill:#F26522;}
	.st326{opacity:0.35;fill:#F26522;}
	.st327{opacity:0.33;fill:#F26522;}
	.st328{opacity:0.31;fill:#F26522;}
	.st329{opacity:0.28;fill:#F26522;}
	.st330{opacity:0.26;fill:#F26522;}
	.st331{opacity:0.24;fill:#F26522;}
	.st332{opacity:0.22;fill:#F26522;}
	.st333{opacity:0.2;fill:#F26522;}
	.st334{opacity:0.4;clip-path:url(#SVGID_00000031902871275150515570000010335803581216339647_);fill:#FFFFFF;}
	.st335{clip-path:url(#SVGID_00000088090601640775420000000007404112560091444884_);fill:#FFFFFF;}
	.st336{clip-path:url(#SVGID_00000088090601640775420000000007404112560091444884_);}
	.st337{opacity:0.6;fill:#F04E23;}
	.st338{opacity:0.58;fill:#F04E23;}
	.st339{opacity:0.56;fill:#F04E23;}
	.st340{opacity:0.54;fill:#F04E23;}
	.st341{opacity:0.52;fill:#F04E23;}
	.st342{opacity:0.49;fill:#F04E23;}
	.st343{opacity:0.47;fill:#F04E23;}
	.st344{opacity:0.45;fill:#F04E23;}
	.st345{opacity:0.43;fill:#F04E23;}
	.st346{opacity:0.41;fill:#F04E23;}
	.st347{opacity:0.39;fill:#F04E23;}
	.st348{opacity:0.37;fill:#F04E23;}
	.st349{opacity:0.35;fill:#F04E23;}
	.st350{opacity:0.33;fill:#F04E23;}
	.st351{opacity:0.31;fill:#F04E23;}
	.st352{opacity:0.28;fill:#F04E23;}
	.st353{opacity:0.26;fill:#F04E23;}
	.st354{opacity:0.24;fill:#F04E23;}
	.st355{opacity:0.22;fill:#F04E23;}
	.st356{opacity:0.2;fill:#EE4023;}
	.st357{opacity:0.4;clip-path:url(#SVGID_00000088090601640775420000000007404112560091444884_);fill:#FFFFFF;}
	.st358{opacity:0.22;clip-path:url(#SVGID_00000088090601640775420000000007404112560091444884_);fill:#FDE4DE;}
	.st359{clip-path:url(#SVGID_00000135683395693695759430000000729730571133912752_);fill:#051C2C;}
	.st360{clip-path:url(#SVGID_00000135683395693695759430000000729730571133912752_);}
	.st361{opacity:0.6;fill:#EF4D8F;}
	.st362{opacity:0.58;fill:#EF4D8F;}
	.st363{opacity:0.56;fill:#EF4D8F;}
	.st364{opacity:0.54;fill:#EF4D8F;}
	.st365{opacity:0.52;fill:#EF4D8F;}
	.st366{opacity:0.49;fill:#EF4D8F;}
	.st367{opacity:0.47;fill:#EF4D8F;}
	.st368{opacity:0.45;fill:#EF4D8F;}
	.st369{opacity:0.43;fill:#EF4D8F;}
	.st370{opacity:0.41;fill:#EF4D8F;}
	.st371{opacity:0.39;fill:#EF4D8F;}
	.st372{opacity:0.37;fill:#EF4D8F;}
	.st373{opacity:0.35;fill:#EF4D8F;}
	.st374{opacity:0.33;fill:#EF4D8F;}
	.st375{opacity:0.31;fill:#EF4D8F;}
	.st376{opacity:0.28;fill:#EF4D8F;}
	.st377{opacity:0.26;fill:#EF4D8F;}
	.st378{opacity:0.24;fill:#EF4D8F;}
	.st379{opacity:0.22;fill:#EF4D8F;}
	.st380{opacity:0.2;fill:#EF4D8F;}
	.st381{opacity:0.4;clip-path:url(#SVGID_00000135683395693695759430000000729730571133912752_);fill:#FFFFFF;}
	.st382{clip-path:url(#SVGID_00000012443835827989505610000014270404949262842544_);fill:#051C2C;}
	.st383{clip-path:url(#SVGID_00000012443835827989505610000014270404949262842544_);}
	.st384{opacity:0.6;fill:#662D91;}
	.st385{opacity:0.58;fill:#662D91;}
	.st386{opacity:0.56;fill:#662D91;}
	.st387{opacity:0.54;fill:#662D91;}
	.st388{opacity:0.52;fill:#662D91;}
	.st389{opacity:0.49;fill:#662D91;}
	.st390{opacity:0.47;fill:#662D91;}
	.st391{opacity:0.45;fill:#662D91;}
	.st392{opacity:0.43;fill:#662D91;}
	.st393{opacity:0.41;fill:#662D91;}
	.st394{opacity:0.39;fill:#662D91;}
	.st395{opacity:0.37;fill:#662D91;}
	.st396{opacity:0.35;fill:#662D91;}
	.st397{opacity:0.33;fill:#662D91;}
	.st398{opacity:0.31;fill:#662D91;}
	.st399{opacity:0.28;fill:#662D91;}
	.st400{opacity:0.26;fill:#662D91;}
	.st401{opacity:0.24;fill:#662D91;}
	.st402{opacity:0.22;fill:#662D91;}
	.st403{opacity:0.2;fill:#662D91;}
	.st404{opacity:0.4;clip-path:url(#SVGID_00000012443835827989505610000014270404949262842544_);fill:#FFFFFF;}
	.st405{clip-path:url(#SVGID_00000165913886729064932220000009194520906103053201_);fill:#FFFFFF;}
	.st406{clip-path:url(#SVGID_00000165913886729064932220000009194520906103053201_);}
	.st407{opacity:0.6;fill:#44217A;}
	.st408{opacity:0.58;fill:#44217A;}
	.st409{opacity:0.56;fill:#44217A;}
	.st410{opacity:0.54;fill:#44217A;}
	.st411{opacity:0.52;fill:#44217A;}
	.st412{opacity:0.49;fill:#44217A;}
	.st413{opacity:0.47;fill:#44217A;}
	.st414{opacity:0.45;fill:#44217A;}
	.st415{opacity:0.43;fill:#44217A;}
	.st416{opacity:0.41;fill:#44217A;}
	.st417{opacity:0.39;fill:#44217A;}
	.st418{opacity:0.37;fill:#44217A;}
	.st419{opacity:0.35;fill:#44217A;}
	.st420{opacity:0.33;fill:#44217A;}
	.st421{opacity:0.31;fill:#44217A;}
	.st422{opacity:0.28;fill:#44217A;}
	.st423{opacity:0.26;fill:#44217A;}
	.st424{opacity:0.24;fill:#44217A;}
	.st425{opacity:0.22;fill:#44217A;}
	.st426{opacity:0.2;fill:#44217A;}
	.st427{opacity:0.4;clip-path:url(#SVGID_00000165913886729064932220000009194520906103053201_);fill:#FFFFFF;}
	.st428{opacity:0.22;clip-path:url(#SVGID_00000165913886729064932220000009194520906103053201_);fill:#E3DEEB;}
	.st429{clip-path:url(#SVGID_00000172429521733092356810000006339091768954141104_);fill:#051C2C;}
	.st430{clip-path:url(#SVGID_00000172429521733092356810000006339091768954141104_);}
	.st431{opacity:0.7;fill:#00B5AD;}
	.st432{opacity:0.67;fill:#00B5AD;}
	.st433{opacity:0.64;fill:#00B5AD;}
	.st434{opacity:0.62;fill:#00B5AD;}
	.st435{opacity:0.59;fill:#00B5AD;}
	.st436{opacity:0.56;fill:#00B5AD;}
	.st437{opacity:0.53;fill:#00B5AD;}
	.st438{opacity:0.5;fill:#00B5AD;}
	.st439{opacity:0.47;fill:#00B5AD;}
	.st440{opacity:0.44;fill:#00B5AD;}
	.st441{opacity:0.41;fill:#00B5AD;}
	.st442{opacity:0.38;fill:#00B5AD;}
	.st443{opacity:0.35;fill:#00B5AD;}
	.st444{opacity:0.32;fill:#00B5AD;}
	.st445{opacity:0.29;fill:#00B5AD;}
	.st446{opacity:0.26;fill:#00B5AD;}
	.st447{opacity:0.23;fill:#00B5AD;}
	.st448{opacity:0.2;fill:#00B5AD;}
	.st449{opacity:0.17;fill:#00B5AD;}
	.st450{opacity:0.14;fill:#00B5AD;}
	.st451{opacity:0.4;clip-path:url(#SVGID_00000172429521733092356810000006339091768954141104_);fill:#FFFFFF;}
	.st452{clip-path:url(#SVGID_00000180362020773289863980000007515954914469785221_);fill:#FFFFFF;}
	.st453{clip-path:url(#SVGID_00000180362020773289863980000007515954914469785221_);}
	.st454{opacity:0.6;fill:#00917C;}
	.st455{opacity:0.58;fill:#00917C;}
	.st456{opacity:0.56;fill:#00917C;}
	.st457{opacity:0.54;fill:#00917C;}
	.st458{opacity:0.52;fill:#00917C;}
	.st459{opacity:0.49;fill:#00917C;}
	.st460{opacity:0.47;fill:#00917C;}
	.st461{opacity:0.45;fill:#00917C;}
	.st462{opacity:0.43;fill:#00917C;}
	.st463{opacity:0.41;fill:#00917C;}
	.st464{opacity:0.39;fill:#00917C;}
	.st465{opacity:0.37;fill:#00917C;}
	.st466{opacity:0.35;fill:#00917C;}
	.st467{opacity:0.33;fill:#00917C;}
	.st468{opacity:0.31;fill:#00917C;}
	.st469{opacity:0.28;fill:#00917C;}
	.st470{opacity:0.26;fill:#00917C;}
	.st471{opacity:0.24;fill:#00917C;}
	.st472{opacity:0.22;fill:#00917C;}
	.st473{opacity:0.2;fill:#00917C;}
	.st474{opacity:0.4;clip-path:url(#SVGID_00000180362020773289863980000007515954914469785221_);fill:#FFFFFF;}
	.st475{opacity:0.22;clip-path:url(#SVGID_00000180362020773289863980000007515954914469785221_);fill:#D9EEEB;}
	.st476{clip-path:url(#SVGID_00000038394736249519642570000018147911196187413406_);}
	.st477{fill:#051C2C;}
	.st478{fill:#12284B;}
	.st479{opacity:0.9375;fill:#222954;}
	.st480{opacity:0.875;fill:#32295E;}
	.st481{opacity:0.8125;fill:#432966;}
	.st482{opacity:0.75;fill:#53286E;}
	.st483{opacity:0.6875;fill:#622A77;}
	.st484{opacity:0.625;fill:#73297E;}
	.st485{opacity:0.5625;fill:#822886;}
	.st486{opacity:0.5;fill:#92298D;}
	.st487{opacity:0.3;fill:#12284B;}
	.st488{opacity:0.3;fill:#222954;}
	.st489{opacity:0.3;fill:#32295E;}
	.st490{opacity:0.3;fill:#432966;}
	.st491{opacity:0.3;fill:#53286E;}
	.st492{opacity:0.3;fill:#622A77;}
	.st493{opacity:0.3;fill:#73297E;}
	.st494{opacity:0.3;fill:#822886;}
	.st495{opacity:0.3;fill:#92298D;}
	.st496{fill:#D0BFD6;}
	.st497{fill:#CBBED3;}
	.st498{fill:#B8BEC9;}
	.st499{fill:#D9BFDB;}
	.st500{fill:#DEBFDD;}
	.st501{fill:#D5BFD8;}
	.st502{fill:#BDBFCC;}
	.st503{fill:#C7BFD1;}
	.st504{fill:#C2BFCF;}
	.st505{opacity:0.4;fill:#FFFFFF;}
	.st506{clip-path:url(#SVGID_00000062175667086351429710000011867335731939901608_);}
	.st507{fill:#6EBE4C;}
	.st508{opacity:0.9375;fill:#5DB158;}
	.st509{opacity:0.875;fill:#51A366;}
	.st510{opacity:0.8125;fill:#429574;}
	.st511{opacity:0.75;fill:#368780;}
	.st512{opacity:0.6875;fill:#2A7A8F;}
	.st513{opacity:0.625;fill:#1A6D9C;}
	.st514{opacity:0.5625;fill:#175EA8;}
	.st515{opacity:0.5;fill:#2555A6;}
	.st516{opacity:0.3;fill:#6EBE4C;}
	.st517{opacity:0.3;fill:#5DB158;}
	.st518{opacity:0.3;fill:#51A366;}
	.st519{opacity:0.3;fill:#429574;}
	.st520{opacity:0.3;fill:#378780;}
	.st521{opacity:0.3;fill:#2A7A8F;}
	.st522{opacity:0.3;fill:#1A6D9C;}
	.st523{opacity:0.3;fill:#175EA8;}
	.st524{opacity:0.3;fill:#2555A6;}
	.st525{fill:#BFD7DD;}
	.st526{fill:#C3DBD9;}
	.st527{fill:#D3ECC9;}
	.st528{fill:#B9CFE5;}
	.st529{fill:#BDCCE4;}
	.st530{fill:#BAD3E1;}
	.st531{fill:#CFE8CD;}
	.st532{fill:#C6DFD5;}
	.st533{fill:#CBE3D1;}
	.st534{clip-path:url(#SVGID_00000103245245609749685190000013396931925693943485_);}
	.st535{fill:#A6CE3A;}
	.st536{opacity:0.9375;fill:#8DC640;}
	.st537{opacity:0.875;fill:#74C045;}
	.st538{opacity:0.8125;fill:#58B947;}
	.st539{opacity:0.75;fill:#3EB54B;}
	.st540{opacity:0.6875;fill:#2CA249;}
	.st541{opacity:0.625;fill:#238F45;}
	.st542{opacity:0.5625;fill:#0E7D3F;}
	.st543{opacity:0.5;fill:#016938;}
	.st544{fill:#C0E3C8;}
	.st545{fill:#C5E9C9;}
	.st546{fill:#E4F0C4;}
	.st547{fill:#B7D8C5;}
	.st548{fill:#B3D2C3;}
	.st549{fill:#BDDDC7;}
	.st550{fill:#DDEEC6;}
	.st551{fill:#CDEAC8;}
	.st552{fill:#D5ECC7;}
	.st553{clip-path:url(#SVGID_00000018238283494857283850000018223975888802564008_);}
	.st554{fill:#F5A81C;}
	.st555{opacity:0.9375;fill:#E4AC24;}
	.st556{opacity:0.875;fill:#D2AF2B;}
	.st557{opacity:0.8125;fill:#C2B231;}
	.st558{opacity:0.75;fill:#B0B536;}
	.st559{opacity:0.6875;fill:#9EB73B;}
	.st560{opacity:0.625;fill:#8FBB3F;}
	.st561{opacity:0.5625;fill:#7BBD42;}
	.st562{opacity:0.5;fill:#6EBE4C;}
	.st563{opacity:0.3;fill:#F5A81C;}
	.st564{opacity:0.3;fill:#E4AC24;}
	.st565{opacity:0.3;fill:#D2AF2B;}
	.st566{opacity:0.3;fill:#C2B231;}
	.st567{opacity:0.3;fill:#B0B536;}
	.st568{opacity:0.3;fill:#9EB73B;}
	.st569{opacity:0.3;fill:#8FBB3F;}
	.st570{opacity:0.3;fill:#7BBD42;}
	.st571{fill:#E2E9C4;}
	.st572{fill:#E7E9C3;}
	.st573{fill:#FCE5BB;}
	.st574{fill:#D8EBC6;}
	.st575{fill:#DDEBC5;}
	.st576{fill:#F7E6BD;}
	.st577{fill:#EDE8C1;}
	.st578{fill:#F2E7BF;}
	.st579{clip-path:url(#SVGID_00000183241924587401478540000013842844112453176240_);}
	.st580{fill:#06A7E0;}
	.st581{fill:#0497CD;}
	.st582{fill:#1088BD;}
	.st583{fill:#0D78A9;}
	.st584{fill:#106998;}
	.st585{fill:#115884;}
	.st586{fill:#0A4972;}
	.st587{fill:#12395F;}
	.st588{opacity:0.3;fill:#06A7E0;}
	.st589{opacity:0.3;fill:#0497CD;}
	.st590{opacity:0.3;fill:#1088BD;}
	.st591{opacity:0.3;fill:#0D78A9;}
	.st592{opacity:0.3;fill:#106998;}
	.st593{opacity:0.3;fill:#115884;}
	.st594{opacity:0.3;fill:#0A4972;}
	.st595{opacity:0.3;fill:#12395F;}
	.st596{fill:#B7CDDA;}
	.st597{fill:#B7D2E0;}
	.st598{fill:#B4E5F6;}
	.st599{fill:#B8C4CF;}
	.st600{fill:#B6C8D5;}
	.st601{fill:#B4E0F0;}
	.st602{fill:#B6D6E5;}
	.st603{fill:#B7DBEB;}
	.st604{clip-path:url(#SVGID_00000130635779497179249610000001326748031361929859_);}
	.st605{fill:#92298D;}
	.st606{opacity:0.9375;fill:#9D2681;}
	.st607{opacity:0.875;fill:#A62872;}
	.st608{opacity:0.8125;fill:#B12664;}
	.st609{opacity:0.75;fill:#B92656;}
	.st610{opacity:0.6875;fill:#C32647;}
	.st611{opacity:0.625;fill:#CE2738;}
	.st612{opacity:0.5625;fill:#D7282A;}
	.st613{opacity:0.5;fill:#E12B27;}
	.st614{opacity:0.3;fill:#9D2681;}
	.st615{opacity:0.3;fill:#A62872;}
	.st616{opacity:0.3;fill:#B12664;}
	.st617{opacity:0.3;fill:#B92656;}
	.st618{opacity:0.3;fill:#C32647;}
	.st619{opacity:0.3;fill:#CE2738;}
	.st620{opacity:0.3;fill:#D7282A;}
	.st621{opacity:0.3;fill:#E12B27;}
	.st622{fill:#EDBEC8;}
	.st623{fill:#EABECC;}
	.st624{fill:#F3BEBF;}
	.st625{fill:#F6BFBE;}
	.st626{fill:#F0BEC3;}
	.st627{fill:#E2BED9;}
	.st628{fill:#E8BED0;}
	.st629{fill:#E4BED5;}
	.st630{clip-path:url(#SVGID_00000065064464885597710290000003238257200317918121_);fill:#FFFFFF;}
	.st631{clip-path:url(#SVGID_00000065064464885597710290000003238257200317918121_);}
	.st632{opacity:0.6;fill:#E10981;}
	.st633{opacity:0.58;fill:#E10981;}
	.st634{opacity:0.56;fill:#E10981;}
	.st635{opacity:0.54;fill:#E10981;}
	.st636{opacity:0.52;fill:#E10981;}
	.st637{opacity:0.49;fill:#E10981;}
	.st638{opacity:0.47;fill:#E10981;}
	.st639{opacity:0.45;fill:#E10981;}
	.st640{opacity:0.43;fill:#E10981;}
	.st641{opacity:0.41;fill:#E10981;}
	.st642{opacity:0.39;fill:#E10981;}
	.st643{opacity:0.37;fill:#E10981;}
	.st644{opacity:0.35;fill:#E10981;}
	.st645{opacity:0.33;fill:#E10981;}
	.st646{opacity:0.31;fill:#E10981;}
	.st647{opacity:0.28;fill:#E10981;}
	.st648{opacity:0.26;fill:#E10981;}
	.st649{opacity:0.24;fill:#E10981;}
	.st650{opacity:0.22;fill:#E10981;}
	.st651{opacity:0.2;fill:#E10981;}
	.st652{opacity:0.4;clip-path:url(#SVGID_00000065064464885597710290000003238257200317918121_);fill:#FFFFFF;}
	.st653{opacity:0.22;clip-path:url(#SVGID_00000065064464885597710290000003238257200317918121_);fill:#FBDAEC;}
	.st654{clip-path:url(#SVGID_00000088107359792015904960000001172166870383247495_);}
	.st655{fill:#001228;}
	.st656{opacity:0.7;fill:#A41E23;}
	.st657{opacity:0.8;fill:#CA2127;}
	.st658{opacity:0.7;fill:#ED1C24;}
	.st659{opacity:0.7;fill:#EE2624;}
	.st660{opacity:0.7;fill:#EE3129;}
	.st661{opacity:0.65;fill:#F04923;}
	.st662{opacity:0.6;fill:#F26921;}
	.st663{opacity:0.6;fill:#F37321;}
	.st664{opacity:0.5;fill:#F99D1C;}
	.st665{opacity:0.5;fill:#A41E23;}
	.st666{opacity:0.5;fill:#CA2127;}
	.st667{opacity:0.3;fill:#ED1C24;}
	.st668{opacity:0.3;fill:#EE2624;}
	.st669{opacity:0.3;fill:#EE3129;}
	.st670{opacity:0.3;fill:#F04923;}
	.st671{opacity:0.3;fill:#F26921;}
	.st672{opacity:0.7;fill:#F37321;}
	.st673{opacity:0.71;fill:#F16323;}
	.st674{opacity:0.75;fill:#F58B2D;}
	.st675{fill:#FAC1BF;}
	.st676{fill:#E4BBBD;}
	.st677{fill:#FBD2BD;}
</style>
<g id="Background_Fill" class="st0">
	<rect class="st1" width="648" height="648"/>
</g>
<g id="Funnel_Graphic">
	<g id="CL24_x5F_Funnel_x5F_Hero_00000067233280634631755880000009825358577999948728_">
		<g>
			<defs>
				<path id="SVGID_1_" d="M602.3,248.5c-1.2-25.1-2.9-50.3-5.7-75.3c-2.7-25-6.2-50-11.4-74.7c-2.7-12.3-5.8-24.5-10-36.4
					c-2.2-5.9-4.6-11.8-7.8-17.2c-1.6-2.7-3.4-5.3-5.7-7.5c-1.1-1.1-2.4-2.1-3.8-2.8c-1-0.5-2.1-0.9-3.2-1.1c0,0,0,0,0,0
					c-0.4-0.1-0.8-0.1-1.3-0.1c-8.7,0-16.8,13-23.9,35.9c-0.2-0.1-0.8-0.5-1.5-0.8c-0.5-0.2-1.2-0.5-1.8-0.7
					c-1.4-0.4-2.7-0.4-2.9-0.4c-10.5,0-20.2,16.9-28.2,45.7c-0.1,0-0.5-0.1-0.6-0.1c-0.4,0-0.8-0.1-1.2-0.1c-8,0-15.6,8.1-22.2,22.4
					c-0.5-0.3-1-0.6-1.5-0.8c-1.5-0.7-3.2-1.2-4.9-1.3c-0.4,0-0.9-0.1-1.3-0.1c-12.8,0-24.5,18.7-33.3,49.4c-2-2.4-4.2-4.6-6.7-6.4
					c-2.9-2-6.3-3.3-9.7-3.2c-9,0-17.4,8.5-24.5,23.3c-0.1,0-0.3,0-0.4,0c-7.2,0-13.9,5-19.9,13.8c-1.6-0.5-3.3-0.7-5-0.7
					c-3.9,0-7.6,1.4-11.2,4c-1.8-1.7-3.7-3.3-5.8-4.5c-2.4-1.3-5.1-2.1-7.9-2c-2.9,0-5.8,0.9-8.5,2.6c-0.6-0.9-1.2-1.7-1.9-2.6
					c-1.8-2.3-3.8-4.4-6.3-6c-2.4-1.6-5.3-2.7-8.1-2.6c-9.2,0-17.6,10.4-24.2,27.8c-0.2,0-0.5,0-0.7,0c-3.8,0-7.5,1.6-11,4.5
					c-0.5-0.6-1-1.1-1.4-1.6c-1.7-1.7-3.5-3.3-5.6-4.4c-2.1-1.1-4.5-1.8-6.8-1.7c-0.9,0-1.8,0.1-2.6,0.3c-0.5-1.7-1-3.4-1.6-5.1
					c-1.9-5.6-4.2-11.2-7.2-16.4c-1.5-2.6-3.3-5-5.4-7.1c-1.1-1-2.3-1.9-3.6-2.6c-1.1-0.5-2.2-0.9-3.4-1c-0.3,0-0.6,0-0.9,0
					c-9.6,0-18.2,16.4-24.2,42.5c-0.2,0-0.4,0-0.7,0c-2.6,0-5.2,0.9-7.6,2.7c-1.6-3.7-3.4-7.4-5.7-10.8c-1.4-2-3-3.9-4.9-5.4
					c-1.9-1.5-4.2-2.6-6.7-2.5h0c0,0,0,0,0,0c-7.6,0-14.6,10.5-19.8,27.8c-1.6-0.8-3.3-1.2-5.1-1.2c0,0,0,0,0,0c0,0,0,0,0,0
					c-7.1,0-13.6,7.8-18.5,20.6c-2-1.1-4.2-1.7-6.4-1.6c-3.8,0-7.4,2-10.7,5.5c-0.3-0.6-0.5-1.1-0.8-1.7c-1.5-2.9-3.3-5.7-5.6-8
					c-1.2-1.2-2.4-2.2-3.9-3c-1.4-0.8-3.1-1.2-4.7-1.1c-3.1,0-6.1,1.8-8.9,5c-0.4-1.3-0.8-2.6-1.3-3.9c-1.3-3.6-2.9-7.1-4.9-10.4
					c-1.1-1.6-2.2-3.2-3.7-4.4c-1.4-1.3-3.3-2.2-5.2-2.2c0,0,0,0,0,0c-6.8,0-12.9,11.9-16.9,30.7c-0.2-0.2-0.4-0.4-0.6-0.7
					c-1-1-2.1-1.9-3.3-2.5c-1.2-0.6-2.6-1-4-0.9c-11.2,0-20.2,26.2-20.2,58.5s9,58.5,20.2,58.5c1.4,0.1,2.8-0.3,4-0.9
					c1.2-0.6,2.3-1.5,3.3-2.5c0.2-0.2,0.4-0.4,0.6-0.7c4,18.8,10.1,30.7,16.9,30.7c1.9,0,3.8-0.9,5.2-2.2c1.5-1.3,2.6-2.8,3.7-4.4
					c2-3.3,3.6-6.8,5-10.4c0.5-1.3,0.9-2.6,1.3-3.9c2.7,3.2,5.7,5,8.9,5c1.6,0.1,3.3-0.4,4.7-1.1c1.4-0.8,2.7-1.8,3.9-3
					c2.3-2.4,4.1-5.1,5.6-8c0.3-0.6,0.6-1.1,0.8-1.7c3.3,3.5,6.9,5.5,10.7,5.5c2.2,0.1,4.4-0.5,6.4-1.6
					c4.9,12.8,11.4,20.6,18.5,20.6c0,0,0,0,0,0c0,0,0,0,0,0c1.8,0.1,3.5-0.4,5.1-1.2c5.2,17.3,12.2,27.8,19.8,27.8c0,0,0,0,0,0h0
					c2.4,0,4.8-1,6.7-2.5c1.9-1.5,3.5-3.4,4.9-5.4c2.3-3.4,4.1-7,5.7-10.8c2.4,1.8,5,2.7,7.6,2.7c0.2,0,0.4,0,0.7,0
					c6,26.2,14.7,42.5,24.2,42.5c0.3,0,0.6,0,0.9,0c1.2-0.1,2.4-0.4,3.4-1c1.3-0.7,2.5-1.6,3.6-2.6c2.2-2.1,3.9-4.5,5.4-7.1
					c3-5.2,5.3-10.7,7.2-16.4c0.6-1.7,1.1-3.4,1.6-5.1c0.9,0.2,1.7,0.3,2.6,0.3c2.4,0.1,4.7-0.6,6.8-1.7c2.1-1.1,3.9-2.7,5.6-4.4
					c0.5-0.5,1-1.1,1.4-1.6c3.5,2.9,7.2,4.5,11,4.5c0.2,0,0.5,0,0.7,0c6.6,17.4,15,27.8,24.2,27.8c2.9,0.1,5.7-1,8.1-2.6
					c2.4-1.6,4.5-3.7,6.3-6c0.7-0.8,1.3-1.7,1.9-2.6c2.8,1.7,5.6,2.6,8.5,2.6c2.7,0.1,5.5-0.7,7.9-2c2.2-1.2,4.1-2.7,5.8-4.5
					c3.6,2.6,7.3,4,11.2,4c1.7,0,3.3-0.2,5-0.7c6,8.8,12.7,13.8,19.9,13.8c0.1,0,0.3,0,0.4,0c1.8,3.7,3.7,7.1,5.6,10
					c2.1,3.2,4.3,5.8,6.6,7.9c3.9,3.5,8,5.4,12.2,5.4c3.5,0.1,6.9-1.2,9.7-3.2c2.6-1.7,4.8-4,6.7-6.4c8.8,30.7,20.5,49.4,33.3,49.4
					c0.4,0,0.9,0,1.3-0.1c1.7-0.2,3.3-0.6,4.9-1.3c0.5-0.2,1-0.5,1.5-0.8c3.1,6.6,6.4,11.9,9.8,15.7c4,4.4,8.1,6.7,12.4,6.7
					c0.4,0,0.8,0,1.2-0.1c0.1,0,0.1,0,0.2,0c0.1,0,0.3,0,0.4,0c8,28.8,17.7,45.7,28.2,45.7c0,0,0,0,0,0c0,0,0,0,0,0
					c0.4,0,0.8,0,1.2-0.1c0.1,0,0.2,0,0.3,0c0.3-0.1,0.7-0.1,1-0.2c0,0,0.1,0,0.1,0c0.5-0.1,1-0.3,1.5-0.5c0.7-0.3,1.4-0.6,2-1
					c7.1,22.9,15.2,35.9,23.9,35.9c0.4,0,0.9,0,1.3-0.1c0,0,0,0,0,0c1.1-0.2,2.2-0.5,3.2-1.1c1.4-0.7,2.7-1.7,3.8-2.8
					c2.3-2.2,4.1-4.8,5.7-7.5c3.2-5.4,5.6-11.3,7.8-17.2c4.2-11.9,7.3-24.1,10-36.4c5.2-24.6,8.7-49.6,11.4-74.7
					c2.7-25,4.5-50.2,5.7-75.3c1.2-25.1,1.8-50.3,1.8-75.5C604.1,298.8,603.5,273.6,602.3,248.5z"/>
			</defs>
			<clipPath id="SVGID_00000080911735394124904090000001889706089590368130_">
				<use xlink:href="#SVGID_1_"  style="overflow:visible;"/>
			</clipPath>
			<path style="clip-path:url(#SVGID_00000080911735394124904090000001889706089590368130_);fill:#051C2C;" d="M602.3,248.5
				c-1.2-25.1-2.9-50.3-5.7-75.3c-2.7-25-6.2-50-11.4-74.7c-2.7-12.3-5.8-24.5-10-36.4c-2.2-5.9-4.6-11.8-7.8-17.2
				c-1.6-2.7-3.4-5.3-5.7-7.5c-1.1-1.1-2.4-2.1-3.8-2.8c-1-0.5-2.1-0.9-3.2-1.1c0,0,0,0,0,0c-0.4-0.1-0.8-0.1-1.3-0.1
				c-8.7,0-16.8,13-23.9,35.9c-0.2-0.1-0.8-0.5-1.5-0.8c-0.5-0.2-1.2-0.5-1.8-0.7c-1.4-0.4-2.7-0.4-2.9-0.4
				c-10.5,0-20.2,16.9-28.2,45.7c-0.1,0-0.5-0.1-0.6-0.1c-0.4,0-0.8-0.1-1.2-0.1c-8,0-15.6,8.1-22.2,22.4c-0.5-0.3-1-0.6-1.5-0.8
				c-1.5-0.7-3.2-1.2-4.9-1.3c-0.4,0-0.9-0.1-1.3-0.1c-12.8,0-24.5,18.7-33.3,49.4c-2-2.4-4.2-4.6-6.7-6.4c-2.9-2-6.3-3.3-9.7-3.2
				c-9,0-17.4,8.5-24.5,23.3c-0.1,0-0.3,0-0.4,0c-7.2,0-13.9,5-19.9,13.8c-1.6-0.5-3.3-0.7-5-0.7c-3.9,0-7.6,1.4-11.2,4
				c-1.8-1.7-3.7-3.3-5.8-4.5c-2.4-1.3-5.1-2.1-7.9-2c-2.9,0-5.8,0.9-8.5,2.6c-0.6-0.9-1.2-1.7-1.9-2.6c-1.8-2.3-3.8-4.4-6.3-6
				c-2.4-1.6-5.3-2.7-8.1-2.6c-9.2,0-17.6,10.4-24.2,27.8c-0.2,0-0.5,0-0.7,0c-3.8,0-7.5,1.6-11,4.5c-0.5-0.6-1-1.1-1.4-1.6
				c-1.7-1.7-3.5-3.3-5.6-4.4c-2.1-1.1-4.5-1.8-6.8-1.7c-0.9,0-1.8,0.1-2.6,0.3c-0.5-1.7-1-3.4-1.6-5.1c-1.9-5.6-4.2-11.2-7.2-16.4
				c-1.5-2.6-3.3-5-5.4-7.1c-1.1-1-2.3-1.9-3.6-2.6c-1.1-0.5-2.2-0.9-3.4-1c-0.3,0-0.6,0-0.9,0c-9.6,0-18.2,16.4-24.2,42.5
				c-0.2,0-0.4,0-0.7,0c-2.6,0-5.2,0.9-7.6,2.7c-1.6-3.7-3.4-7.4-5.7-10.8c-1.4-2-3-3.9-4.9-5.4c-1.9-1.5-4.2-2.6-6.7-2.5h0
				c0,0,0,0,0,0c-7.6,0-14.6,10.5-19.8,27.8c-1.6-0.8-3.3-1.2-5.1-1.2c0,0,0,0,0,0c0,0,0,0,0,0c-7.1,0-13.6,7.8-18.5,20.6
				c-2-1.1-4.2-1.7-6.4-1.6c-3.8,0-7.4,2-10.7,5.5c-0.3-0.6-0.5-1.1-0.8-1.7c-1.5-2.9-3.3-5.7-5.6-8c-1.2-1.2-2.4-2.2-3.9-3
				c-1.4-0.8-3.1-1.2-4.7-1.1c-3.1,0-6.1,1.8-8.9,5c-0.4-1.3-0.8-2.6-1.3-3.9c-1.3-3.6-2.9-7.1-4.9-10.4c-1.1-1.6-2.2-3.2-3.7-4.4
				c-1.4-1.3-3.3-2.2-5.2-2.2c0,0,0,0,0,0c-6.8,0-12.9,11.9-16.9,30.7c-0.2-0.2-0.4-0.4-0.6-0.7c-1-1-2.1-1.9-3.3-2.5
				c-1.2-0.6-2.6-1-4-0.9c-11.2,0-20.2,26.2-20.2,58.5s9,58.5,20.2,58.5c1.4,0.1,2.8-0.3,4-0.9c1.2-0.6,2.3-1.5,3.3-2.5
				c0.2-0.2,0.4-0.4,0.6-0.7c4,18.8,10.1,30.7,16.9,30.7c1.9,0,3.8-0.9,5.2-2.2c1.5-1.3,2.6-2.8,3.7-4.4c2-3.3,3.6-6.8,5-10.4
				c0.5-1.3,0.9-2.6,1.3-3.9c2.7,3.2,5.7,5,8.9,5c1.6,0.1,3.3-0.4,4.7-1.1c1.4-0.8,2.7-1.8,3.9-3c2.3-2.4,4.1-5.1,5.6-8
				c0.3-0.6,0.6-1.1,0.8-1.7c3.3,3.5,6.9,5.5,10.7,5.5c2.2,0.1,4.4-0.5,6.4-1.6c4.9,12.8,11.4,20.6,18.5,20.6c0,0,0,0,0,0
				c0,0,0,0,0,0c1.8,0.1,3.5-0.4,5.1-1.2c5.2,17.3,12.2,27.8,19.8,27.8c0,0,0,0,0,0h0c2.4,0,4.8-1,6.7-2.5c1.9-1.5,3.5-3.4,4.9-5.4
				c2.3-3.4,4.1-7,5.7-10.8c2.4,1.8,5,2.7,7.6,2.7c0.2,0,0.4,0,0.7,0c6,26.2,14.7,42.5,24.2,42.5c0.3,0,0.6,0,0.9,0
				c1.2-0.1,2.4-0.4,3.4-1c1.3-0.7,2.5-1.6,3.6-2.6c2.2-2.1,3.9-4.5,5.4-7.1c3-5.2,5.3-10.7,7.2-16.4c0.6-1.7,1.1-3.4,1.6-5.1
				c0.9,0.2,1.7,0.3,2.6,0.3c2.4,0.1,4.7-0.6,6.8-1.7c2.1-1.1,3.9-2.7,5.6-4.4c0.5-0.5,1-1.1,1.4-1.6c3.5,2.9,7.2,4.5,11,4.5
				c0.2,0,0.5,0,0.7,0c6.6,17.4,15,27.8,24.2,27.8c2.9,0.1,5.7-1,8.1-2.6c2.4-1.6,4.5-3.7,6.3-6c0.7-0.8,1.3-1.7,1.9-2.6
				c2.8,1.7,5.6,2.6,8.5,2.6c2.7,0.1,5.5-0.7,7.9-2c2.2-1.2,4.1-2.7,5.8-4.5c3.6,2.6,7.3,4,11.2,4c1.7,0,3.3-0.2,5-0.7
				c6,8.8,12.7,13.8,19.9,13.8c0.1,0,0.3,0,0.4,0c1.8,3.7,3.7,7.1,5.6,10c2.1,3.2,4.3,5.8,6.6,7.9c3.9,3.5,8,5.4,12.2,5.4
				c3.5,0.1,6.9-1.2,9.7-3.2c2.6-1.7,4.8-4,6.7-6.4c8.8,30.7,20.5,49.4,33.3,49.4c0.4,0,0.9,0,1.3-0.1c1.7-0.2,3.3-0.6,4.9-1.3
				c0.5-0.2,1-0.5,1.5-0.8c3.1,6.6,6.4,11.9,9.8,15.7c4,4.4,8.1,6.7,12.4,6.7c0.4,0,0.8,0,1.2-0.1c0.1,0,0.1,0,0.2,0
				c0.1,0,0.3,0,0.4,0c8,28.8,17.7,45.7,28.2,45.7c0,0,0,0,0,0c0,0,0,0,0,0c0.4,0,0.8,0,1.2-0.1c0.1,0,0.2,0,0.3,0
				c0.3-0.1,0.7-0.1,1-0.2c0,0,0.1,0,0.1,0c0.5-0.1,1-0.3,1.5-0.5c0.7-0.3,1.4-0.6,2-1c7.1,22.9,15.2,35.9,23.9,35.9
				c0.4,0,0.9,0,1.3-0.1c0,0,0,0,0,0c1.1-0.2,2.2-0.5,3.2-1.1c1.4-0.7,2.7-1.7,3.8-2.8c2.3-2.2,4.1-4.8,5.7-7.5
				c3.2-5.4,5.6-11.3,7.8-17.2c4.2-11.9,7.3-24.1,10-36.4c5.2-24.6,8.7-49.6,11.4-74.7c2.7-25,4.5-50.2,5.7-75.3
				c1.2-25.1,1.8-50.3,1.8-75.5C604.1,298.8,603.5,273.6,602.3,248.5z"/>
			<g style="clip-path:url(#SVGID_00000080911735394124904090000001889706089590368130_);">
				<ellipse class="st5" cx="65.3" cy="324" rx="20.2" ry="58.5"/>
				<ellipse class="st6" cx="90.2" cy="324" rx="22" ry="85.1"/>
				<ellipse class="st7" cx="114.2" cy="324" rx="23.9" ry="69.2"/>
				<ellipse class="st8" cx="139.9" cy="324" rx="25.7" ry="60.8"/>
				<ellipse class="st9" cx="164.8" cy="324" rx="27.5" ry="79.8"/>
				<ellipse class="st10" cx="189.7" cy="324" rx="29.4" ry="106.4"/>
				<ellipse class="st11" cx="214.6" cy="324" rx="31.2" ry="90.4"/>
				<ellipse class="st12" cx="239.4" cy="324" rx="33" ry="133"/>
				<ellipse class="st13" cx="264.3" cy="324" rx="34.9" ry="101.1"/>
				<ellipse class="st14" cx="289.2" cy="324" rx="36.7" ry="97.8"/>
				<ellipse class="st15" cx="314.1" cy="324" rx="38.5" ry="125.5"/>
				<ellipse class="st16" cx="338.9" cy="324" rx="40.4" ry="117"/>
				<ellipse class="st17" cx="363.8" cy="324" rx="42.2" ry="114.6"/>
				<ellipse class="st18" cx="388.7" cy="324" rx="44" ry="127.7"/>
				<ellipse class="st19" cx="413.6" cy="324" rx="45.9" ry="150.9"/>
				<ellipse class="st20" cx="438.4" cy="324" rx="47.7" ry="138.3"/>
				<ellipse class="st21" cx="463.3" cy="324" rx="49.5" ry="190.7"/>
				<ellipse class="st22" cx="493.3" cy="324" rx="49.5" ry="210.9"/>
				<ellipse class="st23" cx="523.3" cy="324" rx="49.5" ry="256.5"/>
				<ellipse class="st24" cx="553.3" cy="324" rx="49.5" ry="290.6"/>
			</g>
			<g style="opacity:0.5;clip-path:url(#SVGID_00000080911735394124904090000001889706089590368130_);">
				<ellipse class="st5" cx="65.3" cy="324" rx="20.2" ry="58.5"/>
				<ellipse class="st6" cx="90.2" cy="324" rx="22" ry="85.1"/>
				<ellipse class="st7" cx="114.2" cy="324" rx="23.9" ry="69.2"/>
				<ellipse class="st8" cx="139.9" cy="324" rx="25.7" ry="60.8"/>
				<ellipse class="st9" cx="164.8" cy="324" rx="27.5" ry="79.8"/>
				<ellipse class="st10" cx="189.7" cy="324" rx="29.4" ry="106.4"/>
				<ellipse class="st11" cx="214.6" cy="324" rx="31.2" ry="90.4"/>
				<ellipse class="st12" cx="239.4" cy="324" rx="33" ry="133"/>
				<ellipse class="st13" cx="264.3" cy="324" rx="34.9" ry="101.1"/>
				<ellipse class="st14" cx="289.2" cy="324" rx="36.7" ry="97.8"/>
				<ellipse class="st15" cx="314.1" cy="324" rx="38.5" ry="125.5"/>
				<ellipse class="st16" cx="338.9" cy="324" rx="40.4" ry="117"/>
				<ellipse class="st17" cx="363.8" cy="324" rx="42.2" ry="114.6"/>
				<ellipse class="st18" cx="388.7" cy="324" rx="44" ry="127.7"/>
				<ellipse class="st19" cx="413.6" cy="324" rx="45.9" ry="150.9"/>
				<ellipse class="st20" cx="438.4" cy="324" rx="47.7" ry="138.3"/>
				<ellipse class="st21" cx="463.3" cy="324" rx="49.5" ry="190.7"/>
				<ellipse class="st22" cx="493.3" cy="324" rx="49.5" ry="210.9"/>
				<ellipse class="st23" cx="523.3" cy="324" rx="49.5" ry="256.5"/>
				<ellipse class="st24" cx="553.3" cy="324" rx="49.5" ry="290.6"/>
			</g>
			<g style="opacity:0.2;clip-path:url(#SVGID_00000080911735394124904090000001889706089590368130_);">
				<ellipse class="st5" cx="65.3" cy="324" rx="20.2" ry="58.5"/>
				<ellipse class="st6" cx="90.2" cy="324" rx="22" ry="85.1"/>
				<ellipse class="st7" cx="114.2" cy="324" rx="23.9" ry="69.2"/>
				<ellipse class="st8" cx="139.9" cy="324" rx="25.7" ry="60.8"/>
				<ellipse class="st9" cx="164.8" cy="324" rx="27.5" ry="79.8"/>
				<ellipse class="st10" cx="189.7" cy="324" rx="29.4" ry="106.4"/>
				<ellipse class="st11" cx="214.6" cy="324" rx="31.2" ry="90.4"/>
				<ellipse class="st12" cx="239.4" cy="324" rx="33" ry="133"/>
				<ellipse class="st13" cx="264.3" cy="324" rx="34.9" ry="101.1"/>
				<ellipse class="st14" cx="289.2" cy="324" rx="36.7" ry="97.8"/>
				<ellipse class="st15" cx="314.1" cy="324" rx="38.5" ry="125.5"/>
				<ellipse class="st16" cx="338.9" cy="324" rx="40.4" ry="117"/>
				<ellipse class="st17" cx="363.8" cy="324" rx="42.2" ry="114.6"/>
				<ellipse class="st18" cx="388.7" cy="324" rx="44" ry="127.7"/>
				<ellipse class="st19" cx="413.6" cy="324" rx="45.9" ry="150.9"/>
				<ellipse class="st20" cx="438.4" cy="324" rx="47.7" ry="138.3"/>
				<ellipse class="st21" cx="463.3" cy="324" rx="49.5" ry="190.7"/>
				<ellipse class="st22" cx="493.3" cy="324" rx="49.5" ry="210.9"/>
				<ellipse class="st23" cx="523.3" cy="324" rx="49.5" ry="256.5"/>
				<ellipse class="st24" cx="553.3" cy="324" rx="49.5" ry="290.6"/>
			</g>
			
				<path id="_x32_0:20:100:0_00000134938708367660109570000015704902419691943818_" style="clip-path:url(#SVGID_00000080911735394124904090000001889706089590368130_);fill:#EAE54E;" d="
				M330.1,209.8c2.8-1.8,5.8-2.8,8.9-2.8c4.7,0,9.3,2.4,13.5,6.7c-4.6,3.5-8.9,9.1-12.8,16.4C336.8,221.9,333.6,215,330.1,209.8z
				 M339.6,417.9c-2.8,8.2-6.1,15.1-9.5,20.3c2.8,1.8,5.8,2.8,8.9,2.8c4.7,0,9.3-2.4,13.5-6.7C347.8,430.8,343.5,425.2,339.6,417.9z
				"/>
			<path style="opacity:0.4;clip-path:url(#SVGID_00000080911735394124904090000001889706089590368130_);fill:#FFFFFF;" d="
				M65.3,265.5c1.4-0.1,2.8,0.3,4,0.9c1.2,0.6,2.3,1.5,3.3,2.5c2,2,3.5,4.3,4.8,6.8c2.6,4.9,4.3,10.2,5.6,15.5
				c2.6,10.7,3.7,21.8,3.7,32.8c0,11-1.1,22-3.7,32.8c-1.3,5.3-3.1,10.6-5.6,15.5c-1.3,2.4-2.8,4.8-4.8,6.8c-1,1-2.1,1.9-3.3,2.5
				c-1.2,0.6-2.6,1-4,0.9c1.4-0.1,2.7-0.5,3.8-1.3c1.1-0.7,2.1-1.6,3-2.7c1.7-2.1,3.1-4.4,4.2-6.9c2.2-4.9,3.7-10.2,4.8-15.4
				c1.1-5.3,1.9-10.7,2.4-16.1c0.5-5.4,0.7-10.8,0.7-16.2c0-5.4-0.2-10.8-0.7-16.2c-0.5-5.4-1.3-10.8-2.4-16.1
				c-1.2-5.3-2.6-10.5-4.8-15.4c-1.1-2.5-2.5-4.8-4.2-6.9c-0.9-1-1.9-1.9-3-2.7C68,266,66.7,265.5,65.3,265.5z M95.2,241.3
				c1.4,1.3,2.4,2.9,3.4,4.5c1.8,3.3,3.2,6.8,4.4,10.5c2.3,7.2,3.8,14.7,4.9,22.2c1.1,7.5,1.9,15.1,2.4,22.7
				c0.5,7.6,0.7,15.2,0.7,22.8c0,7.6-0.2,15.2-0.7,22.8c-0.5,7.6-1.3,15.2-2.4,22.7c-1.1,7.5-2.6,15-4.9,22.2
				c-1.1,3.6-2.5,7.2-4.4,10.5c-1,1.6-2,3.2-3.4,4.5c-1.3,1.3-3,2.4-5,2.5c1.9,0,3.8-0.9,5.2-2.2c1.5-1.3,2.6-2.8,3.7-4.4
				c2-3.3,3.6-6.8,5-10.4c2.6-7.2,4.3-14.8,5.7-22.3c2.7-15.1,3.7-30.5,3.7-45.8c-0.1-15.3-1-30.7-3.7-45.8
				c-1.4-7.5-3.1-15.1-5.7-22.3c-1.3-3.6-2.9-7.1-4.9-10.4c-1.1-1.6-2.2-3.2-3.7-4.4c-1.4-1.3-3.3-2.2-5.2-2.2
				C92.1,239,93.8,240,95.2,241.3z M118.8,256.3c1.4,0.8,2.5,1.9,3.6,3.1c2.1,2.4,3.7,5.2,5,8.1c2.7,5.8,4.5,12,5.8,18.2
				c1.3,6.3,2.3,12.6,2.8,19c0.6,6.4,0.9,12.8,0.9,19.2c0,6.4-0.3,12.8-0.9,19.2c-0.6,6.4-1.5,12.7-2.8,19
				c-1.4,6.3-3.1,12.5-5.8,18.2c-1.3,2.9-2.9,5.7-5,8.1c-1.1,1.2-2.2,2.3-3.6,3.1c-1.3,0.8-2.9,1.4-4.5,1.5c1.6,0.1,3.3-0.4,4.7-1.1
				c1.4-0.8,2.7-1.8,3.9-3c2.3-2.4,4.1-5.1,5.6-8c3-5.8,5-12.1,6.6-18.4c3.1-12.6,4.3-25.7,4.3-38.7c-0.1-13-1.2-26-4.3-38.7
				c-1.6-6.3-3.6-12.5-6.6-18.4c-1.5-2.9-3.3-5.7-5.6-8c-1.2-1.2-2.4-2.2-3.9-3c-1.4-0.8-3.1-1.2-4.7-1.1
				C115.9,254.9,117.4,255.4,118.8,256.3z M147.8,266.5c2.2,1.9,4,4.2,5.5,6.7c3,5,5.1,10.5,6.7,16.1c1.6,5.6,2.7,11.4,3.3,17.2
				c0.7,5.8,1,11.7,1,17.5c0,5.9-0.3,11.7-1,17.5c-0.3,2.9-0.8,5.8-1.3,8.7c-0.6,2.9-1.2,5.7-2,8.5c-1.6,5.6-3.6,11.1-6.7,16.1
				c-1.5,2.5-3.3,4.8-5.5,6.7c-2.2,1.9-4.9,3.2-7.9,3.4c3,0.1,5.9-1,8.3-2.8c2.4-1.8,4.4-4.1,6.1-6.6c3.4-5,5.7-10.5,7.5-16.2
				c3.6-11.4,4.9-23.4,5-35.3c-0.1-11.9-1.4-23.9-5-35.3c-1.8-5.7-4.1-11.3-7.5-16.2c-1.7-2.4-3.7-4.8-6.1-6.6
				c-2.4-1.8-5.4-2.9-8.3-2.8C142.9,263.3,145.7,264.6,147.8,266.5z M170,245.9c1.6,1,2.9,2.2,4.2,3.6c2.4,2.8,4.3,6,5.8,9.4
				c3.1,6.7,5.2,13.8,6.8,21.1c1.5,7.2,2.6,14.6,3.3,21.9c0.7,7.4,1,14.8,1,22.2c0,7.4-0.3,14.8-1,22.2c-0.7,7.4-1.8,14.7-3.3,21.9
				c-1.6,7.2-3.6,14.4-6.8,21.1c-1.5,3.3-3.4,6.6-5.8,9.4c-1.2,1.4-2.6,2.6-4.2,3.6c-1.6,1-3.4,1.6-5.2,1.7c1.9,0.1,3.7-0.4,5.4-1.3
				c1.7-0.9,3.1-2.1,4.5-3.5c2.6-2.7,4.7-5.9,6.4-9.3c3.4-6.7,5.7-13.9,7.5-21.2c3.6-14.6,4.9-29.6,5-44.6c-0.1-15-1.4-30-5-44.6
				c-1.8-7.3-4.1-14.5-7.5-21.2c-1.7-3.3-3.8-6.5-6.4-9.3c-1.3-1.3-2.8-2.6-4.5-3.5c-1.7-0.9-3.5-1.4-5.4-1.3
				C166.7,244.3,168.5,244.9,170,245.9z M196.1,220.4c1.8,1.6,3.3,3.4,4.6,5.5c2.5,4,4.4,8.5,6,13c3.2,9,5.2,18.4,6.8,27.9
				c1.5,9.5,2.7,19,3.3,28.5c0.7,9.6,1,19.1,1,28.7c0,9.6-0.3,19.2-1,28.7c-0.7,9.6-1.8,19.1-3.3,28.5c-1.6,9.4-3.6,18.8-6.8,27.9
				c-1.6,4.5-3.5,8.9-6,13c-1.3,2-2.8,3.9-4.6,5.5c-1.8,1.6-4,2.7-6.4,2.8c2.4,0,4.8-1,6.7-2.5c1.9-1.5,3.5-3.4,4.9-5.4
				c2.7-4,4.8-8.4,6.6-12.9c3.5-9,5.7-18.5,7.5-27.9c3.6-19,4.9-38.3,5-57.6c-0.1-19.3-1.4-38.6-5-57.6c-1.8-9.5-4.1-18.9-7.5-27.9
				c-1.8-4.5-3.8-8.9-6.6-12.9c-1.4-2-3-3.9-4.9-5.4c-1.9-1.5-4.2-2.6-6.7-2.5C192.1,217.7,194.3,218.9,196.1,220.4z M220.5,235.4
				c1.8,1.1,3.3,2.5,4.7,4.1c2.7,3.2,4.9,6.8,6.6,10.6c3.6,7.6,5.9,15.7,7.7,23.9c1.7,8.2,3,16.5,3.8,24.9
				c0.8,8.4,1.2,16.8,1.2,25.2c0,8.4-0.4,16.8-1.2,25.2c-0.8,8.4-2,16.7-3.8,24.9c-1.8,8.2-4.2,16.3-7.7,23.9
				c-1.8,3.8-3.9,7.4-6.6,10.6c-1.4,1.5-2.9,3-4.7,4.1c-1.8,1.1-3.8,1.8-5.9,1.9c2.1,0.1,4.2-0.5,6.1-1.5c1.9-1,3.5-2.4,5-3.9
				c2.9-3.1,5.3-6.7,7.2-10.5c3.9-7.6,6.4-15.8,8.5-24c4-16.5,5.5-33.5,5.6-50.5c-0.1-16.9-1.6-34-5.6-50.5
				c-2.1-8.2-4.6-16.4-8.5-24c-2-3.8-4.3-7.4-7.2-10.5c-1.5-1.5-3.2-2.9-5-3.9c-1.9-1-4-1.6-6.1-1.5
				C216.7,233.6,218.7,234.3,220.5,235.4z M243.7,192.2c1.3,0.7,2.4,1.7,3.5,2.7c2.1,2.1,3.7,4.6,5.1,7.2c2.8,5.2,4.9,10.8,6.6,16.4
				c3.5,11.3,5.8,23,7.5,34.7c3.4,23.4,4.9,47.2,4.8,70.9c0.1,23.7-1.4,47.4-4.8,70.9c-1.7,11.7-4,23.4-7.5,34.7
				c-1.7,5.6-3.8,11.2-6.6,16.4c-1.4,2.6-3.1,5.1-5.1,7.2c-1,1-2.2,2-3.5,2.7c-1.3,0.7-2.7,1.1-4.2,1.2c1.5,0,3-0.4,4.3-1
				c1.3-0.7,2.5-1.6,3.6-2.6c2.2-2.1,3.9-4.5,5.4-7.1c3-5.2,5.3-10.7,7.2-16.4c3.8-11.3,6.3-23,8.3-34.7c2-11.7,3.2-23.6,4.1-35.5
				c0.9-11.9,1.3-23.8,1.3-35.7c0-11.9-0.5-23.8-1.3-35.7c-0.9-11.9-2.1-23.7-4.1-35.5c-2-11.7-4.5-23.4-8.3-34.7
				c-1.9-5.6-4.2-11.2-7.2-16.4c-1.5-2.6-3.3-5-5.4-7.1c-1.1-1-2.3-1.9-3.6-2.6c-1.3-0.7-2.8-1-4.3-1
				C240.9,191.1,242.4,191.5,243.7,192.2z M271,225c2,1.2,3.7,2.8,5.3,4.5c3.1,3.5,5.5,7.6,7.4,11.8c4,8.5,6.6,17.5,8.7,26.7
				c2,9.2,3.4,18.5,4.2,27.8c0.9,9.3,1.3,18.7,1.3,28.1c0,9.4-0.4,18.8-1.3,28.1c-0.9,9.4-2.3,18.6-4.2,27.8
				c-2,9.2-4.7,18.2-8.7,26.7c-2,4.2-4.4,8.3-7.4,11.8c-1.6,1.7-3.3,3.3-5.3,4.5c-2,1.2-4.3,2-6.6,2.1c2.4,0.1,4.7-0.6,6.8-1.7
				c2.1-1.1,3.9-2.7,5.6-4.4c3.3-3.5,5.9-7.5,8-11.7c4.3-8.5,7.2-17.6,9.4-26.8c4.4-18.5,6.1-37.5,6.2-56.4
				c-0.1-18.9-1.8-37.9-6.2-56.4c-2.3-9.2-5.2-18.3-9.4-26.8c-2.2-4.2-4.8-8.3-8-11.7c-1.7-1.7-3.5-3.3-5.6-4.4
				c-2.1-1.1-4.5-1.8-6.8-1.7C266.7,223,269,223.8,271,225z M295.8,228c2,1.1,3.9,2.5,5.5,4.1c3.2,3.2,5.8,7.1,7.9,11.2
				c4.3,8.1,7.2,16.9,9.4,25.9c2.1,9,3.7,18.1,4.6,27.2c1,9.2,1.4,18.4,1.4,27.6c0,9.2-0.4,18.4-1.4,27.6
				c-0.9,9.2-2.5,18.3-4.6,27.2c-2.2,8.9-5.1,17.7-9.4,25.9c-2.2,4-4.7,7.9-7.9,11.2c-1.6,1.6-3.5,3-5.5,4.1c-2,1.1-4.3,1.7-6.6,1.8
				c2.3,0.1,4.6-0.5,6.8-1.5c2.1-1,4.1-2.3,5.8-3.9c3.4-3.2,6.2-7,8.6-11.1c4.6-8.2,7.7-17,10.2-26c4.8-18,6.6-36.7,6.7-55.3
				c-0.1-18.6-1.9-37.3-6.7-55.3c-2.4-9-5.6-17.8-10.2-26c-2.4-4-5.1-7.9-8.6-11.1c-1.7-1.6-3.7-2.9-5.8-3.9c-2.1-1-4.4-1.5-6.8-1.5
				C291.5,226.3,293.8,227,295.8,228z M322,201.4c2.3,1.6,4.3,3.8,6,6.1c0.9,1.1,1.6,2.3,2.4,3.5c0.7,1.2,1.5,2.4,2.1,3.7
				c0.7,1.3,1.3,2.5,1.9,3.9c0.6,1.3,1.2,2.6,1.7,3.9c4.3,10.6,7.1,21.8,9.3,33c4.3,22.5,6,45.5,6,68.5c0,22.9-1.7,45.9-6,68.5
				c-2.2,11.2-5,22.4-9.3,33c-0.5,1.3-1.1,2.6-1.7,3.9c-0.6,1.3-1.2,2.6-1.9,3.9c-0.6,1.3-1.4,2.5-2.1,3.7c-0.8,1.2-1.5,2.4-2.4,3.5
				c-1.7,2.3-3.6,4.4-6,6.1c-2.3,1.7-5,2.8-7.9,2.9c2.9,0.1,5.7-1,8.1-2.6c2.4-1.6,4.5-3.7,6.3-6c0.9-1.1,1.7-2.3,2.6-3.5
				c0.8-1.2,1.6-2.4,2.3-3.7c0.7-1.3,1.4-2.5,2-3.8c0.7-1.3,1.3-2.6,1.8-3.9c4.6-10.6,7.6-21.8,10.1-33.1c0.6-2.8,1.1-5.7,1.7-8.5
				c0.5-2.8,0.9-5.7,1.3-8.6c0.8-5.7,1.5-11.5,2-17.2c1.1-11.5,1.5-23,1.6-34.6c-0.1-11.5-0.5-23.1-1.6-34.6
				c-0.5-5.7-1.2-11.5-2-17.2c-0.8-5.7-1.8-11.4-3-17.1c-2.4-11.3-5.5-22.5-10.1-33.1c-0.6-1.3-1.2-2.6-1.8-3.9
				c-0.6-1.3-1.3-2.6-2-3.8c-0.7-1.3-1.5-2.5-2.3-3.7c-0.8-1.2-1.6-2.4-2.6-3.5c-1.8-2.3-3.8-4.4-6.3-6c-2.4-1.6-5.3-2.7-8.1-2.6
				C317,198.5,319.7,199.7,322,201.4z M346.6,209.3c2.3,1.4,4.3,3.2,6.2,5.2c3.6,4.1,6.4,8.8,8.7,13.7c4.7,9.8,7.7,20.3,10.1,30.9
				c4.6,21.3,6.5,43.1,6.5,64.8c0,21.8-1.9,43.6-6.5,64.8c-2.4,10.6-5.4,21.1-10.1,30.9c-2.3,4.9-5.1,9.6-8.7,13.7
				c-1.8,2-3.8,3.8-6.2,5.2c-2.3,1.4-5,2.3-7.7,2.4c2.7,0.1,5.5-0.7,7.9-2c2.4-1.3,4.5-3.1,6.5-5.1c3.8-4,6.8-8.7,9.3-13.6
				c5-9.8,8.3-20.4,10.9-31c1.3-5.3,2.4-10.7,3.2-16.1c0.9-5.4,1.6-10.9,2.2-16.3c1.1-10.9,1.7-21.9,1.7-32.8
				c-0.1-11-0.6-21.9-1.7-32.8c-0.6-5.5-1.3-10.9-2.2-16.3c-0.9-5.4-1.9-10.8-3.2-16.1c-2.6-10.6-5.9-21.2-10.9-31
				c-2.5-4.9-5.5-9.6-9.3-13.6c-1.9-2-4-3.8-6.5-5.1c-2.4-1.3-5.1-2.1-7.9-2C341.7,207,344.3,207.9,346.6,209.3z M371.5,211.6
				c2.4,1.3,4.5,2.9,6.4,4.8c3.7,3.9,6.7,8.4,9.1,13.2c4.9,9.5,8.3,19.9,10.8,30.3c5,21,7,42.6,7,64.1c0,21.5-2,43.1-7,64.1
				c-2.5,10.4-5.8,20.8-10.8,30.3c-2.5,4.8-5.4,9.3-9.1,13.2c-1.9,1.9-4,3.6-6.4,4.8c-2.3,1.3-5,2.1-7.7,2.1
				c2.7,0.1,5.4-0.6,7.9-1.8c2.4-1.2,4.7-2.8,6.7-4.7c3.9-3.8,7.1-8.3,9.8-13.1c5.2-9.6,8.8-19.9,11.6-30.4
				c2.8-10.5,4.5-21.3,5.8-32.1c1.2-10.8,1.8-21.7,1.8-32.5c-0.1-10.9-0.6-21.7-1.8-32.5c-1.2-10.8-3-21.5-5.8-32.1
				c-2.8-10.5-6.3-20.9-11.6-30.4c-2.7-4.7-5.8-9.3-9.8-13.1c-2-1.9-4.2-3.5-6.7-4.7c-2.4-1.2-5.2-1.9-7.9-1.8
				C366.5,209.5,369.2,210.3,371.5,211.6z M397.1,198.9c2.5,1.5,4.8,3.5,6.7,5.7c3.9,4.4,7,9.6,9.5,14.9
				c5.1,10.7,8.5,22.2,11.1,33.7c5.1,23.2,7.2,47,7.1,70.7c0,23.7-2,47.5-7.1,70.7c-2.6,11.6-6,23-11.1,33.7
				c-2.5,5.4-5.6,10.5-9.5,14.9c-2,2.2-4.2,4.2-6.7,5.7c-2.5,1.5-5.4,2.5-8.4,2.6c3,0.1,6-0.8,8.6-2.2c2.6-1.5,4.9-3.4,7-5.6
				c4.1-4.4,7.4-9.5,10.1-14.8c5.4-10.7,9-22.2,11.8-33.8c1.4-5.8,2.6-11.7,3.5-17.6c1-5.9,1.7-11.8,2.3-17.8
				c1.2-11.9,1.8-23.8,1.9-35.8c-0.1-12-0.6-23.9-1.9-35.8c-0.6-5.9-1.4-11.9-2.3-17.8c-1-5.9-2.1-11.8-3.5-17.6
				c-2.8-11.6-6.4-23.1-11.8-33.8c-2.7-5.3-6-10.5-10.1-14.8c-2.1-2.1-4.4-4.1-7-5.6c-2.6-1.4-5.6-2.3-8.6-2.2
				C391.7,196.4,394.6,197.4,397.1,198.9z M423.1,176.6c2.8,2,5.1,4.6,7.2,7.3c2,2.8,3.8,5.7,5.4,8.8c1.6,3,3,6.2,4.3,9.4
				c5.2,12.8,8.5,26.2,11.1,39.7c5.1,27.1,7.2,54.7,7.1,82.3c0,27.6-2,55.2-7.1,82.3c-2.6,13.5-6,26.9-11.1,39.7
				c-1.3,3.2-2.7,6.3-4.3,9.4c-1.6,3-3.4,6-5.4,8.8c-2.1,2.7-4.4,5.3-7.2,7.3c-2.7,2-6,3.4-9.5,3.5c3.5,0.1,6.9-1.2,9.7-3.2
				c2.9-2,5.3-4.5,7.5-7.2c2.1-2.7,4-5.7,5.7-8.7c1.7-3,3.2-6.2,4.6-9.3c5.4-12.8,9-26.2,11.9-39.8c2.8-13.6,4.6-27.3,5.9-41.1
				c1.2-13.8,1.8-27.6,1.9-41.5c0-13.9-0.6-27.7-1.9-41.5c-1.3-13.8-3-27.6-5.9-41.1c-1.4-6.8-3-13.5-5-20.2
				c-1.9-6.7-4.2-13.2-6.9-19.6c-1.4-3.2-2.9-6.3-4.6-9.3c-1.7-3-3.6-6-5.7-8.7c-2.2-2.7-4.6-5.3-7.5-7.2c-2.9-2-6.3-3.3-9.7-3.2
				C417,173.1,420.3,174.5,423.1,176.6z M447.6,188.5c2.8,1.6,5.2,3.8,7.3,6.2c4.2,4.8,7.5,10.4,10.3,16.2c5.5,11.6,9.2,24,12,36.5
				c5.5,25.1,7.8,50.9,7.7,76.7c0,25.7-2.2,51.5-7.7,76.6c-2.8,12.5-6.5,24.9-12,36.5c-2.7,5.8-6,11.4-10.3,16.2
				c-2.2,2.4-4.6,4.5-7.3,6.2c-2.7,1.7-5.9,2.7-9.1,2.8c3.2,0.1,6.5-0.9,9.3-2.4c2.8-1.6,5.4-3.7,7.6-6c4.4-4.8,8-10.3,10.9-16.1
				c5.8-11.6,9.7-24.1,12.8-36.7c1.5-6.3,2.8-12.7,3.8-19.1c1.1-6.4,1.9-12.8,2.5-19.3c1.3-12.9,2-25.8,2-38.8
				c-0.1-12.9-0.7-25.9-2-38.8c-0.7-6.4-1.5-12.9-2.5-19.3c-1-6.4-2.3-12.8-3.8-19.1c-3.1-12.6-7-25-12.8-36.6
				c-2.9-5.8-6.4-11.3-10.9-16.1c-2.3-2.3-4.8-4.5-7.6-6c-2.8-1.6-6.1-2.5-9.3-2.4C441.7,185.8,444.8,186.8,447.6,188.5z
				 M469.5,134.8c1.9,0.9,3.6,2.3,5.2,3.7c3.1,2.9,5.6,6.4,7.8,10.1c2.2,3.7,4,7.5,5.7,11.4c1.7,3.9,3.1,7.9,4.5,12
				c5.4,16.2,8.9,33,11.6,49.8c5.3,33.8,7.5,68,7.4,102.2c0,34.2-2.1,68.4-7.4,102.2c-2.7,16.9-6.2,33.6-11.6,49.8
				c-1.3,4.1-2.8,8.1-4.5,12c-1.7,3.9-3.5,7.8-5.7,11.4c-2.2,3.6-4.7,7.2-7.8,10.1c-1.6,1.4-3.3,2.8-5.2,3.7c-1.9,0.9-4,1.5-6.2,1.6
				c2.1,0,4.3-0.5,6.2-1.4c2-0.9,3.7-2.2,5.3-3.6c3.2-2.9,5.8-6.4,8.1-10c2.3-3.7,4.2-7.5,6-11.4c1.8-3.9,3.3-7.9,4.8-12
				c5.6-16.2,9.4-33,12.3-49.9c2.9-16.9,4.8-34,6.1-51.1c1.3-17.1,1.9-34.2,1.9-51.4c-0.1-17.1-0.7-34.3-1.9-51.4
				c-1.3-17.1-3.2-34.2-6.1-51.1c-2.9-16.9-6.7-33.7-12.3-49.9c-1.4-4-3-8-4.8-12c-1.8-3.9-3.7-7.7-6-11.4c-2.3-3.6-4.9-7.1-8.1-10
				c-1.6-1.4-3.4-2.7-5.3-3.6c-2-0.9-4.1-1.4-6.2-1.4C465.4,133.3,467.6,133.9,469.5,134.8z M499.9,115.1c2,1.2,3.8,2.8,5.3,4.5
				c3.1,3.5,5.6,7.5,7.8,11.6c4.3,8.3,7.4,17.2,10,26.1c2.6,9,4.8,18.1,6.6,27.2c1.8,9.2,3.4,18.4,4.7,27.6
				c5.2,37,7.3,74.5,7.3,111.9c0,37.4-2.1,74.8-7.3,111.9c-1.3,9.3-2.8,18.5-4.7,27.6c-1.8,9.2-4,18.3-6.6,27.2
				c-2.6,9-5.7,17.8-10,26.1c-2.1,4.1-4.6,8.1-7.8,11.6c-1.6,1.7-3.3,3.3-5.3,4.5c-2,1.2-4.3,1.9-6.6,2c2.3,0,4.7-0.7,6.7-1.8
				c2.1-1.2,3.9-2.7,5.5-4.4c3.2-3.4,5.8-7.4,8.1-11.5c4.5-8.3,7.7-17.1,10.6-26.1c2.8-9,5.1-18.1,7-27.3c2-9.2,3.6-18.4,5-27.7
				c2.9-18.5,4.7-37.2,6-55.9c1.3-18.7,1.8-37.5,1.9-56.2c0-18.8-0.6-37.5-1.9-56.2c-1.3-18.7-3.1-37.4-6-55.9
				c-1.4-9.3-3.1-18.5-5-27.7c-2-9.2-4.2-18.3-7-27.3c-2.8-8.9-6.1-17.8-10.6-26.1c-2.2-4.1-4.8-8.1-8.1-11.5
				c-1.6-1.7-3.5-3.2-5.5-4.4c-2-1.2-4.4-1.8-6.7-1.8C495.7,113.1,498,113.8,499.9,115.1z M527.4,68.4c1.3,0.5,2.4,1.4,3.5,2.2
				c2.1,1.8,3.9,4,5.5,6.3c3.1,4.6,5.5,9.7,7.6,14.9c4.1,10.4,7.1,21.2,9.7,32.1c5.1,21.8,8.4,44,10.9,66.2c5,44.5,7.1,89.3,7,134
				c0.1,44.8-2,89.5-7,134c-2.6,22.2-5.9,44.4-10.9,66.2c-2.5,10.9-5.5,21.7-9.7,32.1c-2.1,5.2-4.5,10.3-7.6,14.9
				c-1.6,2.3-3.4,4.5-5.5,6.3c-1.1,0.9-2.2,1.7-3.5,2.2c-1.3,0.5-2.7,0.9-4.1,0.9c1.4,0,2.8-0.3,4.1-0.8c1.3-0.5,2.5-1.3,3.6-2.1
				c2.2-1.8,4-3.9,5.7-6.2c3.2-4.6,5.7-9.7,7.9-14.8c4.3-10.4,7.5-21.2,10.2-32c5.3-21.8,8.9-44,11.7-66.2c2.8-22.3,4.5-44.6,5.8-67
				c1.2-22.4,1.8-44.8,1.8-67.2c0-22.4-0.6-44.8-1.8-67.2c-1.2-22.4-3-44.8-5.8-67c-2.8-22.2-6.3-44.4-11.7-66.2
				c-2.7-10.9-5.9-21.7-10.2-32c-2.2-5.2-4.7-10.2-7.9-14.8c-1.6-2.3-3.5-4.4-5.7-6.2C529.9,69.6,528.7,68.8,527.4,68.4
				c-1.3-0.6-2.7-0.9-4.1-0.9C524.7,67.5,526.1,67.8,527.4,68.4z M557.8,34.7c1.4,0.8,2.6,1.7,3.7,2.9c2.2,2.2,4,4.9,5.5,7.6
				c3.1,5.4,5.4,11.3,7.5,17.2c4.1,11.9,7,24.1,9.5,36.4c5,24.6,8.2,49.6,10.7,74.6c4.9,50,6.9,100.3,6.9,150.6
				c0.1,50.3-2,100.6-6.9,150.6c-2.5,25-5.8,50-10.7,74.6c-2.5,12.3-5.4,24.6-9.5,36.4c-2.1,5.9-4.4,11.8-7.5,17.2
				c-1.6,2.7-3.3,5.4-5.5,7.6c-1.1,1.1-2.3,2.1-3.7,2.9c-1.4,0.8-2.9,1.2-4.5,1.3c1.6,0,3.1-0.4,4.5-1.2c1.4-0.7,2.7-1.7,3.8-2.8
				c2.3-2.2,4.1-4.8,5.7-7.5c3.2-5.4,5.6-11.3,7.8-17.2c4.2-11.9,7.3-24.1,10-36.4c5.2-24.6,8.7-49.6,11.4-74.7
				c2.7-25,4.5-50.2,5.7-75.3c1.2-25.1,1.8-50.3,1.8-75.5c0-25.2-0.6-50.4-1.8-75.5c-1.2-25.1-2.9-50.3-5.7-75.3
				c-2.7-25-6.2-50-11.4-74.7c-2.7-12.3-5.8-24.5-10-36.4c-2.2-5.9-4.6-11.8-7.8-17.2c-1.6-2.7-3.4-5.3-5.7-7.5
				C560.5,36.3,559.3,35.3,557.8,34.7c-1.4-0.8-2.9-1.3-4.5-1.3C554.9,33.4,556.4,33.9,557.8,34.7z M95.2,241.3
				c1.4,1.3,2.4,2.9,3.4,4.5c1.8,3.3,3.2,6.8,4.4,10.5c2.3,7.2,3.8,14.7,4.9,22.2c1.1,7.5,1.9,15.1,2.4,22.7
				c0.5,7.6,0.7,15.2,0.7,22.8c0,7.6-0.2,15.2-0.7,22.8c-0.5,7.6-1.3,15.2-2.4,22.7c-1.1,7.5-2.6,15-4.9,22.2
				c-1.1,3.6-2.5,7.2-4.4,10.5c-1,1.6-2,3.2-3.4,4.5c-1.3,1.3-3,2.4-5,2.5c1.9,0,3.8-0.9,5.2-2.2c1.5-1.3,2.6-2.8,3.7-4.4
				c2-3.3,3.6-6.8,5-10.4c2.6-7.2,4.3-14.8,5.7-22.3c2.7-15.1,3.7-30.5,3.7-45.8c-0.1-15.3-1-30.7-3.7-45.8
				c-1.4-7.5-3.1-15.1-5.7-22.3c-1.3-3.6-2.9-7.1-4.9-10.4c-1.1-1.6-2.2-3.2-3.7-4.4c-1.4-1.3-3.3-2.2-5.2-2.2
				C92.1,239,93.8,240,95.2,241.3z M118.8,256.3c1.4,0.8,2.5,1.9,3.6,3.1c2.1,2.4,3.7,5.2,5,8.1c2.7,5.8,4.5,12,5.8,18.2
				c1.3,6.3,2.3,12.6,2.8,19c0.6,6.4,0.9,12.8,0.9,19.2c0,6.4-0.3,12.8-0.9,19.2c-0.6,6.4-1.5,12.7-2.8,19
				c-1.4,6.3-3.1,12.5-5.8,18.2c-1.3,2.9-2.9,5.7-5,8.1c-1.1,1.2-2.2,2.3-3.6,3.1c-1.3,0.8-2.9,1.4-4.5,1.5c1.6,0.1,3.3-0.4,4.7-1.1
				c1.4-0.8,2.7-1.8,3.9-3c2.3-2.4,4.1-5.1,5.6-8c3-5.8,5-12.1,6.6-18.4c3.1-12.6,4.3-25.7,4.3-38.7c-0.1-13-1.2-26-4.3-38.7
				c-1.6-6.3-3.6-12.5-6.6-18.4c-1.5-2.9-3.3-5.7-5.6-8c-1.2-1.2-2.4-2.2-3.9-3c-1.4-0.8-3.1-1.2-4.7-1.1
				C115.9,254.9,117.4,255.4,118.8,256.3z M147.8,266.5c2.2,1.9,4,4.2,5.5,6.7c3,5,5.1,10.5,6.7,16.1c1.6,5.6,2.7,11.4,3.3,17.2
				c0.7,5.8,1,11.7,1,17.5c0,5.9-0.3,11.7-1,17.5c-0.3,2.9-0.8,5.8-1.3,8.7c-0.6,2.9-1.2,5.7-2,8.5c-1.6,5.6-3.6,11.1-6.7,16.1
				c-1.5,2.5-3.3,4.8-5.5,6.7c-2.2,1.9-4.9,3.2-7.9,3.4c3,0.1,5.9-1,8.3-2.8c2.4-1.8,4.4-4.1,6.1-6.6c3.4-5,5.7-10.5,7.5-16.2
				c3.6-11.4,4.9-23.4,5-35.3c-0.1-11.9-1.4-23.9-5-35.3c-1.8-5.7-4.1-11.3-7.5-16.2c-1.7-2.4-3.7-4.8-6.1-6.6
				c-2.4-1.8-5.4-2.9-8.3-2.8C142.9,263.3,145.7,264.6,147.8,266.5z M170,245.9c1.6,1,2.9,2.2,4.2,3.6c2.4,2.8,4.3,6,5.8,9.4
				c3.1,6.7,5.2,13.8,6.8,21.1c1.5,7.2,2.6,14.6,3.3,21.9c0.7,7.4,1,14.8,1,22.2c0,7.4-0.3,14.8-1,22.2c-0.7,7.4-1.8,14.7-3.3,21.9
				c-1.6,7.2-3.6,14.4-6.8,21.1c-1.5,3.3-3.4,6.6-5.8,9.4c-1.2,1.4-2.6,2.6-4.2,3.6c-1.6,1-3.4,1.6-5.2,1.7c1.9,0.1,3.7-0.4,5.4-1.3
				c1.7-0.9,3.1-2.1,4.5-3.5c2.6-2.7,4.7-5.9,6.4-9.3c3.4-6.7,5.7-13.9,7.5-21.2c3.6-14.6,4.9-29.6,5-44.6c-0.1-15-1.4-30-5-44.6
				c-1.8-7.3-4.1-14.5-7.5-21.2c-1.7-3.3-3.8-6.5-6.4-9.3c-1.3-1.3-2.8-2.6-4.5-3.5c-1.7-0.9-3.5-1.4-5.4-1.3
				C166.7,244.3,168.5,244.9,170,245.9z M196.1,220.4c1.8,1.6,3.3,3.4,4.6,5.5c2.5,4,4.4,8.5,6,13c3.2,9,5.2,18.4,6.8,27.9
				c1.5,9.5,2.7,19,3.3,28.5c0.7,9.6,1,19.1,1,28.7c0,9.6-0.3,19.2-1,28.7c-0.7,9.6-1.8,19.1-3.3,28.5c-1.6,9.4-3.6,18.8-6.8,27.9
				c-1.6,4.5-3.5,8.9-6,13c-1.3,2-2.8,3.9-4.6,5.5c-1.8,1.6-4,2.7-6.4,2.8c2.4,0,4.8-1,6.7-2.5c1.9-1.5,3.5-3.4,4.9-5.4
				c2.7-4,4.8-8.4,6.6-12.9c3.5-9,5.7-18.5,7.5-27.9c3.6-19,4.9-38.3,5-57.6c-0.1-19.3-1.4-38.6-5-57.6c-1.8-9.5-4.1-18.9-7.5-27.9
				c-1.8-4.5-3.8-8.9-6.6-12.9c-1.4-2-3-3.9-4.9-5.4c-1.9-1.5-4.2-2.6-6.7-2.5C192.1,217.7,194.3,218.9,196.1,220.4z M220.5,235.4
				c1.8,1.1,3.3,2.5,4.7,4.1c2.7,3.2,4.9,6.8,6.6,10.6c3.6,7.6,5.9,15.7,7.7,23.9c1.7,8.2,3,16.5,3.8,24.9
				c0.8,8.4,1.2,16.8,1.2,25.2c0,8.4-0.4,16.8-1.2,25.2c-0.8,8.4-2,16.7-3.8,24.9c-1.8,8.2-4.2,16.3-7.7,23.9
				c-1.8,3.8-3.9,7.4-6.6,10.6c-1.4,1.5-2.9,3-4.7,4.1c-1.8,1.1-3.8,1.8-5.9,1.9c2.1,0.1,4.2-0.5,6.1-1.5c1.9-1,3.5-2.4,5-3.9
				c2.9-3.1,5.3-6.7,7.2-10.5c3.9-7.6,6.4-15.8,8.5-24c4-16.5,5.5-33.5,5.6-50.5c-0.1-16.9-1.6-34-5.6-50.5
				c-2.1-8.2-4.6-16.4-8.5-24c-2-3.8-4.3-7.4-7.2-10.5c-1.5-1.5-3.2-2.9-5-3.9c-1.9-1-4-1.6-6.1-1.5
				C216.7,233.6,218.7,234.3,220.5,235.4z M243.7,192.2c1.3,0.7,2.4,1.7,3.5,2.7c2.1,2.1,3.7,4.6,5.1,7.2c2.8,5.2,4.9,10.8,6.6,16.4
				c3.5,11.3,5.8,23,7.5,34.7c3.4,23.4,4.9,47.2,4.8,70.9c0.1,23.7-1.4,47.4-4.8,70.9c-1.7,11.7-4,23.4-7.5,34.7
				c-1.7,5.6-3.8,11.2-6.6,16.4c-1.4,2.6-3.1,5.1-5.1,7.2c-1,1-2.2,2-3.5,2.7c-1.3,0.7-2.7,1.1-4.2,1.2c1.5,0,3-0.4,4.3-1
				c1.3-0.7,2.5-1.6,3.6-2.6c2.2-2.1,3.9-4.5,5.4-7.1c3-5.2,5.3-10.7,7.2-16.4c3.8-11.3,6.3-23,8.3-34.7c2-11.7,3.2-23.6,4.1-35.5
				c0.9-11.9,1.3-23.8,1.3-35.7c0-11.9-0.5-23.8-1.3-35.7c-0.9-11.9-2.1-23.7-4.1-35.5c-2-11.7-4.5-23.4-8.3-34.7
				c-1.9-5.6-4.2-11.2-7.2-16.4c-1.5-2.6-3.3-5-5.4-7.1c-1.1-1-2.3-1.9-3.6-2.6c-1.3-0.7-2.8-1-4.3-1
				C240.9,191.1,242.4,191.5,243.7,192.2z M271,225c2,1.2,3.7,2.8,5.3,4.5c3.1,3.5,5.5,7.6,7.4,11.8c4,8.5,6.6,17.5,8.7,26.7
				c2,9.2,3.4,18.5,4.2,27.8c0.9,9.3,1.3,18.7,1.3,28.1c0,9.4-0.4,18.8-1.3,28.1c-0.9,9.4-2.3,18.6-4.2,27.8
				c-2,9.2-4.7,18.2-8.7,26.7c-2,4.2-4.4,8.3-7.4,11.8c-1.6,1.7-3.3,3.3-5.3,4.5c-2,1.2-4.3,2-6.6,2.1c2.4,0.1,4.7-0.6,6.8-1.7
				c2.1-1.1,3.9-2.7,5.6-4.4c3.3-3.5,5.9-7.5,8-11.7c4.3-8.5,7.2-17.6,9.4-26.8c4.4-18.5,6.1-37.5,6.2-56.4
				c-0.1-18.9-1.8-37.9-6.2-56.4c-2.3-9.2-5.2-18.3-9.4-26.8c-2.2-4.2-4.8-8.3-8-11.7c-1.7-1.7-3.5-3.3-5.6-4.4
				c-2.1-1.1-4.5-1.8-6.8-1.7C266.7,223,269,223.8,271,225z M295.8,228c2,1.1,3.9,2.5,5.5,4.1c3.2,3.2,5.8,7.1,7.9,11.2
				c4.3,8.1,7.2,16.9,9.4,25.9c2.1,9,3.7,18.1,4.6,27.2c1,9.2,1.4,18.4,1.4,27.6c0,9.2-0.4,18.4-1.4,27.6
				c-0.9,9.2-2.5,18.3-4.6,27.2c-2.2,8.9-5.1,17.7-9.4,25.9c-2.2,4-4.7,7.9-7.9,11.2c-1.6,1.6-3.5,3-5.5,4.1c-2,1.1-4.3,1.7-6.6,1.8
				c2.3,0.1,4.6-0.5,6.8-1.5c2.1-1,4.1-2.3,5.8-3.9c3.4-3.2,6.2-7,8.6-11.1c4.6-8.2,7.7-17,10.2-26c4.8-18,6.6-36.7,6.7-55.3
				c-0.1-18.6-1.9-37.3-6.7-55.3c-2.4-9-5.6-17.8-10.2-26c-2.4-4-5.1-7.9-8.6-11.1c-1.7-1.6-3.7-2.9-5.8-3.9c-2.1-1-4.4-1.5-6.8-1.5
				C291.5,226.3,293.8,227,295.8,228z M322,201.4c2.3,1.6,4.3,3.8,6,6.1c0.9,1.1,1.6,2.3,2.4,3.5c0.7,1.2,1.5,2.4,2.1,3.7
				c0.7,1.3,1.3,2.5,1.9,3.9c0.6,1.3,1.2,2.6,1.7,3.9c4.3,10.6,7.1,21.8,9.3,33c4.3,22.5,6,45.5,6,68.5c0,22.9-1.7,45.9-6,68.5
				c-2.2,11.2-5,22.4-9.3,33c-0.5,1.3-1.1,2.6-1.7,3.9c-0.6,1.3-1.2,2.6-1.9,3.9c-0.6,1.3-1.4,2.5-2.1,3.7c-0.8,1.2-1.5,2.4-2.4,3.5
				c-1.7,2.3-3.6,4.4-6,6.1c-2.3,1.7-5,2.8-7.9,2.9c2.9,0.1,5.7-1,8.1-2.6c2.4-1.6,4.5-3.7,6.3-6c0.9-1.1,1.7-2.3,2.6-3.5
				c0.8-1.2,1.6-2.4,2.3-3.7c0.7-1.3,1.4-2.5,2-3.8c0.7-1.3,1.3-2.6,1.8-3.9c4.6-10.6,7.6-21.8,10.1-33.1c0.6-2.8,1.1-5.7,1.7-8.5
				c0.5-2.8,0.9-5.7,1.3-8.6c0.8-5.7,1.5-11.5,2-17.2c1.1-11.5,1.5-23,1.6-34.6c-0.1-11.5-0.5-23.1-1.6-34.6
				c-0.5-5.7-1.2-11.5-2-17.2c-0.8-5.7-1.8-11.4-3-17.1c-2.4-11.3-5.5-22.5-10.1-33.1c-0.6-1.3-1.2-2.6-1.8-3.9
				c-0.6-1.3-1.3-2.6-2-3.8c-0.7-1.3-1.5-2.5-2.3-3.7c-0.8-1.2-1.6-2.4-2.6-3.5c-1.8-2.3-3.8-4.4-6.3-6c-2.4-1.6-5.3-2.7-8.1-2.6
				C317,198.5,319.7,199.7,322,201.4z M346.6,209.3c2.3,1.4,4.3,3.2,6.2,5.2c3.6,4.1,6.4,8.8,8.7,13.7c4.7,9.8,7.7,20.3,10.1,30.9
				c4.6,21.3,6.5,43.1,6.5,64.8c0,21.8-1.9,43.6-6.5,64.8c-2.4,10.6-5.4,21.1-10.1,30.9c-2.3,4.9-5.1,9.6-8.7,13.7
				c-1.8,2-3.8,3.8-6.2,5.2c-2.3,1.4-5,2.3-7.7,2.4c2.7,0.1,5.5-0.7,7.9-2c2.4-1.3,4.5-3.1,6.5-5.1c3.8-4,6.8-8.7,9.3-13.6
				c5-9.8,8.3-20.4,10.9-31c1.3-5.3,2.4-10.7,3.2-16.1c0.9-5.4,1.6-10.9,2.2-16.3c1.1-10.9,1.7-21.9,1.7-32.8
				c-0.1-11-0.6-21.9-1.7-32.8c-0.6-5.5-1.3-10.9-2.2-16.3c-0.9-5.4-1.9-10.8-3.2-16.1c-2.6-10.6-5.9-21.2-10.9-31
				c-2.5-4.9-5.5-9.6-9.3-13.6c-1.9-2-4-3.8-6.5-5.1c-2.4-1.3-5.1-2.1-7.9-2C341.7,207,344.3,207.9,346.6,209.3z M371.5,211.6
				c2.4,1.3,4.5,2.9,6.4,4.8c3.7,3.9,6.7,8.4,9.1,13.2c4.9,9.5,8.3,19.9,10.8,30.3c5,21,7,42.6,7,64.1c0,21.5-2,43.1-7,64.1
				c-2.5,10.4-5.8,20.8-10.8,30.3c-2.5,4.8-5.4,9.3-9.1,13.2c-1.9,1.9-4,3.6-6.4,4.8c-2.3,1.3-5,2.1-7.7,2.1
				c2.7,0.1,5.4-0.6,7.9-1.8c2.4-1.2,4.7-2.8,6.7-4.7c3.9-3.8,7.1-8.3,9.8-13.1c5.2-9.6,8.8-19.9,11.6-30.4
				c2.8-10.5,4.5-21.3,5.8-32.1c1.2-10.8,1.8-21.7,1.8-32.5c-0.1-10.9-0.6-21.7-1.8-32.5c-1.2-10.8-3-21.5-5.8-32.1
				c-2.8-10.5-6.3-20.9-11.6-30.4c-2.7-4.7-5.8-9.3-9.8-13.1c-2-1.9-4.2-3.5-6.7-4.7c-2.4-1.2-5.2-1.9-7.9-1.8
				C366.5,209.5,369.2,210.3,371.5,211.6z M397.1,198.9c2.5,1.5,4.8,3.5,6.7,5.7c3.9,4.4,7,9.6,9.5,14.9
				c5.1,10.7,8.5,22.2,11.1,33.7c5.1,23.2,7.2,47,7.1,70.7c0,23.7-2,47.5-7.1,70.7c-2.6,11.6-6,23-11.1,33.7
				c-2.5,5.4-5.6,10.5-9.5,14.9c-2,2.2-4.2,4.2-6.7,5.7c-2.5,1.5-5.4,2.5-8.4,2.6c3,0.1,6-0.8,8.6-2.2c2.6-1.5,4.9-3.4,7-5.6
				c4.1-4.4,7.4-9.5,10.1-14.8c5.4-10.7,9-22.2,11.8-33.8c1.4-5.8,2.6-11.7,3.5-17.6c1-5.9,1.7-11.8,2.3-17.8
				c1.2-11.9,1.8-23.8,1.9-35.8c-0.1-12-0.6-23.9-1.9-35.8c-0.6-5.9-1.4-11.9-2.3-17.8c-1-5.9-2.1-11.8-3.5-17.6
				c-2.8-11.6-6.4-23.1-11.8-33.8c-2.7-5.3-6-10.5-10.1-14.8c-2.1-2.1-4.4-4.1-7-5.6c-2.6-1.4-5.6-2.3-8.6-2.2
				C391.7,196.4,394.6,197.4,397.1,198.9z M423.1,176.6c2.8,2,5.1,4.6,7.2,7.3c2,2.8,3.8,5.7,5.4,8.8c1.6,3,3,6.2,4.3,9.4
				c5.2,12.8,8.5,26.2,11.1,39.7c5.1,27.1,7.2,54.7,7.1,82.3c0,27.6-2,55.2-7.1,82.3c-2.6,13.5-6,26.9-11.1,39.7
				c-1.3,3.2-2.7,6.3-4.3,9.4c-1.6,3-3.4,6-5.4,8.8c-2.1,2.7-4.4,5.3-7.2,7.3c-2.7,2-6,3.4-9.5,3.5c3.5,0.1,6.9-1.2,9.7-3.2
				c2.9-2,5.3-4.5,7.5-7.2c2.1-2.7,4-5.7,5.7-8.7c1.7-3,3.2-6.2,4.6-9.3c5.4-12.8,9-26.2,11.9-39.8c2.8-13.6,4.6-27.3,5.9-41.1
				c1.2-13.8,1.8-27.6,1.9-41.5c0-13.9-0.6-27.7-1.9-41.5c-1.3-13.8-3-27.6-5.9-41.1c-1.4-6.8-3-13.5-5-20.2
				c-1.9-6.7-4.2-13.2-6.9-19.6c-1.4-3.2-2.9-6.3-4.6-9.3c-1.7-3-3.6-6-5.7-8.7c-2.2-2.7-4.6-5.3-7.5-7.2c-2.9-2-6.3-3.3-9.7-3.2
				C417,173.1,420.3,174.5,423.1,176.6z M447.6,188.5c2.8,1.6,5.2,3.8,7.3,6.2c4.2,4.8,7.5,10.4,10.3,16.2c5.5,11.6,9.2,24,12,36.5
				c5.5,25.1,7.8,50.9,7.7,76.7c0,25.7-2.2,51.5-7.7,76.6c-2.8,12.5-6.5,24.9-12,36.5c-2.7,5.8-6,11.4-10.3,16.2
				c-2.2,2.4-4.6,4.5-7.3,6.2c-2.7,1.7-5.9,2.7-9.1,2.8c3.2,0.1,6.5-0.9,9.3-2.4c2.8-1.6,5.4-3.7,7.6-6c4.4-4.8,8-10.3,10.9-16.1
				c5.8-11.6,9.7-24.1,12.8-36.7c1.5-6.3,2.8-12.7,3.8-19.1c1.1-6.4,1.9-12.8,2.5-19.3c1.3-12.9,2-25.8,2-38.8
				c-0.1-12.9-0.7-25.9-2-38.8c-0.7-6.4-1.5-12.9-2.5-19.3c-1-6.4-2.3-12.8-3.8-19.1c-3.1-12.6-7-25-12.8-36.6
				c-2.9-5.8-6.4-11.3-10.9-16.1c-2.3-2.3-4.8-4.5-7.6-6c-2.8-1.6-6.1-2.5-9.3-2.4C441.7,185.8,444.8,186.8,447.6,188.5z
				 M469.5,134.8c1.9,0.9,3.6,2.3,5.2,3.7c3.1,2.9,5.6,6.4,7.8,10.1c2.2,3.7,4,7.5,5.7,11.4c1.7,3.9,3.1,7.9,4.5,12
				c5.4,16.2,8.9,33,11.6,49.8c5.3,33.8,7.5,68,7.4,102.2c0,34.2-2.1,68.4-7.4,102.2c-2.7,16.9-6.2,33.6-11.6,49.8
				c-1.3,4.1-2.8,8.1-4.5,12c-1.7,3.9-3.5,7.8-5.7,11.4c-2.2,3.6-4.7,7.2-7.8,10.1c-1.6,1.4-3.3,2.8-5.2,3.7c-1.9,0.9-4,1.5-6.2,1.6
				c2.1,0,4.3-0.5,6.2-1.4c2-0.9,3.7-2.2,5.3-3.6c3.2-2.9,5.8-6.4,8.1-10c2.3-3.7,4.2-7.5,6-11.4c1.8-3.9,3.3-7.9,4.8-12
				c5.6-16.2,9.4-33,12.3-49.9c2.9-16.9,4.8-34,6.1-51.1c1.3-17.1,1.9-34.2,1.9-51.4c-0.1-17.1-0.7-34.3-1.9-51.4
				c-1.3-17.1-3.2-34.2-6.1-51.1c-2.9-16.9-6.7-33.7-12.3-49.9c-1.4-4-3-8-4.8-12c-1.8-3.9-3.7-7.7-6-11.4c-2.3-3.6-4.9-7.1-8.1-10
				c-1.6-1.4-3.4-2.7-5.3-3.6c-2-0.9-4.1-1.4-6.2-1.4C465.4,133.3,467.6,133.9,469.5,134.8z M499.9,115.1c2,1.2,3.8,2.8,5.3,4.5
				c3.1,3.5,5.6,7.5,7.8,11.6c4.3,8.3,7.4,17.2,10,26.1c2.6,9,4.8,18.1,6.6,27.2c1.8,9.2,3.4,18.4,4.7,27.6
				c5.2,37,7.3,74.5,7.3,111.9c0,37.4-2.1,74.8-7.3,111.9c-1.3,9.3-2.8,18.5-4.7,27.6c-1.8,9.2-4,18.3-6.6,27.2
				c-2.6,9-5.7,17.8-10,26.1c-2.1,4.1-4.6,8.1-7.8,11.6c-1.6,1.7-3.3,3.3-5.3,4.5c-2,1.2-4.3,1.9-6.6,2c2.3,0,4.7-0.7,6.7-1.8
				c2.1-1.2,3.9-2.7,5.5-4.4c3.2-3.4,5.8-7.4,8.1-11.5c4.5-8.3,7.7-17.1,10.6-26.1c2.8-9,5.1-18.1,7-27.3c2-9.2,3.6-18.4,5-27.7
				c2.9-18.5,4.7-37.2,6-55.9c1.3-18.7,1.8-37.5,1.9-56.2c0-18.8-0.6-37.5-1.9-56.2c-1.3-18.7-3.1-37.4-6-55.9
				c-1.4-9.3-3.1-18.5-5-27.7c-2-9.2-4.2-18.3-7-27.3c-2.8-8.9-6.1-17.8-10.6-26.1c-2.2-4.1-4.8-8.1-8.1-11.5
				c-1.6-1.7-3.5-3.2-5.5-4.4c-2-1.2-4.4-1.8-6.7-1.8C495.7,113.1,498,113.8,499.9,115.1z M527.4,68.4c1.3,0.5,2.4,1.4,3.5,2.2
				c2.1,1.8,3.9,4,5.5,6.3c3.1,4.6,5.5,9.7,7.6,14.9c4.1,10.4,7.1,21.2,9.7,32.1c5.1,21.8,8.4,44,10.9,66.2c5,44.5,7.1,89.3,7,134
				c0.1,44.8-2,89.5-7,134c-2.6,22.2-5.9,44.4-10.9,66.2c-2.5,10.9-5.5,21.7-9.7,32.1c-2.1,5.2-4.5,10.3-7.6,14.9
				c-1.6,2.3-3.4,4.5-5.5,6.3c-1.1,0.9-2.2,1.7-3.5,2.2c-1.3,0.5-2.7,0.9-4.1,0.9c1.4,0,2.8-0.3,4.1-0.8c1.3-0.5,2.5-1.3,3.6-2.1
				c2.2-1.8,4-3.9,5.7-6.2c3.2-4.6,5.7-9.7,7.9-14.8c4.3-10.4,7.5-21.2,10.2-32c5.3-21.8,8.9-44,11.7-66.2c2.8-22.3,4.5-44.6,5.8-67
				c1.2-22.4,1.8-44.8,1.8-67.2c0-22.4-0.6-44.8-1.8-67.2c-1.2-22.4-3-44.8-5.8-67c-2.8-22.2-6.3-44.4-11.7-66.2
				c-2.7-10.9-5.9-21.7-10.2-32c-2.2-5.2-4.7-10.2-7.9-14.8c-1.6-2.3-3.5-4.4-5.7-6.2C529.9,69.6,528.7,68.8,527.4,68.4
				c-1.3-0.6-2.6-0.9-4.1-0.9C524.7,67.5,526.1,67.8,527.4,68.4z M557.8,34.7c1.4,0.8,2.6,1.7,3.7,2.9c2.2,2.2,4,4.9,5.5,7.6
				c3.1,5.4,5.4,11.3,7.5,17.2c4.1,11.9,7,24.1,9.5,36.4c5,24.6,8.2,49.6,10.7,74.6c4.9,50,6.9,100.3,6.9,150.6
				c0.1,50.3-2,100.6-6.9,150.6c-2.5,25-5.8,50-10.7,74.6c-2.5,12.3-5.4,24.6-9.5,36.4c-2.1,5.9-4.4,11.8-7.5,17.2
				c-1.6,2.7-3.3,5.4-5.5,7.6c-1.1,1.1-2.3,2.1-3.7,2.9c-1.4,0.8-2.9,1.2-4.5,1.3c1.6,0,3.1-0.4,4.5-1.2c1.4-0.7,2.7-1.7,3.8-2.8
				c2.3-2.2,4.1-4.8,5.7-7.5c3.2-5.4,5.6-11.3,7.8-17.2c4.2-11.9,7.3-24.1,10-36.4c5.2-24.6,8.7-49.6,11.4-74.7
				c2.7-25,4.5-50.2,5.7-75.3c1.2-25.1,1.8-50.3,1.8-75.5c0-25.2-0.6-50.4-1.8-75.5c-1.2-25.1-2.9-50.3-5.7-75.3
				c-2.7-25-6.2-50-11.4-74.7c-2.7-12.3-5.8-24.5-10-36.4c-2.2-5.9-4.6-11.8-7.8-17.2c-1.6-2.7-3.4-5.3-5.7-7.5
				C560.5,36.3,559.3,35.3,557.8,34.7c-1.4-0.8-2.9-1.3-4.5-1.3C554.9,33.4,556.4,33.9,557.8,34.7z"/>
			<g style="clip-path:url(#SVGID_00000080911735394124904090000001889706089590368130_);">
				<path class="st29" d="M73.3,378.4c-0.2,0.2-0.4,0.4-0.6,0.7c-1,1-2.1,1.9-3.3,2.5c-1.2,0.6-2.6,1-4,0.9c2.8,0,5.4-1.6,7.8-4.6
					C73.2,378.1,73.2,378.3,73.3,378.4z M73.2,270c0-0.1,0.1-0.3,0.1-0.5c-0.2-0.2-0.4-0.4-0.6-0.7c-1-1-2.1-1.9-3.3-2.5
					c-1.2-0.6-2.6-1-4-0.9C68.1,265.5,70.8,267.1,73.2,270z"/>
				<path class="st30" d="M90.2,238.9c1.9,0,3.8,0.9,5.2,2.2c1.5,1.3,2.6,2.8,3.7,4.4c2,3.3,3.6,6.8,4.9,10.4
					c0.5,1.3,0.9,2.6,1.3,3.9c-0.2,0.2-0.3,0.4-0.5,0.6C101,247,95.8,238.9,90.2,238.9z M104.8,387.6c-3.9,13.4-9,21.5-14.6,21.5
					c1.9,0,3.8-0.9,5.2-2.2c1.5-1.3,2.6-2.8,3.7-4.4c2-3.3,3.6-6.8,5-10.4c0.5-1.3,0.9-2.6,1.3-3.9C105.2,388,105,387.8,104.8,387.6
					z"/>
				<path class="st31" d="M495.1,113.2c-0.6-0.1-1.2-0.1-1.8-0.1C493.9,113.1,494.5,113.1,495.1,113.2
					C495.1,113.2,495.1,113.2,495.1,113.2z M495.1,534.8c-0.6,0.1-1.2,0.1-1.8,0.1C493.9,534.9,494.5,534.9,495.1,534.8
					C495.1,534.8,495.1,534.8,495.1,534.8z"/>
				<path class="st32" d="M389.1,196.3c-0.1,0-0.3,0-0.4,0C388.8,196.3,388.9,196.3,389.1,196.3
					C389.1,196.3,389.1,196.3,389.1,196.3z M389.1,451.7c-0.1,0-0.3,0-0.4,0C388.8,451.7,388.9,451.7,389.1,451.7
					C389.1,451.7,389.1,451.7,389.1,451.7z"/>
				<path class="st33" d="M464.5,133.3c1.7,0.1,3.4,0.6,5,1.3c0.5,0.2,1,0.5,1.5,0.8c0,0,0,0.1,0,0.1
					C468.9,134.3,466.7,133.5,464.5,133.3z M471,512.4c-2.1,1.3-4.3,2-6.5,2.2c1.7-0.1,3.4-0.6,5-1.3c0.5-0.2,1-0.5,1.5-0.8
					C471.1,512.5,471,512.5,471,512.4z"/>
				<path class="st34" d="M413.6,173.1c3.5-0.1,6.9,1.2,9.7,3.2c2.6,1.8,4.8,4,6.7,6.4c0,0.1-0.1,0.2-0.1,0.4
					C424.9,176.6,419.3,173.1,413.6,173.1z M429.9,465c-5.1,6.4-10.6,9.9-16.4,9.9c3.5,0.1,6.9-1.2,9.7-3.2c2.6-1.8,4.8-4,6.7-6.4
					C430,465.3,430,465.1,429.9,465z"/>
				<path class="st35" d="M529.4,69.4C529.4,69.4,529.4,69.4,529.4,69.4c-0.6-0.5-1.3-0.8-2-1.1c-0.7-0.3-1.5-0.5-2.3-0.7
					C526.6,67.9,528,68.5,529.4,69.4z M529.4,578.6c-1.4,0.9-2.9,1.5-4.3,1.8c0.8-0.1,1.6-0.4,2.3-0.7
					C528.1,579.4,528.8,579.1,529.4,578.6C529.4,578.6,529.4,578.6,529.4,578.6z"/>
				<path class="st36" d="M602.3,248.5c-1.2-25.1-2.9-50.3-5.7-75.3c-2.7-25-6.2-50-11.4-74.7c-2.7-12.3-5.8-24.5-10-36.4
					c-2.2-5.9-4.6-11.8-7.8-17.2c-1.6-2.7-3.4-5.3-5.7-7.5c-1.1-1.1-2.4-2.1-3.8-2.8c-1-0.5-2.1-0.9-3.2-1.1
					c26.8,4,48.2,132.5,48.2,290.5c0,157.9-21.5,286.4-48.2,290.5c1.1-0.2,2.2-0.5,3.2-1.1c1.4-0.7,2.7-1.7,3.8-2.8
					c2.3-2.2,4.1-4.8,5.7-7.5c3.2-5.4,5.6-11.3,7.8-17.2c4.2-11.9,7.3-24.1,10-36.4c5.2-24.6,8.7-49.6,11.4-74.7
					c2.7-25,4.5-50.2,5.7-75.3c1.2-25.1,1.8-50.3,1.8-75.5C604.1,298.8,603.5,273.6,602.3,248.5z"/>
				<path class="st37" d="M368.7,210.2c-1.6-0.5-3.2-0.8-4.9-0.8C365.5,209.4,367.2,209.6,368.7,210.2
					C368.7,210.1,368.7,210.2,368.7,210.2z M368.7,437.8c-1.6,0.5-3.2,0.8-4.9,0.8C365.5,438.6,367.2,438.4,368.7,437.8
					C368.7,437.9,368.7,437.8,368.7,437.8z"/>
				<path class="st38" d="M215.2,233.6c-0.2,0-0.4,0-0.6,0C214.8,233.6,215,233.6,215.2,233.6C215.2,233.6,215.2,233.6,215.2,233.6z
					 M215.2,414.4c-0.2,0-0.4,0-0.6,0C214.8,414.4,215,414.4,215.2,414.4C215.2,414.4,215.2,414.4,215.2,414.4z"/>
				<path class="st39" d="M189.7,217.6C189.7,217.6,189.7,217.6,189.7,217.6c2.4,0,4.8,1,6.7,2.5c1.9,1.5,3.5,3.4,4.9,5.4
					c2.3,3.4,4.1,7,5.7,10.8c-0.2,0.1-0.3,0.2-0.5,0.4C201.7,224.6,195.9,217.6,189.7,217.6z M206.5,411.4c-4.8,12-10.5,19-16.8,19
					c0,0,0,0,0,0c2.4,0,4.8-1,6.7-2.5c1.9-1.5,3.5-3.4,4.9-5.4c2.3-3.4,4.1-7,5.7-10.8C206.8,411.6,206.6,411.5,206.5,411.4z"/>
				<path class="st40" d="M146.3,265c-2-1.2-4.1-1.9-6.3-1.9c2.2-0.1,4.4,0.5,6.4,1.6C146.3,264.8,146.3,264.9,146.3,265z
					 M146.3,383c-2,1.2-4.1,1.9-6.3,1.9c2.2,0.1,4.4-0.5,6.4-1.6C146.3,383.2,146.3,383.1,146.3,383z"/>
				<path class="st41" d="M164.8,244.2C164.8,244.2,164.8,244.2,164.8,244.2c1.8-0.1,3.5,0.4,5.1,1.2c0,0.1,0,0.1,0,0.2
					C168.2,244.7,166.5,244.2,164.8,244.2z M169.9,402.5c-1.6,0.9-3.3,1.3-5,1.3c0,0,0,0,0,0c1.8,0.1,3.5-0.4,5.1-1.2
					C169.9,402.6,169.9,402.5,169.9,402.5z"/>
				<path class="st42" d="M240.3,191.1c1.2,0.1,2.4,0.4,3.5,1c1.3,0.7,2.5,1.6,3.6,2.6c2.2,2.1,3.9,4.5,5.4,7.1
					c3,5.2,5.3,10.7,7.2,16.4c0.6,1.7,1.1,3.4,1.6,5.1c-0.2,0-0.4,0.1-0.6,0.2C255.4,203.9,248.2,191.9,240.3,191.1z M261,424.6
					c-5.6,19.5-12.8,31.5-20.8,32.3c1.2-0.1,2.4-0.4,3.5-1c1.3-0.7,2.5-1.6,3.6-2.6c2.2-2.1,3.9-4.5,5.4-7.1
					c3-5.2,5.3-10.7,7.2-16.4c0.6-1.7,1.1-3.4,1.6-5.1C261.5,424.7,261.2,424.7,261,424.6z"/>
				<path class="st43" d="M264.3,222.9c2.4-0.1,4.7,0.6,6.8,1.7c2.1,1.1,3.9,2.7,5.6,4.4c0.5,0.5,1,1.1,1.4,1.6
					c-0.1,0.1-0.2,0.2-0.3,0.2C273.7,225.8,269.1,222.9,264.3,222.9z M277.9,417.1c-4.2,5.1-8.8,8-13.6,8c2.4,0.1,4.7-0.6,6.8-1.7
					c2.1-1.1,3.9-2.7,5.6-4.4c0.5-0.5,1-1.1,1.4-1.6C278.1,417.2,278,417.2,277.9,417.1z"/>
				<path class="st44" d="M340,207c-0.4,0-0.7-0.1-1.1-0.1c2.7-0.1,5.5,0.7,7.9,2c2.2,1.2,4.1,2.7,5.8,4.5c-0.1,0.1-0.2,0.1-0.2,0.2
					C348.5,209.7,344.4,207.4,340,207z M352.4,434.3c-3.9,4-8.1,6.3-12.4,6.6c-0.4,0-0.7,0.1-1.1,0.1c2.7,0.1,5.5-0.7,7.9-2
					c2.2-1.2,4.1-2.7,5.8-4.5C352.6,434.5,352.5,434.4,352.4,434.3z"/>
				<path class="st45" d="M114.2,254.8c1.6-0.1,3.3,0.4,4.7,1.1c1.4,0.8,2.7,1.8,3.9,3c2.3,2.4,4.1,5.1,5.6,8
					c0.3,0.6,0.6,1.1,0.8,1.7c-0.2,0.2-0.3,0.3-0.5,0.5C124.8,260.2,119.7,254.8,114.2,254.8z M128.8,378.8c-4,9-9.1,14.3-14.5,14.3
					c1.6,0.1,3.3-0.4,4.7-1.1c1.4-0.8,2.7-1.8,3.9-3c2.3-2.4,4.1-5.1,5.6-8c0.3-0.6,0.6-1.1,0.8-1.7
					C129.1,379.2,128.9,379,128.8,378.8z"/>
				<path class="st46" d="M314.1,198.5c2.9-0.1,5.7,1,8.1,2.6c2.4,1.6,4.5,3.7,6.3,6c0.7,0.8,1.3,1.7,1.9,2.6
					c-0.1,0.1-0.2,0.1-0.3,0.2C325.2,202.5,319.8,198.5,314.1,198.5z M330.1,438.2c-4.9,7.3-10.3,11.3-16,11.3
					c2.9,0.1,5.7-1,8.1-2.6c2.4-1.6,4.5-3.7,6.3-6c0.7-0.8,1.3-1.7,1.9-2.6C330.3,438.3,330.2,438.3,330.1,438.2z"/>
				<path class="st47" d="M289.9,226.2c-0.2,0-0.5,0-0.7,0C289.4,226.2,289.7,226.2,289.9,226.2
					C289.9,226.2,289.9,226.2,289.9,226.2z M289.9,421.8c-0.2,0-0.5,0-0.7,0C289.4,421.8,289.7,421.8,289.9,421.8
					C289.9,421.8,289.9,421.8,289.9,421.8z"/>
			</g>
		</g>
	</g>
</g>
</svg>
