<?xml version="1.0" encoding="UTF-8" standalone="yes"?><svg xmlns="http://www.w3.org/2000/svg" xmlns:xlink="http://www.w3.org/1999/xlink" id="Layer_1" data-name="Layer 1" viewBox="0 0 2550 3330" style="zoom: 1;"><defs><style><![CDATA[.cls-1 { fill: #47b9aa; } .cls-1, .cls-2, .cls-3, .cls-4, .cls-5, .cls-6, .cls-7, .cls-8, .cls-9, .cls-10, .cls-11, .cls-12, .cls-13, .cls-14, .cls-15, .cls-16, .cls-17, .cls-18, .cls-19, .cls-20, .cls-21, .cls-22, .cls-23, .cls-24, .cls-25, .cls-26, .cls-27, .cls-28, .cls-29, .cls-30, .cls-31, .cls-32, .cls-33, .cls-34, .cls-35, .cls-36, .cls-37, .cls-38, .cls-39, .cls-40, .cls-41, .cls-42, .cls-43, .cls-44, .cls-45, .cls-46, .cls-47, .cls-48, .cls-49, .cls-50, .cls-51 { stroke-width: 0px; } .cls-2 { fill: #92cfa0; } .cls-3 { fill: #a3d288; } .cls-4 { fill: #6a98cb; } .cls-5 { fill: #bce1cb; } .cls-6 { fill: #00bcea; } .cls-7 { fill: #87ca93; } .cls-8 { fill: #74a8aa; } .cls-9 { fill: #c1e0b1; } .cls-52 { clip-path: url(#clippath); } .cls-10 { fill: none; } .cls-11 { fill: #7dd0e0; } .cls-12 { fill: #13487e; } .cls-13 { fill: #32b8d0; } .cls-14 { fill: #6592ad; } .cls-15 { fill: #6589ad; } .cls-16 { fill: #5ac5c6; } .cls-17 { fill: #5f6d78; } .cls-18 { fill: #7db5aa; } .cls-19 { fill: #208bb1; } .cls-20 { fill: #439f71; } .cls-21 { fill: #1d3f75; } .cls-22 { fill: #7ccbba; } .cls-23 { fill: #95d6d7; } .cls-24 { fill: #cee7c6; } .cls-25 { fill: #051C2C; } .cls-53 { clip-path: url(#clippath-1); } .cls-26 { fill: #a9dbd1; } .cls-27 { fill: #0e5681; } .cls-28 { fill: #27777b; } .cls-29 { fill: #1c667f; } .cls-30 { fill: #54b469; } .cls-31 { fill: #32a3af; } .cls-32 { fill: #9fd6c0; } .cls-33 { fill: #69c49f; } .cls-34 { fill: #69a5cd; } .cls-35 { fill: #6783a7; } .cls-36 { fill: #1c5fad; } .cls-37 { fill: #71c1e2; } .cls-38 { fill: #74c164; } .cls-39 { fill: #7cc4cc; } .cls-40 { fill: #b5dba8; } .cls-41 { fill: #87c1a4; } .cls-42 { fill: #a5d49a; } .cls-43 { fill: #6e9dac; } .cls-44 { fill: #fff; } .cls-45 { fill: #9bd3b0; } .cls-46 { fill: #b0dbb9; } .cls-47 { fill: #89d0c8; } .cls-48 { fill: #1473b2; } .cls-49 { fill: #71b5cd; } .cls-50 { fill: #051C2C; } .cls-51 { fill: #348a78; }]]></style><clipPath id="clippath"><rect class="cls-10" x="0" y="-2.12" width="2550" height="3332.12"></rect></clipPath><clipPath id="clippath-1"><path class="cls-10" d="M2642.37,977.58c-38.39-64.99-95.54-139.69-178.37-139.3-32.28,0-63.42,13.14-92.68,37.51-31.03-36.93-69.97-65.72-117.63-65.4h.02s-.02,0-.02,0c-7.61,0-15.16.84-22.63,2.48-4.31-14.75-8.74-29.2-13.32-43.25-24.77-70.29-80.54-219.77-166.8-228.56-.35-.04-.7-.06-1.05-.09-2.16-.19-4.32-.32-6.52-.33-80.92,0-153.78,138.52-204.8,359.8-1.83-.08-3.66-.15-5.52-.14h0,0c-22.31,0-43.97,8.06-64.66,23.17-26.08-61.72-71.58-151.67-138.91-157.7-2.24-.22-4.49-.34-6.75-.34-64.46,0-123.18,89-167.33,234.9-13.46-6.48-27.78-10.12-42.99-10.12h0c-60.05,0-114.78,65.91-156.07,174.11-14.82-7.91-30.85-12.75-48.14-13.59-2.03-.13-4.06-.21-6.1-.21h0c-32.22,0-62.79,16.62-90.29,46.41-29.63-62.19-71.44-116.64-126.97-116.8h-.03c-26.54,0-51.88,14.88-75.09,41.87-25.85-82.51-64.45-164.53-117.31-175.48-3.61-.81-7.24-1.26-10.9-1.26h-.03s0,0,0,0h0c-102.88,0-186.28,322.24-186.28,719.74s83.4,719.73,186.28,719.73h.03-.03c48.48-.19,80.2-60.19,98.71-98.82,10.65-24.69,20.31-50.95,29.07-78.47,23.34,27.34,48.83,42.42,75.55,42.42,28.14,1.28,53.55-15.44,72.68-34.81,22.5-24.41,40.08-52.24,54.46-81.84,27.47,29.69,57.99,46.25,90.16,46.25h0s0,0,0,0c18.94.71,37.66-4.58,54.3-13.63,41.28,108.1,95.99,173.94,156.01,173.94h.02-.02c15.16.59,29.66-3.33,43.04-9.94,44.14,145.81,102.84,234.73,167.27,234.73h.02c10.17.21,20.38-1.85,29.9-5.65,28.81-11.78,50.09-36.29,67.66-61.16,17.26-27.21,32.99-58.03,47.32-91.77,20.92,15.47,42.84,23.71,65.42,23.71,1.86.03,3.71,0,5.54-.06,51.01,221.23,123.87,359.72,204.78,359.72h.08s-.08,0-.08,0c12.56.13,25.15-3,36.48-8.63,54.24-28.96,86.36-95.46,110.84-149.71,14.29-35.66,27.46-73.84,39.55-114.1,7.74,1.76,15.55,2.69,23.44,2.69h.02c20,.61,40.01-5.05,57.72-14.6,23.24-12.7,42.82-30.66,59.85-50.83,29.28,24.39,60.43,37.55,92.73,37.55h.02-.02c39.92,1.24,77.46-19.1,106.19-45.65,85.94-83.03,126.54-201.09,158.28-313.4,88.23-347.61,84.59-833.97-86.1-1155.09"></path></clipPath></defs><g class="cls-52"><rect y="-26.040001px" height="3356.04" class="cls-25" x="-39.630001px" width="2589.63"></rect><circle class="cls-10" cx="1187.66" cy="1623.94" r="252.8"></circle><rect class="cls-10" x="0" width="2550" height="3330"></rect><rect class="cls-10" x="-39.63" y="-4" width="2642.82" height="3364.98"></rect><rect class="cls-10" x="-100.62" y="-63.91" width="2751.24" height="3489.88"></rect><g><polyline class="cls-50" points="2910.56 2890.78 459.01 2890.78 459.01 439.22 2910.56 439.22 2910.56 2890.78"></polyline><g class="cls-53"><path class="cls-50" d="M2642.37,977.58c-38.39-64.99-95.54-139.69-178.37-139.3-32.28,0-63.42,13.14-92.68,37.51-31.03-36.93-69.97-65.72-117.63-65.4h.02s-.02,0-.02,0c-7.61,0-15.16.84-22.63,2.48-4.31-14.75-8.74-29.2-13.32-43.25-24.77-70.29-80.54-219.77-166.8-228.56-.35-.04-.7-.06-1.05-.09-2.16-.19-4.32-.32-6.52-.33-80.92,0-153.78,138.52-204.8,359.8-1.83-.08-3.66-.15-5.52-.14h0,0c-22.31,0-43.97,8.06-64.66,23.17-26.08-61.72-71.58-151.67-138.91-157.7-2.24-.22-4.49-.34-6.75-.34-64.46,0-123.18,89-167.33,234.9-13.46-6.48-27.78-10.12-42.99-10.12h0c-60.05,0-114.78,65.91-156.07,174.11-14.82-7.91-30.85-12.75-48.14-13.59-2.03-.13-4.06-.21-6.1-.21h0c-32.22,0-62.79,16.62-90.29,46.41-29.63-62.19-71.44-116.64-126.97-116.8h-.03c-26.54,0-51.88,14.88-75.09,41.87-25.85-82.51-64.45-164.53-117.31-175.48-3.61-.81-7.24-1.26-10.9-1.26h-.03s0,0,0,0h0c-102.88,0-186.28,322.24-186.28,719.74s83.4,719.73,186.28,719.73h.03-.03c48.48-.19,80.2-60.19,98.71-98.82,10.65-24.69,20.31-50.95,29.07-78.47,23.34,27.34,48.83,42.42,75.55,42.42,28.14,1.28,53.55-15.44,72.68-34.81,22.5-24.41,40.08-52.24,54.46-81.84,27.47,29.69,57.99,46.25,90.16,46.25h0s0,0,0,0c18.94.71,37.66-4.58,54.3-13.63,41.28,108.1,95.99,173.94,156.01,173.94h.02-.02c15.16.59,29.66-3.33,43.04-9.94,44.14,145.81,102.84,234.73,167.27,234.73h.02c10.17.21,20.38-1.85,29.9-5.65,28.81-11.78,50.09-36.29,67.66-61.16,17.26-27.21,32.99-58.03,47.32-91.77,20.92,15.47,42.84,23.71,65.42,23.71,1.86.03,3.71,0,5.54-.06,51.01,221.23,123.87,359.72,204.78,359.72h.08s-.08,0-.08,0c12.56.13,25.15-3,36.48-8.63,54.24-28.96,86.36-95.46,110.84-149.71,14.29-35.66,27.46-73.84,39.55-114.1,7.74,1.76,15.55,2.69,23.44,2.69h.02c20,.61,40.01-5.05,57.72-14.6,23.24-12.7,42.82-30.66,59.85-50.83,29.28,24.39,60.43,37.55,92.73,37.55h.02-.02c39.92,1.24,77.46-19.1,106.19-45.65,85.94-83.03,126.54-201.09,158.28-313.4,88.23-347.61,84.59-833.97-86.1-1155.09"></path><path class="cls-21" d="M781.51,2384.73h0-.03c-102.88,0-186.28-322.24-186.28-719.73h0c0-386.24,78.74-701.42,177.58-718.96,2.88-.51,5.78-.77,8.69-.77h.03s.01,0,.02,0c8.07.34,15.9,2.66,22.96,6.33,7.08,3.7,13.36,8.72,19.05,14.27,11.44,11.11,20.47,24.45,28.43,38.26,15.73,27.84,27.28,57.92,36.98,88.45,4.28,13.41,8.21,26.93,11.84,40.53-69.49,92.38-117.76,295.81-117.76,531.89h0c0,236.07,48.26,439.47,117.74,531.87-3.63,13.61-7.56,27.14-11.85,40.55-9.7,30.53-21.24,60.61-36.96,88.45-7.96,13.81-16.99,27.16-28.43,38.27-5.69,5.55-11.97,10.57-19.05,14.27-7.05,3.68-14.89,6-22.97,6.33,0,0,0,0,0,0"></path><path class="cls-12" d="M984.81,2249.86c-2.06,0-4.11-.09-6.16-.27-.02,0-.03,0-.04,0-.03,0-.06,0-.09,0-.03,0-.06,0-.09,0,0,0-.02,0-.03,0-24.19-2.19-47.31-16.75-68.63-41.53,16.1-50.99,27.76-103.27,37.11-155.81,11.47-63.87,18.77-128.38,24.04-192.98,4.98-64.64,7.18-129.46,7.4-194.26h0c-.25-64.8-2.4-129.62-7.43-194.26-5.25-64.6-12.57-129.11-24.04-192.98-9.34-52.53-21-104.8-37.1-155.79,22.7-26.39,47.44-41.19,73.35-41.82h.01s.09,0,.14,0h.02s.08,0,.12,0h.04s.08,0,.11,0h.05s.08,0,.11,0h.22s.06,0,.09,0h.32s.07,0,.09,0h.42s.01,0,.02,0c13.69.51,26.81,5.23,38.13,12.38,11.43,7.1,21.33,16.35,30.21,26.4,8.77,10.2,16.43,21.29,23.51,32.74,3.4,5.82,6.76,11.66,9.9,17.62,2.97,6.06,6.23,11.95,8.89,18.17,2.87,6.18,5.61,12.42,8.23,18.72-70.57,84.98-118.92,258.53-118.92,458.83h0c0,200.28,48.33,373.82,118.9,458.82-2.62,6.3-5.36,12.54-8.23,18.72-2.66,6.22-5.92,12.11-8.89,18.17-3.14,5.96-6.49,11.8-9.89,17.62-7.06,11.45-14.74,22.54-23.5,32.74-8.88,10.05-18.77,19.31-30.2,26.4-11.33,7.16-24.46,11.89-38.16,12.39h-.02"></path><path class="cls-36" d="M900.76,2196.87c-69.48-92.39-117.74-295.8-117.74-531.87s48.27-439.51,117.76-531.89c4.64,17.4,8.79,34.93,12.56,52.55,6.72,31.4,12.48,63.02,17.29,94.79,9.44,63.57,16.27,127.55,20.35,191.74,4.15,61.91,6.22,123.97,6.22,186.04,0,2.26,0,4.52-.01,6.78h0c0,1.76,0,3.52,0,5.28,0,62.56-2.02,125.14-6.25,187.54-4.06,64.18-10.91,128.17-20.35,191.74-4.81,31.77-10.56,63.39-17.29,94.79-3.78,17.61-7.92,35.14-12.55,52.53"></path><path class="cls-27" d="M1202.11,2179.46h-.44s-.08,0-.11,0h-.37s-.05,0-.07,0h-.18s-.08,0-.12,0h-.19s-.04,0-.06,0h-.18s-.09,0-.14,0h-.04c-.06,0-.11,0-.17,0h0c-31.4-.7-61.21-17.18-88.08-46.23,0,0,0,0,0,.02-.06-.06-.11-.11-.16-.17,21.6-45.05,36.8-92.85,48.81-141.12,6.65-26.7,12.08-53.67,16.63-80.78,4.12-23.94,7.42-48.01,10.2-72.12,11.54,125.69,35.29,236.94,67.33,322.48-5.32,3.51-10.91,6.62-16.8,9.13-11.21,5.02-23.36,8.17-35.86,8.83"></path><path class="cls-27" d="M1187.42,1491.06c-5.85-51.45-14.57-102.58-26.86-152.99-12-48.27-27.2-96.05-48.8-141.1.01-.02.03-.03.04-.05,0,0,0,.02,0,.02,26.91-29.14,56.75-45.68,88.21-46.38h.04s.09,0,.14,0h.06s.09,0,.12,0h.06s.08,0,.12,0h.18s.05,0,.08,0h.29s.06,0,.08,0h.36s.07,0,.11,0h.44c12.5.66,24.65,3.81,35.86,8.82,5.89,2.5,11.48,5.61,16.8,9.13-32.06,85.55-55.81,196.84-67.35,322.58"></path><path class="cls-48" d="M1103.71,2123.81c-70.56-84.99-118.9-258.53-118.9-458.82s48.34-373.85,118.92-458.83c7.76,18.63,14.46,37.73,20.39,57.05,7.9,25.87,14.74,52.08,20.44,78.56,11.12,53.01,19.28,106.7,24.06,160.72,5.08,53.35,7.42,106.98,7.42,160.6v1.91h0v.64c0,54.04-2.28,108.09-7.45,161.86-4.77,54.02-12.96,107.7-24.07,160.72-5.71,26.48-12.53,52.69-20.44,78.55-5.92,19.32-12.62,38.41-20.37,57.04"></path><path class="cls-29" d="M1412.43,2339.77c-6.96,0-13.86-.89-20.67-2.62t-.02,0c-.05-.01-.11-.03-.16-.04,0,0-.02,0-.02,0-.03,0-.07-.02-.1-.03-51.75-13.39-98.63-75.87-135.05-171.24,0,0,0,0,0,0h0c5.57-3.1,10.92-6.61,16.07-10.36,20.6-15.02,37.25-34.68,51.74-55.38,28.67-41.9,48.44-89.02,63.56-137.04.15-.48.31-.97.45-1.45,13.6,141.15,36.63,266.21,66.37,365.36-12.7,7.48-27.15,12.34-42.15,12.8h-.02,0,0,0,0s0,0,0,0"></path><path class="cls-29" d="M1388.22,1368.48c-.16-.51-.32-1.02-.48-1.52-15.11-48.03-34.9-95.13-63.56-137.04-14.49-20.71-31.13-40.36-51.73-55.39-5.14-3.74-10.49-7.26-16.06-10.35,39.15-102.51,90.37-167.02,146.73-173.42h0c.06,0,.11-.02.17-.02h0c.06,0,.11-.02.17-.02h.01c.45-.05.9-.1,1.35-.14.02,0,.02,0,.04,0,.04,0,.09,0,.13-.01.02,0,.03,0,.05,0,.04,0,.08,0,.12-.01.02,0,.05,0,.06,0,.03,0,.08,0,.11-.01.02,0,.04,0,.06,0,.03,0,.08,0,.11-.01.03,0,.05,0,.08,0,.03,0,.07,0,.1,0s.05,0,.08,0c.04,0,.07,0,.1,0,.03,0,.05,0,.08,0,.03,0,.06,0,.1,0,.02,0,.06,0,.08,0,.03,0,.06,0,.09,0,.03,0,.06,0,.09,0,.03,0,.05,0,.08,0,.03,0,.07,0,.1,0,.03,0,.06,0,.08,0,.03,0,.06,0,.09,0,.03,0,.06,0,.09,0,.03,0,.06,0,.09,0,.03,0,.06,0,.08,0,.06,0,.12,0,.18-.01h.03c.05,0,.1,0,.16-.01.02,0,.04,0,.06,0,.04,0,.08,0,.12,0,.03,0,.04,0,.07,0,.04,0,.08,0,.12,0,.02,0,.04,0,.06,0,.04,0,.08,0,.12,0,.02,0,.04,0,.06,0,.04,0,.08,0,.12,0,.02,0,.05,0,.07,0,.04,0,.07,0,.11,0,.02,0,.05,0,.07,0,.05,0,.07,0,.12,0,.02,0,.04,0,.06,0,.05,0,.08,0,.12,0,.02,0,.04,0,.06,0,.04,0,.08,0,.12,0,.02,0,.04,0,.06,0,.04,0,.09,0,.13,0,.02,0,.03,0,.05,0,.04,0,.09,0,.14,0h.05c.06,0,.11,0,.16,0h.02c.05,0,.11,0,.17,0,0,0,.01,0,.02,0,.13,0,.25,0,.37-.01h.03c.06,0,.09,0,.15,0h.05s.09,0,.13,0c.02,0,.04,0,.06,0,.04,0,.08,0,.12,0h.06s.08,0,.12,0h.07s.08,0,.12,0h.18s.05,0,.08,0h.18s.07,0,.11,0h.18s.05,0,.07,0h.73c15.01.46,29.47,5.31,42.18,12.79-29.74,99.18-52.78,224.28-66.38,365.46"></path><path class="cls-19" d="M1254.77,2161.5c-32.05-85.54-55.8-196.79-67.33-322.48.37-3.18.72-6.35,1.07-9.53,5.86-54.65,8.33-109.58,8.66-164.5h0c-.25-58.04-3.18-116.19-9.74-173.94,11.54-125.74,35.29-237.03,67.35-322.58,4.92,3.25,9.61,6.84,14.09,10.62,18.78,15.81,33.88,35.55,46.69,56.46,12.92,20.9,23.66,43.14,32.82,66,9.14,22.88,17.02,46.28,23.62,70.07,4.38,15.76,8.27,31.66,11.8,47.64-6.11,78.09-9.37,160.55-9.37,245.72h0c0,85.15,3.26,167.56,9.37,245.63-3.54,16.01-7.44,31.93-11.82,47.72-6.59,23.78-14.47,47.19-23.62,70.06-9.16,22.86-19.9,45.11-32.82,66-12.81,20.91-27.91,40.65-46.68,56.46-4.49,3.78-9.17,7.38-14.09,10.63"></path><path class="cls-28" d="M1622.74,2564.56h-.67s-.08,0-.11,0h-.19s-.06,0-.09,0h-.11s-.06,0-.09,0h-.1s-.06,0-.09,0h-.11s-.06,0-.09,0h-.1s-.06,0-.09,0-.07,0-.1,0h-.09s-.07,0-.11,0c-.03,0-.06,0-.09,0-.03,0-.07,0-.11,0-.03,0-.06,0-.09,0-.03,0-.07,0-.11,0-.03,0-.06,0-.09,0-.03,0-.07,0-.1,0-.03,0-.06,0-.09,0-.04,0-.07,0-.11,0-.03,0-.06,0-.08,0-.03,0-.05,0-.09,0-.08,0-.15,0-.23,0-.02,0-.05,0-.07,0-.04,0-.07,0-.11,0-.03,0-.06,0-.08,0-.03,0-.07,0-.11,0-.03,0-.06,0-.09,0-.04,0-.07,0-.11,0-.03,0-.05,0-.08,0-.03,0-.08,0-.11,0-.02,0-.05,0-.08,0-.04,0-.08,0-.12,0-.02,0-.05,0-.07,0-.04,0-.08,0-.12,0-.03,0-.05,0-.08,0-.04,0-.08,0-.12,0-.02,0-.05,0-.07,0-.04,0-.08,0-.12,0-.03,0-.05,0-.07,0-.05,0-.08,0-.12,0-.03,0-.04,0-.07,0-.04,0-.09,0-.12-.01-.02,0-.05,0-.06,0-.04,0-.09,0-.13-.01-.02,0-.03,0-.05,0-.05,0-.1,0-.14-.01-.02,0-.02,0-.04,0-.05,0-.11,0-.16-.01h0c-.37-.03-.74-.06-1.11-.1h-.02c-.06,0-.11-.01-.17-.02h-.02s-.11-.01-.16-.02c-.02,0-.01,0-.03,0-.05,0-.11-.01-.16-.01,0,0-.02,0-.03,0-.05,0-.11-.01-.16-.02h-.03c-.06,0-.11-.02-.17-.02,0,0-.01,0-.02,0-.06,0-.11-.01-.17-.02,0,0,0,0-.01,0-.06,0-.12-.01-.18-.02h0c-61.17-7.26-116.73-94.66-158.97-234.15.9-.45,1.8-.91,2.69-1.38,14.13-7.5,26.63-17.79,37.78-29.19,22.3-22.98,39.38-50.3,54.21-78.38,25.51-49.59,43.69-102.41,57.97-156.06,34.14,160.97,88.26,282.48,152.37,335.5-12.21,32.67-26.54,64.61-45.07,94.1-10.78,16.98-23.18,33.1-38.34,46.35-7.57,6.6-15.92,12.38-25.08,16.59-9.13,4.22-19.1,6.8-29.28,7.12h0"></path><path class="cls-28" d="M1608.12,1265.16c-14.29-53.67-32.46-106.51-57.98-156.12-7.4-14.08-15.36-27.89-24.3-41.09-8.94-13.18-18.7-25.89-29.9-37.29-11.14-11.41-23.64-21.7-37.77-29.19-.89-.47-1.78-.93-2.68-1.38,44.13-145.77,102.82-234.65,167.25-234.65h0c10.18.32,20.15,2.9,29.29,7.12,9.16,4.21,17.51,9.99,25.08,16.59,15.16,13.25,27.56,29.37,38.34,46.35,18.53,29.48,32.86,61.41,45.07,94.09-64.11,53.03-118.26,174.59-152.4,335.59"></path><path class="cls-31" d="M1454.6,2326.97c-29.74-99.16-52.77-224.22-66.37-365.36,29.87-95.96,41.22-196.61,41.74-296.61h0c-.54-99.97-11.89-200.59-41.75-296.52,13.6-141.18,36.63-266.28,66.38-365.46.67.4,1.34.8,2.01,1.21,13.29,8.08,24.86,18.7,35.06,30.39,20.4,23.49,36.03,50.8,49.22,79,13.25,28.23,24.1,57.6,33.33,87.44,9.2,29.87,17.12,60.14,23.75,90.71.85,3.97,1.68,7.95,2.5,11.93-19.94,107.6-31.25,230.61-31.25,361.3h0c0,130.64,11.3,253.65,31.23,361.21-.82,4.01-1.66,8.01-2.52,12.01-6.63,30.57-14.53,60.85-23.75,90.71-9.23,29.85-20.07,59.22-33.33,87.44-13.18,28.2-28.8,55.52-49.2,79-10.2,11.69-21.76,22.31-35.05,30.39-.66.41-1.33.81-2.01,1.21"></path><path class="cls-13" d="M1383.79,1910.63c-6.1-78.07-9.37-160.49-9.37-245.63s3.27-167.63,9.37-245.72c1.8,8.13,3.5,16.28,5.12,24.45,4.62,24.27,8.32,48.72,11.27,73.25,2.93,24.55,5.11,49.18,6.62,73.86,1.46,24.69,1.98,49.42,2.05,74.16-.09,24.73-.59,49.47-2.06,74.16-1.51,24.68-3.67,49.32-6.63,73.86-2.95,24.54-6.65,48.99-11.27,73.26-1.62,8.14-3.31,16.26-5.1,24.36"></path><path class="cls-51" d="M1833.05,2429.69h0c-22.27,0-43.9-8.01-64.56-23.08,2.53-6.03,4.99-12.1,7.39-18.17,13.21-34.41,24.44-69.49,34.17-104.96,8.49,51.77,18.02,100.59,28.46,145.9-1.81.16-3.63.27-5.45.31"></path><path class="cls-51" d="M1810.04,1046.59c-9.73-35.5-20.96-70.59-34.18-105.02-2.4-6.06-4.85-12.12-7.38-18.15,19.03-13.88,38.89-21.8,59.32-22.96.05,0,.08,0,.14,0h.02c1.7-.09,3.4-.14,5.11-.14h.02c1.82.05,3.63.15,5.43.31-10.45,45.33-19.98,94.17-28.47,145.97"></path><path class="cls-1" d="M1760.5,2400.41c-64.1-53.02-118.23-174.53-152.37-335.5,2.04-7.64,3.99-15.3,5.88-22.97,15.19-61.6,25.03-124.34,31.95-187.29,6.61-63.01,9.63-126.34,9.84-189.65h0c-.47-126.54-11.94-253.57-41.82-376.93-1.88-7.65-3.83-15.29-5.86-22.91,34.14-161,88.29-282.56,152.4-335.59,1.93,5.18,3.82,10.37,5.66,15.58,13.42,38.13,24.32,77.14,33.64,116.52,1.59,6.76,3.14,13.53,4.65,20.3-25.66,170-40.44,369.57-40.44,583.02h0c0,213.42,14.78,412.97,40.43,582.95-1.52,6.8-3.07,13.59-4.66,20.37-9.32,39.37-20.21,78.39-33.64,116.52-1.84,5.21-3.72,10.4-5.65,15.58"></path><path class="cls-16" d="M1600.45,2026.21c-19.93-107.57-31.23-230.57-31.23-361.21s11.3-253.7,31.25-361.3c11.78,57.31,20.27,115.33,25.6,173.64,5.73,60.64,8.61,121.58,8.61,182.52,0,1.71,0,3.43,0,5.14h0c0,1.47,0,2.94,0,4.4,0,61.19-2.84,122.37-8.63,183.25-5.31,58.29-13.82,116.27-25.59,173.56"></path><path class="cls-20" d="M2043.37,2789.35c-6.82,0-13.57-.98-20.26-2.91,0,0-.02,0-.02,0-.03,0-.05-.02-.08-.02-.02,0-.04-.01-.05-.02-.02,0-.03,0-.05-.01-.03-.01-.06-.02-.09-.03h0c-72.63-21.27-137.55-154.38-184.2-356.66,16.04-.48,31.94-5.3,46.19-12.93,15.96-8.54,30.06-20.21,42.63-33.16,12.63-12.95,23.63-27.35,33.71-42.29,10.08-14.96,19.06-30.61,27.39-46.58,14.4-28.14,26.72-57.19,37.44-86.81,47.46,167.02,116.36,280.91,194.49,306.31-3.95,14.38-8.13,28.7-12.55,42.94-7.37,23.88-15.38,47.58-24.61,70.79-9.22,23.2-19.41,46.06-31.5,67.88-12.06,21.78-25.94,42.78-43.4,60.55-8.7,8.87-18.39,16.86-29.29,22.9-10.89,5.99-23.15,9.63-35.7,10.04h-.02.06s-.06,0-.06,0h.06s-.06,0-.06,0h-.02"></path><path class="cls-20" d="M2025.95,1122.12c-10.73-29.64-23.05-58.7-37.45-86.85-8.33-15.96-17.3-31.62-27.38-46.58-10.07-14.94-21.08-29.34-33.71-42.29-12.56-12.94-26.66-24.63-42.62-33.16-14.25-7.63-30.15-12.45-46.19-12.94,50.59-219.35,122.66-357.35,202.75-359.62h0s.07,0,.11,0h.01s.07,0,.1,0c.01,0,.03,0,.04,0,.03,0,.05,0,.08,0,0,0,.03,0,.04,0,.03,0,.05,0,.07,0,.01,0,.04,0,.05,0,.03,0,.05,0,.08,0,0,0,.03,0,.04,0,.03,0,.05,0,.08,0,.02,0,.03,0,.05,0,.02,0,.05,0,.07,0,.02,0,.03,0,.05,0,.02,0,.05,0,.06,0,.02,0,.03,0,.05,0,.02,0,.05,0,.07,0,.02,0,.03,0,.05,0,.03,0,.04,0,.07,0,.02,0,.03,0,.05,0,.03,0,.04,0,.06,0,.01,0,.05,0,.05,0,.02,0,.04,0,.06,0,.03,0,.03,0,.06,0,.02,0,.04,0,.06,0,.02,0,.03,0,.05,0,.02,0,.04,0,.06,0h.06s.05,0,.06,0,.03,0,.05,0h.11s.08,0,.12,0h0c12.56.41,24.84,4.04,35.74,10.04,10.9,6.05,20.6,14.03,29.3,22.9,17.46,17.77,31.34,38.77,43.4,60.55,12.1,21.82,22.29,44.68,31.51,67.88,9.23,23.21,17.24,46.91,24.61,70.79,4.42,14.24,8.59,28.56,12.55,42.94-78.16,25.38-147.07,139.29-194.54,306.37"></path><path class="cls-33" d="M1838.5,2429.37c-10.44-45.31-19.97-94.13-28.46-145.9,11.88-43.32,21.54-87.25,29.86-131.33,15.19-80.24,24.97-161.38,31.9-242.66,6.61-81.33,9.58-162.91,9.81-244.49h0c-.47-163.07-11.91-326.52-41.75-487.14-8.32-44.06-17.97-87.97-29.84-131.27,8.49-51.8,18.02-100.63,28.47-145.97,15.96,1.42,31.26,7.1,44.73,15.37,15.11,9.12,28.28,21.13,39.91,34.36,23.25,26.58,41.05,57.54,56.11,89.49,15.11,32,27.48,65.28,38.03,99.11.73,2.33,1.44,4.65,2.15,6.99-38.01,143.9-60.6,323.83-60.6,519.06h0c0,195.2,22.58,375.12,60.58,519-.72,2.35-1.43,4.69-2.16,7.03-10.55,33.83-22.91,67.12-38.03,99.11-15.05,31.95-32.85,62.9-56.09,89.49-11.62,13.23-24.78,25.24-39.9,34.36-13.46,8.27-28.76,13.96-44.72,15.38"></path><path class="cls-22" d="M1804.46,2247.95c-25.65-169.98-40.43-369.53-40.43-582.95s14.78-413.03,40.44-583.02c7.3,32.73,13.71,65.66,19.23,98.75,13.14,79.92,22.46,160.49,28.19,241.33,5.78,78.92,8.63,158.08,8.62,237.24,0,1.9,0,3.8,0,5.7h0c0,1.58,0,3.17,0,4.75,0,79.48-2.8,158.95-8.65,238.19-5.71,80.84-15.06,161.4-28.19,241.32-5.52,33.07-11.91,65.98-19.21,98.69"></path><path class="cls-30" d="M2253.68,2519.6h-.58c-7.27-.04-14.48-.87-21.62-2.41,18.92-62.98,33.67-127.11,45.84-191.68,26.63,53.48,56.59,95.8,88.9,124.35-3.73,4.79-7.61,9.47-11.62,14.04-13.04,14.77-27.81,28.18-44.76,38.33-16.8,10.25-36.15,16.91-56.16,17.38h0"></path><path class="cls-7" d="M2220.46,2514.24c-78.14-25.39-147.04-139.29-194.49-306.31,13.75-37.97,24.89-76.88,34.46-116.01,33.61-139.74,46.55-283.6,47.02-426.92h0c-.5-143.32-13.43-287.17-47.05-426.91-9.57-39.12-20.7-78.01-34.45-115.97,47.46-167.07,116.37-280.99,194.54-306.37,9.3,33.84,17.39,68.03,24.61,102.39,7.72,36.78,14.57,73.73,20.62,110.83-68.47,151.64-112.08,380.29-112.08,636.03h0c0,255.71,43.59,484.34,112.06,635.98-6.05,37.11-12.89,74.09-20.63,110.88-7.22,34.36-15.3,68.54-24.6,102.38"></path><path class="cls-45" d="M2019.41,2184c-38-143.88-60.58-323.8-60.58-519s22.59-375.16,60.6-519.06c9.6,31.58,17.9,63.57,24.96,95.85,14.97,69.37,25.57,139.7,32.1,210.41,6.57,69.04,9.84,138.42,9.84,207.8,0,1.66,0,3.33,0,4.99h0c0,1.39,0,2.77,0,4.16,0,69.66-3.22,139.31-9.86,208.63-6.52,70.72-17.15,141.04-32.1,210.41-7.06,32.26-15.34,64.24-24.95,95.8"></path><path class="cls-30" d="M2277.3,1004.53c-12.17-64.59-26.92-128.75-45.85-191.74,4.88-1.06,9.81-1.77,14.75-2.13t.02,0c.05,0,.1,0,.15-.01.04,0,.07,0,.11,0,.03,0,.05,0,.08,0,2.37-.16,4.74-.24,7.12-.24h.02s-.01,0-.01,0h0,.02s-.01,0-.01,0h.02c20.01.47,39.34,7.13,56.14,17.37,16.95,10.15,31.72,23.56,44.76,38.32,4.02,4.57,7.89,9.25,11.63,14.04-32.33,28.56-62.31,70.9-88.94,124.4"></path><path class="cls-38" d="M2464,2491.72c-4.01,0-8.01-.2-11.98-.61-.01,0-.02,0-.03,0-.07,0-.14-.02-.21-.02-.03,0-.05,0-.08,0-.05,0-.09,0-.14-.02-.05,0-.1,0-.14-.02-.02,0-.03,0-.05,0-27.79-2.97-54.63-15.67-80.07-36.86,9.05-10.68,17.34-22,25.14-33.6,11.22-16.72,21.2-34.22,30.46-52.06,36.55-71.74,61.01-148.79,79.96-226.63,37.35-156.11,51.74-316.81,52.25-476.9h0c-.54-160.09-14.93-320.78-52.28-476.89-18.95-77.83-43.41-154.88-79.95-226.62-9.27-17.84-19.25-35.34-30.46-52.06-7.79-11.61-16.09-22.93-25.14-33.61,0,0,.03-.02.04-.03,0,0,0,0,0,.01,28.18-23.46,58.08-36.51,89.07-37.45h.03c.05,0,.11,0,.16,0h.05c.16,0,.32-.01.48-.02h.08s.09,0,.13,0c.03,0,.06,0,.09,0h.12s.08,0,.13,0c.05,0,.11,0,.16,0h.13s.06,0,.1,0h.13s.06,0,.09,0h.18s.06,0,.09,0h.25c.05,0,.11,0,.16,0h.32c.06,0,.14,0,.2,0h.53c19.63.54,38.74,6.17,55.88,15.17,8.62,4.43,16.75,9.76,24.45,15.62,7.7,5.86,15.02,12.22,21.84,19.09,27.44,27.41,48.95,60.21,67.18,94.41,18.21,34.3,33.25,70.26,46.11,106.94,12.81,36.72,23.86,74.07,33.06,111.9,18.35,75.67,31.18,152.68,39.24,230.18,8.07,75.97,12.05,152.4,12.05,228.83,0,1.52,0,3.05,0,4.57h0c0,1.22,0,2.44,0,3.65,0,76.73-3.93,153.47-12.07,229.74-8.04,77.5-20.91,154.51-39.24,230.18-9.2,37.83-20.24,75.18-33.06,111.89-12.87,36.69-27.89,72.65-46.11,106.94-18.22,34.2-39.72,67-67.16,94.41-6.82,6.87-14.14,13.23-21.84,19.1-7.7,5.86-15.82,11.2-24.44,15.62-17.12,9-36.23,14.64-55.85,15.18h-.02.01-.01.01-.01s0,0,0,0"></path><path class="cls-3" d="M2366.22,2449.86c-32.32-28.55-62.28-70.87-88.9-124.35,3.69-19.59,7.15-39.24,10.41-58.89,32.57-198.84,45.08-400.41,45.54-601.62h0c-.49-201.22-13-402.79-45.57-601.62-3.26-19.64-6.72-39.27-10.4-58.85,26.63-53.5,56.61-95.84,88.94-124.4,20.55,26.32,37.06,55.73,51.37,85.93,16.97,35.76,30.86,72.97,42.73,110.78,11.83,37.84,21.94,76.22,30.47,114.97,16.85,77.54,28.73,156.18,36.11,235.25,7.42,77.51,11.07,155.39,11.07,233.28,0,1.55,0,3.1,0,4.65h0c0,1.24,0,2.48,0,3.72,0,78.2-3.61,156.4-11.1,234.21-7.36,79.07-19.26,157.71-36.11,235.25-8.53,38.75-18.63,77.14-30.47,114.97-11.86,37.81-25.75,75.03-42.72,110.78-14.31,30.21-30.81,59.62-51.36,85.94"></path><path class="cls-40" d="M2265.69,2300.98c-68.46-151.64-112.06-380.27-112.06-635.98s43.61-484.39,112.08-636.03c2.01,12.31,3.92,24.63,5.75,36.97,14.54,99.06,24.8,198.78,31.15,298.74,6.44,98,9.55,196.23,9.54,294.45,0,1.96,0,3.92,0,5.87h0c0,1.57,0,3.13,0,4.7,0,98.62-3.05,197.24-9.56,295.63-6.33,99.97-16.62,199.67-31.15,298.74-1.83,12.32-3.74,24.63-5.75,36.92"></path><path class="cls-17" d="M781.55,2384.74h-.05,0s0,0,0,0c47.52-.03,90.89-68.83,123.79-182.02,1.31,1.63,2.62,3.21,3.94,4.76-8.74,27.47-18.39,53.69-29.01,78.34-.02.03-.03.06-.05.09-.03.06-.06.12-.08.18-5.76,12.02-12.8,26.09-21.22,39.78-.63,1.01-1.27,2.02-1.93,3.03-8.9,13.65-18.86,26.83-31.28,37.58-3.2,2.74-6.57,5.32-10.1,7.63-10.29,6.56-21.61,10.55-34.04,10.62M905.31,1127.29c-29.82-102.59-68.23-168.71-110.54-180.22,13.59,3.39,26.23,11.47,37.93,23.04,9.25,9.35,17.09,20.02,24.25,31,8.85,13.73,16.4,28.22,23.22,42.99,6.66,14.35,12.61,29.01,18.07,43.83,4.07,11.22,7.9,22.64,11.47,34.06-1.48,1.72-2.94,3.48-4.4,5.3"></path><path class="cls-35" d="M781.51,2384.73c8.07-.34,15.91-2.66,22.97-6.33,7.08-3.7,13.36-8.72,19.05-14.27,11.44-11.11,20.47-24.46,28.43-38.27,15.72-27.84,27.27-57.92,36.96-88.45,4.29-13.41,8.22-26.94,11.85-40.55,1.5,2,3.02,3.95,4.54,5.85-32.9,113.19-76.28,181.99-123.79,182.02M900.78,1133.11c-3.63-13.61-7.56-27.13-11.84-40.53-9.7-30.52-21.25-60.6-36.98-88.45-7.96-13.81-16.99-27.16-28.43-38.26-5.69-5.55-11.98-10.57-19.05-14.27-7.05-3.67-14.89-5.99-22.96-6.33,3.65,0,7.28.46,10.88,1.26.79.16,1.57.34,2.36.54,42.31,11.51,80.71,77.63,110.54,180.22-1.52,1.89-3.03,3.83-4.52,5.82"></path><path class="cls-15" d="M909.77,2208.04c-.17-.2-.34-.4-.51-.6,0,.01,0,.02-.01.03-1.32-1.55-2.63-3.13-3.94-4.76,38.32-131.83,62.45-323.87,62.45-537.71h0c0-213.84-24.13-405.89-62.45-537.71,1.46-1.82,2.92-3.58,4.4-5.3,0,.01,0,.02,0,.03.01-.01.02-.03.03-.04,16.1,50.99,27.76,103.26,37.1,155.79,11.47,63.87,18.79,128.37,24.04,192.98,5.03,64.64,7.18,129.46,7.43,194.26-.22,64.8-2.42,129.62-7.4,194.26-5.27,64.6-12.56,129.11-24.04,192.98-9.34,52.54-21,104.81-37.11,155.81"></path><path class="cls-4" d="M905.31,2202.71c-1.52-1.9-3.04-3.85-4.54-5.85,4.63-17.39,8.78-34.92,12.55-52.53,6.73-31.39,12.47-63.02,17.29-94.79,9.44-63.57,16.29-127.55,20.35-191.74,4.22-62.4,6.25-124.98,6.25-187.54,0-1.76,0-3.52,0-5.28,0-2.26.01-4.52.01-6.78,0-62.07-2.07-124.13-6.22-186.04-4.07-64.18-10.9-128.17-20.35-191.74-4.81-31.77-10.57-63.39-17.29-94.79-3.78-17.61-7.93-35.15-12.56-52.55,1.5-1.99,3.01-3.93,4.52-5.82,38.32,131.82,62.45,323.87,62.45,537.71s-24.13,405.88-62.45,537.71"></path><path class="cls-17" d="M987.61,2249.92c-.93,0-1.86-.02-2.8-.06h.02c46.29-.02,88.95-45.22,123-121.22,1.31,1.5,2.64,2.97,3.96,4.41-2.27,4.73-4.6,9.42-7.01,14.09-1.82,3.46-3.68,6.9-5.6,10.32-11.75,20.55-25.42,39.94-41.65,57.55-.01.01-.02.02-.03.03-6.43,6.39-13.29,12.42-20.7,17.65-8.54,5.97-17.79,10.87-27.57,13.9-7.04,2.14-14.33,3.33-21.62,3.33M1107.83,1201.35c-33.38-74.51-75.04-119.42-120.29-121.16,17.59.61,33.78,6.68,48.63,16.69,7.65,5.33,14.71,11.51,21.31,18.08,19.32,19.97,34.46,43.5,47.27,67.91,2.41,4.67,4.75,9.37,7.02,14.1-1.32,1.43-2.64,2.89-3.94,4.38"></path><path class="cls-15" d="M984.83,2249.86c13.7-.51,26.83-5.23,38.16-12.39,11.43-7.1,21.33-16.35,30.2-26.4,8.76-10.2,16.43-21.28,23.5-32.74,3.4-5.81,6.76-11.66,9.89-17.62,2.97-6.06,6.23-11.95,8.89-18.17,2.87-6.18,5.61-12.43,8.23-18.72,1.36,1.64,2.74,3.26,4.12,4.83-34.05,75.99-76.71,121.2-123,121.22M1103.73,1206.17c-2.62-6.3-5.36-12.54-8.23-18.72-2.66-6.22-5.92-12.11-8.89-18.17-3.14-5.96-6.5-11.8-9.9-17.62-7.07-11.44-14.74-22.54-23.51-32.74-8.88-10.05-18.78-19.3-30.21-26.4-11.32-7.15-24.44-11.87-38.13-12.38.89,0,1.79.02,2.68.05,45.25,1.74,86.91,46.66,120.29,121.16-1.37,1.57-2.74,3.18-4.1,4.81"></path><path class="cls-14" d="M1111.79,2133.05c-1.32-1.43-2.65-2.91-3.96-4.41,38.12-85.08,65.45-208.78,75.02-350.88,1.21,20.75,2.74,41.19,4.58,61.26-2.79,24.12-6.09,48.18-10.2,72.12-4.56,27.11-9.98,54.09-16.63,80.78-12.01,48.27-27.21,96.06-48.81,141.12"></path><path class="cls-14" d="M1182.85,1552.23c-9.58-142.1-36.91-265.8-75.02-350.88,1.31-1.49,2.62-2.95,3.94-4.38,21.59,45.05,36.79,92.83,48.8,141.1,12.29,50.41,21.01,101.54,26.86,152.99-1.84,20.04-3.37,40.44-4.57,61.17"></path><path class="cls-34" d="M1107.83,2128.65c-1.38-1.57-2.76-3.19-4.12-4.83,7.75-18.63,14.45-37.72,20.37-57.04,7.91-25.86,14.74-52.08,20.44-78.55,11.11-53.02,19.3-106.7,24.07-160.72,5.17-53.77,7.45-107.82,7.45-161.86v-2.54c0-53.62-2.33-107.24-7.42-160.6-4.78-54.02-12.94-107.71-24.06-160.72-5.71-26.48-12.55-52.69-20.44-78.56-5.93-19.32-12.63-38.42-20.39-57.05,1.36-1.63,2.73-3.25,4.1-4.81,38.12,85.08,65.45,208.78,75.02,350.88-2.13,36.66-3.23,74.35-3.23,112.77h0c0,38.42,1.11,76.1,3.23,112.77-9.58,142.1-36.91,265.8-75.02,350.88"></path><path class="cls-49" d="M1187.43,1839.03c-1.84-20.07-3.37-40.51-4.58-61.26,2.46-36.5,3.75-74.19,3.75-112.77h0c0-38.58-1.29-76.27-3.75-112.77,1.2-20.73,2.73-41.12,4.57-61.17,6.56,57.74,9.48,115.89,9.74,173.94-.33,54.91-2.8,109.85-8.66,164.5-.35,3.18-.71,6.35-1.07,9.53"></path><path class="cls-37" d="M1182.85,1777.77c-2.13-36.66-3.23-74.35-3.23-112.77s1.11-76.1,3.23-112.77c2.46,36.5,3.75,74.19,3.75,112.77s-1.29,76.27-3.75,112.77"></path><path class="cls-17" d="M1205.16,2179.51c-1.02,0-2.03-.02-3.05-.05h0c18.46,0,36.39-5.46,53.5-15.71.26.7.53,1.4.79,2.09-.06.03-.11.06-.17.1-8.73,4.73-18.03,8.42-27.63,10.75-7.71,1.84-15.59,2.82-23.45,2.82M1255.61,1166.25c-14.98-8.98-30.6-14.28-46.63-15.46,16.99.93,32.77,5.75,47.36,13.54-.24.64-.48,1.28-.73,1.92M1202.11,1150.54h0s0,0,0,0"></path><path class="cls-14" d="M1202.11,2179.46h0c12.5-.67,24.65-3.82,35.86-8.83,5.89-2.5,11.48-5.61,16.8-9.13.28.76.56,1.49.85,2.25-17.11,10.26-35.04,15.71-53.5,15.71"></path><path class="cls-14" d="M1254.77,1168.48c-5.32-3.51-10.91-6.62-16.8-9.13-11.21-5.01-23.37-8.16-35.86-8.82,0,0,0,0,0,0h0c2.04,0,4.07.08,6.1.21.26.02.51.03.77.04,16.04,1.18,31.65,6.48,46.63,15.46-.28.74-.56,1.49-.84,2.24"></path><path class="cls-43" d="M1256.4,2165.84c-.26-.69-.53-1.39-.79-2.09,54.75-32.81,101.21-114.81,130.51-225,.67,7.65,1.38,15.3,2.11,22.86-.15.48-.3.97-.45,1.45-15.12,48.02-34.9,95.14-63.56,137.04-14.49,20.71-31.14,40.36-51.74,55.38-5.15,3.75-10.49,7.26-16.07,10.35"></path><path class="cls-43" d="M1386.13,1391.25c-29.3-110.19-75.76-192.19-130.51-225,.24-.64.48-1.28.73-1.92,0,0,0,0,0,0,.02-.05.04-.11.06-.16,5.57,3.09,10.91,6.61,16.06,10.35,20.6,15.02,37.24,34.68,51.73,55.39,28.66,41.9,48.44,89.01,63.56,137.04.16.51.32,1.02.48,1.52-.73,7.53-1.43,15.15-2.1,22.78"></path><path class="cls-49" d="M1255.61,2163.75c-.29-.75-.56-1.49-.85-2.25,4.91-3.25,9.6-6.84,14.09-10.63,18.77-15.81,33.86-35.55,46.68-56.46,12.92-20.89,23.65-43.14,32.82-66,9.15-22.87,17.02-46.28,23.62-70.06,4.38-15.79,8.28-31.72,11.82-47.72.74,9.45,1.52,18.79,2.34,28.12-29.3,110.19-75.76,192.19-130.51,225M1383.79,1419.28c-3.53-15.98-7.42-31.88-11.8-47.64-6.59-23.78-14.48-47.18-23.62-70.07-9.16-22.86-19.91-45.1-32.82-66-12.82-20.91-27.92-40.65-46.69-56.46-4.49-3.78-9.17-7.37-14.09-10.62.28-.74.56-1.5.84-2.24,54.75,32.81,101.21,114.81,130.51,225-.82,9.3-1.59,18.6-2.33,28.03"></path><path class="cls-39" d="M1388.23,1961.61c-.73-7.56-1.43-15.21-2.11-22.86,21.08-79.28,33.29-173.15,33.29-273.75h0c0-100.6-12.2-194.47-33.29-273.75.67-7.62,1.37-15.24,2.1-22.78,29.86,95.93,41.2,196.56,41.75,296.52-.52,100-11.87,200.65-41.74,296.61"></path><path class="cls-11" d="M1386.13,1938.75c-.82-9.33-1.6-18.67-2.34-28.12,1.79-8.1,3.49-16.22,5.1-24.36,4.62-24.27,8.32-48.72,11.27-73.26,2.97-24.54,5.12-49.17,6.63-73.86,1.47-24.69,1.97-49.42,2.06-74.16h0c-.07-24.73-.59-49.47-2.05-74.16-1.51-24.68-3.69-49.32-6.62-73.86-2.95-24.53-6.65-48.98-11.27-73.25-1.62-8.17-3.32-16.32-5.12-24.45.74-9.42,1.51-18.73,2.33-28.03,21.08,79.28,33.29,173.15,33.29,273.75s-12.2,194.47-33.29,273.75"></path><path class="cls-17" d="M1415.29,2339.83c-.96,0-1.91-.02-2.87-.06h.02c14.55,0,28.8-3.88,42.61-11.29.14.46.27.89.41,1.35-6.89,3.4-14.06,6.09-21.47,7.82-6.15,1.41-12.42,2.18-18.7,2.18M1455.05,1001.51c-13.82-7.41-28.07-11.29-42.63-11.29h.05c15.19,0,29.49,3.64,42.94,10.12-.12.4-.23.77-.36,1.17"></path><path class="cls-43" d="M1412.45,2339.77c15-.47,29.46-5.32,42.15-12.8.15.5.31,1.03.45,1.52-13.81,7.4-28.06,11.28-42.61,11.29"></path><path class="cls-43" d="M1454.6,1003.02c-12.7-7.48-27.17-12.33-42.18-12.79h0c14.55,0,28.81,3.87,42.63,11.29-.15.49-.3,1.01-.45,1.51"></path><path class="cls-8" d="M1455.49,2329.92s-.02-.06-.03-.09c0,0,0,0,0,0-.14-.45-.27-.89-.41-1.35,61.82-33.15,115.06-137.06,149.36-281.69,1.21,6.08,2.46,12.13,3.72,18.1-14.28,53.65-32.45,106.48-57.97,156.06-14.82,28.08-31.91,55.41-54.21,78.38-11.15,11.41-23.65,21.69-37.78,29.19-.89.47-1.78.93-2.69,1.38"></path><path class="cls-8" d="M1604.41,1283.2c-34.3-144.63-87.54-248.54-149.36-281.69.12-.4.23-.77.36-1.17h0c.03-.08.05-.17.08-.25.9.45,1.79.9,2.68,1.38,14.13,7.49,26.63,17.79,37.77,29.19,11.2,11.41,20.96,24.11,29.9,37.29,8.94,13.2,16.9,27.01,24.3,41.09,25.52,49.61,43.7,102.44,57.98,156.12-1.26,5.95-2.5,11.98-3.71,18.04"></path><path class="cls-39" d="M1455.05,2328.49c-.15-.49-.31-1.02-.45-1.52.67-.4,1.34-.8,2.01-1.21,13.29-8.08,24.85-18.7,35.05-30.39,20.4-23.49,36.02-50.8,49.2-79,13.26-28.22,24.1-57.59,33.33-87.44,9.22-29.86,17.12-60.14,23.75-90.71.85-4,1.69-8.01,2.52-12.01,1.28,6.94,2.6,13.78,3.95,20.59-34.3,144.63-87.54,248.54-149.36,281.69M1600.47,1303.7c-.82-3.98-1.65-7.96-2.5-11.93-6.63-30.57-14.55-60.85-23.75-90.71-9.23-29.85-20.08-59.21-33.33-87.44-13.19-28.2-28.81-55.51-49.22-79-10.2-11.69-21.77-22.31-35.06-30.39-.66-.41-1.33-.81-2.01-1.21.15-.5.3-1.01.45-1.51,61.82,33.15,115.06,137.06,149.36,281.69-1.35,6.77-2.66,13.6-3.94,20.5"></path><path class="cls-47" d="M1608.13,2064.91c-1.27-5.97-2.51-12.02-3.72-18.1,25.75-108.57,40.83-240.1,40.83-381.8h0c0-141.71-15.07-273.23-40.83-381.8,1.21-6.06,2.45-12.08,3.71-18.04,2.03,7.62,3.98,15.27,5.86,22.91,29.88,123.36,41.35,250.39,41.82,376.93-.21,63.31-3.23,126.64-9.84,189.65-6.92,62.95-16.76,125.69-31.95,187.29-1.88,7.67-3.84,15.33-5.88,22.97"></path><path class="cls-23" d="M1604.41,2046.8c-1.35-6.81-2.67-13.65-3.95-20.59,11.77-57.28,20.28-115.26,25.59-173.56,5.8-60.88,8.63-122.06,8.63-183.25,0-1.47,0-2.94,0-4.4,0-1.71,0-3.43,0-5.14,0-60.94-2.88-121.87-8.61-182.52-5.33-58.32-13.82-116.33-25.6-173.64,1.28-6.9,2.59-13.73,3.94-20.5,25.75,108.57,40.83,240.1,40.83,381.8s-15.07,273.23-40.83,381.8"></path><path class="cls-17" d="M1624.17,2564.58c-.47,0-.94,0-1.41-.02h-.02c52.71,0,101.58-59.47,141.77-160.93,1.04.81,2.07,1.59,3.11,2.36-14.31,33.71-30.03,64.49-47.26,91.68-.02.03-.03.05-.05.08-.13.18-.26.37-.39.55-4.88,6.89-10.05,13.74-15.59,20.29-7.58,8.92-15.85,17.24-25.01,24.57-8.13,6.37-16.98,11.78-26.67,15.75h0c-3.95,1.58-8.01,2.86-12.14,3.8-5.37,1.22-10.85,1.87-16.34,1.87M1764.51,926.37c-38.03-96-83.84-154.4-133.3-160.42,16.85,1.88,32.33,9.01,46.46,19.62.48.37.97.75,1.45,1.12,16.12,12.84,29.45,28.77,41.18,45.57,7.34,10.63,14.07,21.63,20.31,32.89,10.94,19.98,20.18,40.34,27.77,58.3-1.29.95-2.58,1.91-3.87,2.92"></path><path class="cls-8" d="M1622.74,2564.56c10.18-.32,20.15-2.9,29.28-7.12,9.16-4.21,17.51-9.99,25.08-16.59,15.16-13.24,27.55-29.37,38.34-46.35,18.53-29.48,32.86-61.43,45.07-94.1,1.33,1.1,2.68,2.18,4.01,3.22-40.2,101.46-89.06,160.93-141.77,160.93"></path><path class="cls-8" d="M1760.52,929.57c-12.21-32.67-26.55-64.61-45.07-94.09-10.79-16.98-23.18-33.1-38.34-46.35-7.57-6.6-15.92-12.37-25.08-16.59-9.14-4.22-19.11-6.79-29.29-7.12h0c2.26,0,4.51.12,6.75.34.58.05,1.14.11,1.72.17,49.47,6.01,95.27,64.42,133.3,160.42-1.34,1.04-2.66,2.1-3.99,3.2"></path><path class="cls-18" d="M1768.49,2406.61c-.29-.21-.58-.42-.86-.63,0,0,0,.01,0,.02-1.05-.78-2.07-1.55-3.11-2.36,15.69-39.6,30.07-85.62,42.83-136.97.89,5.66,1.79,11.22,2.71,16.81-9.73,35.48-20.96,70.55-34.17,104.96-2.4,6.08-4.86,12.14-7.39,18.17"></path><path class="cls-18" d="M1807.34,1063.33c-12.76-51.35-27.14-97.36-42.83-136.97,1.29-1,2.58-1.97,3.87-2.92,0,.01,0,.02.02.03.03-.02.05-.04.08-.06,2.53,6.03,4.98,12.08,7.38,18.15,13.21,34.44,24.44,69.53,34.18,105.02-.91,5.56-1.8,11.11-2.69,16.74"></path><path class="cls-47" d="M1764.51,2403.63c-1.34-1.04-2.69-2.12-4.01-3.22,1.93-5.18,3.81-10.37,5.65-15.58,13.43-38.12,24.32-77.14,33.64-116.52,1.59-6.78,3.15-13.57,4.66-20.37.95,6.28,1.91,12.52,2.89,18.72-12.76,51.35-27.14,97.36-42.83,136.97M1804.47,1081.98c-1.51-6.78-3.06-13.54-4.65-20.3-9.32-39.38-20.22-78.39-33.64-116.52-1.84-5.21-3.72-10.4-5.66-15.58,1.33-1.1,2.66-2.17,3.99-3.2,15.69,39.6,30.07,85.62,42.83,136.97-.97,6.17-1.93,12.39-2.88,18.64"></path><path class="cls-32" d="M1810.05,2283.48c-.92-5.59-1.81-11.15-2.71-16.81,39.61-159.38,63.72-370.33,63.72-601.67h0c0-231.34-24.11-442.29-63.72-601.67.89-5.63,1.78-11.18,2.69-16.74,11.87,43.3,21.52,87.21,29.84,131.27,29.84,160.62,41.28,324.07,41.75,487.14-.23,81.57-3.2,163.15-9.81,244.49-6.93,81.28-16.72,162.42-31.9,242.66-8.32,44.08-17.97,88.01-29.86,131.33"></path><path class="cls-26" d="M1807.34,2266.67c-.98-6.2-1.94-12.44-2.89-18.72,7.29-32.7,13.69-65.62,19.21-98.69,13.13-79.92,22.48-160.49,28.19-241.32,5.85-79.24,8.65-158.72,8.65-238.19,0-1.58,0-3.17,0-4.75,0-1.9,0-3.8,0-5.7,0-79.16-2.83-158.31-8.62-237.24-5.73-80.84-15.05-161.41-28.19-241.33-5.52-33.09-11.93-66.03-19.23-98.75.94-6.25,1.9-12.48,2.88-18.64,39.61,159.38,63.72,370.33,63.72,601.67s-24.11,442.29-63.72,601.67"></path><path class="cls-17" d="M1834.69,2429.7c-.52,0-1.04,0-1.57-.01,1.8,0,3.62-.06,5.42-.16,0,.03.02.08.02.1-1.29.05-2.58.07-3.88.07"></path><path class="cls-18" d="M1833.12,2429.69s-.05,0-.07,0c1.82-.05,3.64-.16,5.45-.31.01.05.03.1.04.15-1.8.11-3.62.16-5.42.16"></path><path class="cls-41" d="M1838.61,2429.7s0-.04-.02-.07c0,0-.02,0-.03,0,0-.03-.02-.08-.02-.1,72.29-4.27,137.42-92.79,184.21-233.09,1.06,3.85,2.13,7.7,3.21,11.49-10.73,29.63-23.04,58.68-37.44,86.81-8.33,15.96-17.3,31.62-27.39,46.58-10.08,14.94-21.08,29.34-33.71,42.29-12.56,12.94-26.67,24.62-42.63,33.16-14.25,7.63-30.16,12.44-46.19,12.93"></path><path class="cls-32" d="M1838.54,2429.53c-.01-.05-.03-.1-.04-.15,15.95-1.42,31.26-7.11,44.72-15.38,15.12-9.12,28.28-21.13,39.9-34.36,23.25-26.58,41.05-57.54,56.09-89.49,15.12-31.99,27.48-65.28,38.03-99.11.73-2.34,1.45-4.68,2.16-7.03,1.1,4.18,2.22,8.32,3.35,12.44-46.79,140.3-111.93,228.82-184.21,233.09"></path><path class="cls-17" d="M1838.54,900.47c-1.82-.11-3.64-.16-5.47-.16h-.02,0,0,0,0,.45c1.69,0,3.37.06,5.05.14v.02"></path><path class="cls-18" d="M1838.5,900.62c-1.8-.16-3.61-.26-5.43-.31,1.82,0,3.65.06,5.47.16-.01.05-.02.1-.04.15"></path><path class="cls-41" d="M2022.76,1133.56c-46.79-140.3-111.93-228.82-184.21-233.09v-.02h.03c.01-.05.02-.09.03-.15,16.04.48,31.94,5.3,46.19,12.94,15.96,8.53,30.06,20.22,42.62,33.16,12.62,12.95,23.63,27.35,33.71,42.29,10.08,14.96,19.05,30.61,27.38,46.58,14.4,28.15,26.72,57.21,37.45,86.85-1.07,3.78-2.14,7.61-3.19,11.44"></path><path class="cls-32" d="M2019.42,1145.94c-.71-2.33-1.42-4.66-2.15-6.99-10.55-33.83-22.92-67.12-38.03-99.11-15.05-31.95-32.86-62.9-56.11-89.49-11.63-13.23-24.8-25.24-39.91-34.36-13.46-8.27-28.77-13.95-44.73-15.37.02-.05.03-.1.04-.15,72.29,4.27,137.42,92.79,184.21,233.09-1.12,4.1-2.23,8.22-3.33,12.38"></path><path class="cls-46" d="M2025.97,2207.93c-1.08-3.79-2.15-7.64-3.21-11.49,45.89-137.58,74.13-324.97,74.13-531.44h0c0-206.47-28.24-393.86-74.13-531.44,1.05-3.83,2.12-7.67,3.19-11.44,13.74,37.96,24.88,76.85,34.45,115.97,33.61,139.74,46.55,283.59,47.05,426.91-.47,143.32-13.41,287.18-47.02,426.92-9.58,39.13-20.71,78.04-34.46,116.01"></path><path class="cls-5" d="M2022.76,2196.44c-1.13-4.12-2.24-8.25-3.35-12.44,9.61-31.56,17.89-63.54,24.95-95.8,14.96-69.37,25.59-139.69,32.1-210.41,6.64-69.32,9.86-138.97,9.86-208.63,0-1.39,0-2.77,0-4.16,0-1.66,0-3.33,0-4.99,0-69.38-3.27-138.76-9.84-207.8-6.54-70.72-17.13-141.05-32.1-210.41-7.06-32.28-15.36-64.27-24.96-95.85,1.1-4.16,2.21-8.28,3.33-12.38,45.89,137.58,74.13,324.97,74.13,531.44s-28.24,393.86-74.13,531.44"></path><path class="cls-17" d="M2044.11,2789.36h-.38c-.06,0-.11,0-.17,0h-.19.04c69.8-.03,133.61-103.09,182.57-273.47,1.42.38,2.83.73,4.26,1.06-12.07,40.17-25.2,78.28-39.46,113.88-.03.07-.06.13-.09.2-.06.14-.12.27-.18.41-7.54,16.71-15.81,34.55-25.22,52.1-2.78,5.09-5.65,10.12-8.62,15.11-11.29,18.93-23.96,37.27-39.24,53.28-11.23,11.5-23.66,21.38-37.55,28.8,0,0-.02,0-.02,0-11.1,5.51-23.4,8.63-35.7,8.63h-.03"></path><path class="cls-41" d="M2043.41,2789.35c12.55-.42,24.81-4.05,35.7-10.04,10.9-6.05,20.6-14.03,29.29-22.9,17.46-17.77,31.33-38.77,43.4-60.55,12.1-21.83,22.28-44.68,31.5-67.88,9.22-23.21,17.23-46.91,24.61-70.79,4.42-14.24,8.6-28.56,12.55-42.94,1.83.6,3.67,1.14,5.51,1.64-48.96,170.38-112.76,273.44-182.57,273.47"></path><path class="cls-17" d="M2225.97,814.12c-46.61-162.22-106.68-263.41-172.58-272.76,18.39,2.46,35.38,11.3,50.95,24.36,2.15,1.81,4.24,3.68,6.28,5.6,18.39,17.49,33.1,38.39,46.02,60.05,10.46,17.55,19.67,35.8,28.12,54.37,14.09,31.22,25.08,61.5,32.94,83.82,0,.02.02.05.03.07,0,.02.01.04.02.06,4.57,14.03,8.99,28.46,13.3,43.18-1.69.37-3.39.79-5.08,1.24"></path><path class="cls-41" d="M2220.49,815.75c-3.96-14.38-8.13-28.7-12.55-42.94-7.37-23.88-15.39-47.58-24.61-70.79-9.22-23.2-19.41-46.06-31.51-67.88-12.06-21.79-25.95-42.78-43.4-60.55-8.7-8.87-18.39-16.85-29.3-22.9-10.9-6-23.18-9.63-35.74-10.04h0c2.19.01,4.36.14,6.52.33.35.03.7.05,1.05.09.82.08,1.65.18,2.46.29,65.89,9.35,125.96,110.53,172.58,272.76-1.83.5-3.66,1.04-5.49,1.63"></path><path class="cls-2" d="M2231.48,2517.19c-.42-.09-.83-.18-1.24-.28,0,0,0,.02,0,.02-1.42-.33-2.84-.68-4.26-1.06,17.15-59.67,32.47-127.57,45.59-202.21,1.9,4.01,3.82,7.95,5.76,11.84-12.17,64.57-26.91,128.71-45.84,191.68"></path><path class="cls-46" d="M2225.97,2515.88c-1.84-.5-3.68-1.04-5.51-1.64,9.3-33.84,17.38-68.02,24.6-102.38,7.73-36.79,14.58-73.76,20.63-110.88,1.94,4.3,3.89,8.52,5.87,12.69-13.12,74.64-28.44,142.54-45.59,202.21"></path><path class="cls-2" d="M2271.56,1016.33c-13.12-74.64-28.44-142.55-45.59-202.21,1.69-.46,3.39-.87,5.08-1.24h0c.13-.03.26-.05.39-.08,18.93,62.99,33.68,127.15,45.85,191.74-1.93,3.88-3.84,7.8-5.74,11.8"></path><path class="cls-46" d="M2265.71,1028.97c-6.05-37.1-12.9-74.06-20.62-110.83-7.21-34.36-15.3-68.55-24.61-102.39,1.82-.59,3.65-1.14,5.49-1.63,17.15,59.67,32.47,127.57,45.59,202.21-1.97,4.16-3.92,8.36-5.85,12.64"></path><path class="cls-9" d="M2277.32,2325.51c-1.94-3.89-3.86-7.83-5.76-11.84,32.21-183.27,51.15-407.09,51.15-648.67h0c0-241.58-18.94-465.4-51.15-648.67,1.9-4,3.8-7.92,5.74-11.8,3.69,19.59,7.14,39.21,10.4,58.85,32.57,198.83,45.09,400.4,45.57,601.62-.46,201.22-12.98,402.79-45.54,601.62-3.27,19.65-6.72,39.3-10.41,58.89"></path><path class="cls-24" d="M2271.56,2313.67c-1.98-4.17-3.93-8.39-5.87-12.69,2.01-12.29,3.92-24.6,5.75-36.92,14.53-99.06,24.82-198.77,31.15-298.74,6.51-98.39,9.56-197.01,9.56-295.63,0-1.57,0-3.13,0-4.7,0-1.96,0-3.91,0-5.87,0-98.23-3.09-196.45-9.54-294.45-6.34-99.97-16.61-199.68-31.15-298.74-1.83-12.34-3.75-24.66-5.75-36.97,1.93-4.28,3.88-8.48,5.85-12.64,32.21,183.27,51.15,407.09,51.15,648.67s-18.94,465.4-51.15,648.67"></path><path class="cls-17" d="M2256.62,2519.65c-.97,0-1.95-.02-2.92-.05h-.02c40.83,0,79.72-24.05,115.08-67.54.83.71,1.67,1.42,2.5,2.11-2.29,2.71-4.62,5.38-7.01,8.01-1.75,1.92-3.54,3.81-5.35,5.68-5.69,5.89-11.67,11.56-17.96,16.84-9.16,7.66-18.96,14.52-29.52,20.29h0c-10.75,5.8-22.35,10.16-34.28,12.56-6.76,1.36-13.63,2.09-20.52,2.09"></path><path class="cls-17" d="M2368.76,877.93c-35.35-43.47-74.23-67.52-115.05-67.54,0,0-.02,0-.03,0h0c.26,0,.52,0,.79,0,20.24,0,38.9,5.25,56.05,14.14.3.16.6.32.89.48,17.79,9.57,33.49,22.65,47.48,37.13,4.29,4.42,8.4,8.99,12.38,13.68-.85.7-1.67,1.4-2.51,2.12"></path><path class="cls-2" d="M2253.68,2519.6c20.02-.47,39.36-7.13,56.16-17.38,16.95-10.15,31.71-23.56,44.76-38.33,4.01-4.57,7.89-9.25,11.62-14.04.84.74,1.7,1.49,2.54,2.21-35.36,43.48-74.25,67.54-115.08,67.54"></path><path class="cls-2" d="M2366.24,880.13c-3.74-4.79-7.61-9.47-11.63-14.04-13.04-14.77-27.81-28.17-44.76-38.32-16.8-10.24-36.13-16.9-56.14-17.37,40.82.01,79.7,24.06,115.05,67.54-.84.72-1.69,1.46-2.52,2.2"></path><path class="cls-42" d="M2371.29,2454.19s-.01-.01-.02-.02c0,0,0,0,0,.01-.83-.7-1.67-1.4-2.5-2.11,105.66-129.95,179.78-433.43,179.78-787.07h0c0-353.64-74.11-657.12-179.78-787.07.84-.72,1.66-1.42,2.51-2.12,9.05,10.69,17.34,22,25.14,33.61,11.21,16.72,21.19,34.22,30.46,52.06,36.55,71.74,61,148.79,79.95,226.62,37.35,156.11,51.75,316.8,52.28,476.89-.51,160.09-14.91,320.78-52.25,476.9-18.95,77.84-43.41,154.89-79.96,226.63-9.26,17.84-19.25,35.34-30.46,52.06-7.79,11.61-16.09,22.92-25.14,33.6"></path><path class="cls-9" d="M2368.76,2452.07c-.84-.72-1.7-1.47-2.54-2.21,20.55-26.32,37.05-55.73,51.36-85.94,16.98-35.75,30.86-72.96,42.72-110.78,11.84-37.83,21.94-76.22,30.47-114.97,16.84-77.54,28.75-156.18,36.11-235.25,7.49-77.81,11.1-156.01,11.1-234.21,0-1.24,0-2.48,0-3.72,0-1.55,0-3.1,0-4.65,0-77.89-3.65-155.77-11.07-233.28-7.38-79.07-19.25-157.71-36.11-235.25-8.53-38.75-18.64-77.13-30.47-114.97-11.86-37.81-25.76-75.02-42.73-110.78-14.32-30.21-30.83-59.61-51.37-85.93.84-.74,1.68-1.48,2.52-2.2,105.66,129.95,179.78,433.43,179.78,787.07s-74.11,657.12-179.78,787.07"></path><path class="cls-17" d="M2467.06,2491.76c-1.03,0-2.04-.02-3.07-.04h.02c171.4-.05,310.34-370.16,310.34-826.72h0c0-456.58-138.95-826.72-310.36-826.72h.64c24.35,0,46.48,6.49,66.55,17.31,5.43,2.99,10.68,6.31,15.78,9.84,8.14,5.64,15.92,11.81,23.21,18.52,10.39,9.49,19.98,19.73,28.93,30.52,16.51,20.12,30.84,42.07,43.22,63.02.02.03.03.06.05.09,0,0,0,.02,0,.02,40.75,76.68,72,162.82,94.73,254.2,33.91,141.75,47.31,287.79,47.82,433.21-.13,37.95-1.14,75.94-3.15,113.88-7.46,124.99-25.91,245.7-53.15,353.19-.05.19-.11.4-.16.6-.04.15-.08.3-.12.44-10.1,35.7-21.1,71.99-34.16,107.53-14.47,38.46-31.43,75.96-51.79,111.8-4.91,8.41-10.01,16.74-15.35,24.92-16.45,24.66-35.18,47.75-56.78,68.63-.03.02-.05.05-.08.08-7.29,6.71-15.07,12.88-23.21,18.52-2.61,1.8-5.26,3.56-7.96,5.24-12.16,7.46-25.18,13.46-38.77,17.29-10.83,3.01-22.01,4.65-33.19,4.65"></path><path class="cls-42" d="M2464.02,2491.72c19.62-.54,38.73-6.19,55.85-15.18,8.62-4.43,16.75-9.76,24.44-15.62,7.7-5.86,15.02-12.22,21.84-19.1,27.44-27.41,48.94-60.21,67.16-94.41,18.22-34.29,33.24-70.25,46.11-106.94,12.82-36.71,23.86-74.06,33.06-111.89,18.34-75.67,31.2-152.67,39.24-230.18,8.14-76.27,12.07-153.01,12.07-229.74,0-1.22,0-2.44,0-3.65,0-1.52,0-3.05,0-4.57,0-76.43-3.98-152.86-12.05-228.83-8.06-77.5-20.89-154.52-39.24-230.18-9.2-37.83-20.25-75.18-33.06-111.9-12.87-36.69-27.9-72.65-46.11-106.94-18.22-34.2-39.74-67-67.18-94.41-6.82-6.87-14.14-13.23-21.84-19.09-7.7-5.86-15.83-11.2-24.45-15.62-17.13-9-36.25-14.64-55.88-15.17h0c171.41,0,310.36,370.14,310.36,826.72s-138.94,826.67-310.34,826.72"></path></g></g><g></g><rect class="cls-10" x="-23.82" y="-26.61" width="2627.01" height="3387.58"></rect><g><path class="cls-44" d="M323.81,1660.87v71.77h-10.9l-2.07-19.35c-4.39,7.52-10.65,13.22-18.79,17.1-7.27,3.38-15.28,5.07-24.05,5.07-18.66,0-33.57-6.83-44.72-20.48-10.27-12.65-15.4-29.31-15.4-49.98,0-23.8,6.7-42.09,20.1-54.86,10.77-10.4,24.43-15.6,40.96-15.6,15.66,0,28.62,4.32,38.89,12.97,8.64,7.39,13.96,16.72,15.97,27.99h-14.65c-2.25-9.64-7.27-16.97-15.03-21.98-6.89-4.38-15.28-6.58-25.18-6.58-14.28,0-25.61,5.45-34,16.35-8.02,10.27-12.03,24.17-12.03,41.71,0,19.54,5.33,34.63,15.97,45.28,8.39,8.52,18.6,12.78,30.62,12.78s22.23-3.82,30.25-11.46c7.14-6.76,10.71-15.03,10.71-24.8v-13.9h-41.71v-12.02h55.05Z"></path><path class="cls-44" d="M434.66,1723.25c15.03,0,26.8-5.51,35.32-16.53,8.01-10.27,12.02-24.17,12.02-41.71,0-19.66-5.01-34.76-15.03-45.28-8.39-8.64-19.16-12.96-32.32-12.96-15.28,0-27.18,5.63-35.7,16.91-7.89,10.27-11.84,24.05-11.84,41.34,0,19.91,5.14,35.07,15.41,45.47,8.39,8.52,19.1,12.78,32.13,12.78h0ZM434.66,1735.46c-19.79,0-35.45-6.95-46.97-20.85-10.4-12.65-15.59-29.18-15.59-49.6,0-23.42,6.89-41.65,20.67-54.67,11.27-10.52,25.24-15.78,41.9-15.78,19.41,0,34.95,6.83,46.6,20.48,10.65,12.52,15.97,29.19,15.97,49.98,0,23.42-6.83,41.59-20.48,54.49-11.15,10.65-25.18,15.97-42.09,15.97h0Z"></path><path class="cls-44" d="M677.21,1671.76h-19.17v40.21h18.23c8.64,0,14.71-1.75,18.22-5.26,3.01-3.01,4.51-7.7,4.51-14.09,0-7.14-2.13-12.52-6.39-16.16-3.76-3.13-8.9-4.7-15.41-4.7h0ZM673.83,1618.03h-15.78v34.2h16.35c6.77,0,11.84-1.69,15.22-5.07,3.13-3.13,4.7-7.45,4.7-12.96,0-5.13-1.78-9.11-5.35-11.93-3.57-2.82-8.62-4.23-15.13-4.23h0ZM626.48,1597.36h45.09c20.16,0,34.57,3.38,43.21,10.15,7.39,5.76,11.09,14.34,11.09,25.74,0,7.39-2.82,13.72-8.45,18.98-4.26,4.13-9.65,7.08-16.16,8.83,9.89,2.01,17.47,6.01,22.73,12.02,4.76,5.51,7.14,12.34,7.14,20.48,0,14.15-4.95,24.36-14.85,30.62-9.02,5.63-22.8,8.45-41.33,8.45h-48.47v-135.28h0Z"></path><polygon class="cls-44" points="860.21 1653.54 860.21 1675.33 805.91 1675.33 805.91 1709.9 865.66 1709.9 865.66 1732.64 774.35 1732.64 774.35 1597.36 865.66 1597.36 865.66 1620.47 805.91 1620.47 805.91 1653.54 860.21 1653.54 860.21 1653.54"></polygon><polygon class="cls-44" points="976.13 1732.64 946.45 1732.64 946.45 1678.71 898.54 1597.36 932.36 1597.36 962.04 1652.41 993.98 1597.36 1024.05 1597.36 976.13 1678.71 976.13 1732.64 976.13 1732.64"></polygon><path class="cls-44" d="M1113.67,1713.1c10.52,0,18.79-3.95,24.8-11.84,6.26-8.27,9.39-20.35,9.39-36.26,0-17.91-4.01-31-12.02-39.27-5.89-6.01-13.28-9.02-22.17-9.02-10.65,0-18.92,4.01-24.8,12.03-6.27,8.39-9.4,20.54-9.4,36.45,0,17.91,4.07,30.94,12.21,39.08,5.76,5.89,13.09,8.83,21.99,8.83h0ZM1113.67,1735.46c-20.17,0-36.14-5.95-47.91-17.85-12.15-12.15-18.22-29.62-18.22-52.42,0-25.42,7.7-44.34,23.11-56.74,11.52-9.27,25.86-13.9,43.03-13.9,20.17,0,36.13,5.95,47.91,17.85,12.15,12.28,18.22,29.81,18.22,52.61,0,25.43-7.7,44.34-23.11,56.74-11.53,9.14-25.87,13.72-43.02,13.72h0Z"></path><polygon class="cls-44" points="1310.95 1597.36 1337.81 1597.36 1337.81 1732.64 1305.31 1732.64 1251.95 1636.63 1251.95 1732.64 1224.89 1732.64 1224.89 1597.36 1259.84 1597.36 1310.95 1689.8 1310.95 1597.36 1310.95 1597.36"></polygon><path class="cls-44" d="M1437.39,1619.16h-19.17v91.5h19.54c23.55,0,35.32-15.22,35.32-45.66,0-16.53-3.63-28.62-10.89-36.26-6.02-6.39-14.29-9.58-24.8-9.58h0ZM1386.66,1597.36h50.73c44.97,0,67.45,22.55,67.45,67.64s-22.36,67.64-67.08,67.64h-51.1v-135.28h0Z"></path></g></g></svg>